<svg width="816" height="245" viewBox="0 0 816 245" fill="none" xmlns="http://www.w3.org/2000/svg">
<path d="M5 103V102.5H4.5V103H5ZM24 122.5H24.5H24ZM5 142H4.5V142.5H5V142ZM5 139.982V139.482H4.5V139.982H5ZM5 105.018H4.5V105.518H5V105.018ZM810.952 143.073L810.951 143.573L811.451 143.574L811.452 143.074L810.952 143.073ZM811.047 104.073L811.547 104.075L811.549 103.575L811.049 103.573L811.047 104.073ZM811.042 106.092L811.041 106.592L811.541 106.593L811.542 106.093L811.042 106.092ZM810.957 141.055L811.457 141.056L811.459 140.556L810.959 140.555L810.957 141.055ZM83 123.5L82.6712 123.123L82.2774 123.467L82.6383 123.845L83 123.5ZM114.5 96L114.708 95.5455L114.415 95.4108L114.171 95.6233L114.5 96ZM174.5 123.5L174.741 123.938L175.611 123.459L174.708 123.045L174.5 123.5ZM114.5 156.5L114.138 156.845L114.404 157.123L114.741 156.938L114.5 156.5ZM133 96L132.732 95.5782L131.99 96.0503L132.775 96.4464L133 96ZM187.5 123.5L187.759 123.928L188.531 123.46L187.725 123.054L187.5 123.5ZM133 156.5L132.741 156.072L132.026 156.505L132.746 156.93L133 156.5ZM144 163L143.746 163.43L144.015 163.59L144.277 163.417L144 163ZM203.5 123.5L203.777 123.917L204.447 123.471L203.751 123.067L203.5 123.5ZM144 89L144.251 88.5675L143.988 88.415L143.732 88.5782L144 89ZM164.5 95.5L164.167 95.1274L163.643 95.5959L164.257 95.9371L164.5 95.5ZM174 87L174.285 86.5889L173.96 86.3645L173.667 86.6274L174 87ZM226 123L226.31 123.393L226.841 122.974L226.285 122.589L226 123ZM174 164L173.733 164.423L174.032 164.612L174.31 164.393L174 164ZM164.5 158L164.211 157.592L163.601 158.023L164.233 158.423L164.5 158ZM214 123L214.289 123.408L214.938 122.949L214.243 122.563L214 123ZM194.5 95.5L194.167 95.1274L193.643 95.5959L194.257 95.9371L194.5 95.5ZM204 87L204.285 86.5889L203.96 86.3645L203.667 86.6274L204 87ZM256 123L256.31 123.393L256.841 122.974L256.285 122.589L256 123ZM204 164L203.733 164.423L204.032 164.612L204.31 164.393L204 164ZM194.5 158L194.211 157.592L193.601 158.023L194.233 158.423L194.5 158ZM244 123L244.289 123.408L244.938 122.949L244.243 122.563L244 123ZM559 123.5L558.671 123.123L558.277 123.467L558.638 123.845L559 123.5ZM590.5 96L590.708 95.5455L590.415 95.4108L590.171 95.6233L590.5 96ZM650.5 123.5L650.741 123.938L651.611 123.459L650.708 123.045L650.5 123.5ZM590.5 156.5L590.138 156.845L590.404 157.123L590.741 156.938L590.5 156.5ZM609 96L608.732 95.5782L607.99 96.0503L608.775 96.4464L609 96ZM663.5 123.5L663.759 123.928L664.531 123.46L663.725 123.054L663.5 123.5ZM609 156.5L608.741 156.072L608.026 156.505L608.746 156.93L609 156.5ZM620 163L619.746 163.43L620.015 163.59L620.277 163.417L620 163ZM679.5 123.5L679.777 123.917L680.447 123.471L679.751 123.067L679.5 123.5ZM620 89L620.251 88.5675L619.988 88.415L619.732 88.5782L620 89ZM640.5 95.5L640.167 95.1274L639.643 95.5959L640.257 95.9371L640.5 95.5ZM650 87L650.285 86.5889L649.96 86.3645L649.667 86.6274L650 87ZM702 123L702.31 123.393L702.841 122.974L702.285 122.589L702 123ZM650 164L649.733 164.423L650.032 164.612L650.31 164.393L650 164ZM640.5 158L640.211 157.592L639.601 158.023L640.233 158.423L640.5 158ZM690 123L690.289 123.408L690.938 122.949L690.243 122.563L690 123ZM670.5 95.5L670.167 95.1274L669.643 95.5959L670.257 95.9371L670.5 95.5ZM680 87L680.285 86.5889L679.96 86.3645L679.667 86.6274L680 87ZM732 123L732.31 123.393L732.841 122.974L732.285 122.589L732 123ZM680 164L679.733 164.423L680.032 164.612L680.31 164.393L680 164ZM670.5 158L670.211 157.592L669.601 158.023L670.233 158.423L670.5 158ZM720 123L720.289 123.408L720.938 122.949L720.243 122.563L720 123ZM330 123.5L329.644 123.149L329.291 123.507L329.651 123.858L330 123.5ZM390.5 62L390.776 61.5829L390.432 61.3558L390.144 61.6494L390.5 62ZM483.5 123.5L483.768 123.922L484.42 123.509L483.776 123.083L483.5 123.5ZM390.5 182.5L390.151 182.858L390.434 183.134L390.768 182.922L390.5 182.5ZM335 123.1L334.644 122.749L334.291 123.107L334.651 123.458L335 123.1ZM388.208 69L388.484 68.583L388.141 68.3558L387.852 68.6494L388.208 69ZM470 123.1L470.268 123.522L470.919 123.108L470.276 122.683L470 123.1ZM388.208 175L387.859 175.358L388.142 175.634L388.476 175.422L388.208 175ZM341 122.954L340.642 122.606L340.295 122.962L340.649 123.311L341 122.954ZM386.72 76L386.998 75.5843L386.652 75.3532L386.362 75.6512L386.72 76ZM457 122.954L457.27 123.375L457.913 122.963L457.278 122.539L457 122.954ZM386.72 168L386.369 168.356L386.653 168.636L386.99 168.421L386.72 168ZM346 122.809L345.643 122.459L345.293 122.816L345.65 123.166L346 122.809ZM385.02 83L385.296 82.5834L384.952 82.3549L384.662 82.65L385.02 83ZM445 122.809L445.269 123.231L445.917 122.818L445.276 122.393L445 122.809ZM385.02 161L384.67 161.357L384.953 161.635L385.288 161.422L385.02 161ZM351 122.685L350.645 122.332L350.287 122.692L350.653 123.045L351 122.685ZM384.502 89L384.775 88.5816L384.434 88.3586L384.147 88.6474L384.502 89ZM436 122.685L436.266 123.108L436.927 122.693L436.274 122.266L436 122.685ZM384.502 155L384.154 155.36L384.436 155.631L384.767 155.424L384.502 155ZM356 122.539L355.648 122.184L355.282 122.547L355.656 122.902L356 122.539ZM382.801 96L383.072 95.5797L382.735 95.3623L382.449 95.6447L382.801 96ZM424 122.539L424.263 122.965L424.937 122.548L424.271 122.119L424 122.539ZM382.801 148L382.457 148.363L382.736 148.628L383.064 148.425L382.801 148ZM5 103.5C7.42763 103.5 9.8318 103.991 12.0754 104.944L12.4666 104.024C10.0998 103.018 7.56261 102.5 5 102.5V103.5ZM12.0754 104.944C14.319 105.898 16.3584 107.297 18.0769 109.06L18.7931 108.362C16.983 106.505 14.8334 105.03 12.4666 104.024L12.0754 104.944ZM18.0769 109.06C19.7954 110.824 21.1593 112.919 22.0901 115.225L23.0174 114.851C22.0384 112.425 20.6033 110.22 18.7931 108.362L18.0769 109.06ZM22.0901 115.225C23.0208 117.531 23.5 120.003 23.5 122.5H24.5C24.5 119.875 23.9963 117.276 23.0174 114.851L22.0901 115.225ZM23.5 122.5C23.5 124.997 23.0208 127.469 22.0901 129.775L23.0174 130.149C23.9963 127.724 24.5 125.125 24.5 122.5H23.5ZM22.0901 129.775C21.1593 132.081 19.7954 134.176 18.0769 135.94L18.7931 136.638C20.6032 134.78 22.0384 132.575 23.0174 130.149L22.0901 129.775ZM18.0769 135.94C16.3584 137.703 14.319 139.102 12.0754 140.056L12.4666 140.976C14.8334 139.97 16.983 138.495 18.7931 136.638L18.0769 135.94ZM12.0754 140.056C9.8318 141.009 7.42763 141.5 5 141.5V142.5C7.56261 142.5 10.0998 141.982 12.4666 140.976L12.0754 140.056ZM5.5 142V139.982H4.5V142H5.5ZM5 140.482C7.30436 140.482 9.58584 140.016 11.714 139.111L11.3228 138.191C9.31783 139.043 7.16938 139.482 5 139.482V140.482ZM11.714 139.111C13.8422 138.206 15.7751 136.881 17.4026 135.21L16.6864 134.513C15.1505 136.089 13.3278 137.339 11.3228 138.191L11.714 139.111ZM17.4026 135.21C19.0301 133.54 20.3204 131.558 21.2006 129.377L20.2732 129.003C19.4413 131.064 18.2223 132.936 16.6864 134.513L17.4026 135.21ZM21.2006 129.377C22.0807 127.196 22.5335 124.86 22.5335 122.5H21.5335C21.5335 124.732 21.1051 126.942 20.2732 129.003L21.2006 129.377ZM22.5335 122.5C22.5335 120.14 22.0807 117.804 21.2006 115.623L20.2732 115.997C21.1051 118.058 21.5335 120.268 21.5335 122.5H22.5335ZM21.2006 115.623C20.3204 113.442 19.0301 111.46 17.4026 109.79L16.6864 110.487C18.2223 112.064 19.4413 113.936 20.2732 115.997L21.2006 115.623ZM17.4026 109.79C15.7751 108.119 13.8422 106.794 11.714 105.889L11.3228 106.809C13.3278 107.661 15.1505 108.911 16.6864 110.487L17.4026 109.79ZM11.714 105.889C9.58584 104.984 7.30436 104.518 5 104.518V105.518C7.16938 105.518 9.31784 105.957 11.3228 106.809L11.714 105.889ZM5.5 105.018V103H4.5V105.018H5.5ZM24 123.5H84V122.5H24V123.5ZM810.954 142.573C808.526 142.567 806.123 142.071 803.882 141.111L803.488 142.031C805.853 143.043 808.389 143.567 810.951 143.573L810.954 142.573ZM803.882 141.111C801.641 140.152 799.604 138.749 797.89 136.981L797.172 137.677C798.978 139.539 801.124 141.019 803.488 142.031L803.882 141.111ZM797.89 136.981C796.176 135.213 794.817 133.115 793.892 130.807L792.964 131.179C793.937 133.607 795.367 135.815 797.172 137.677L797.89 136.981ZM793.892 130.807C792.967 128.498 792.494 126.025 792.5 123.528L791.5 123.526C791.494 126.15 791.991 128.751 792.964 131.179L793.892 130.807ZM792.5 123.528C792.506 121.031 792.991 118.56 793.928 116.256L793.001 115.88C792.016 118.303 791.506 120.901 791.5 123.526L792.5 123.528ZM793.928 116.256C794.864 113.953 796.233 111.861 797.956 110.102L797.241 109.402C795.427 111.256 793.986 113.457 793.001 115.88L793.928 116.256ZM797.956 110.102C799.679 108.342 801.721 106.949 803.967 106.001L803.578 105.079C801.209 106.08 799.056 107.549 797.241 109.402L797.956 110.102ZM803.967 106.001C806.213 105.052 808.619 104.567 811.046 104.573L811.049 103.573C808.486 103.567 805.948 104.079 803.578 105.079L803.967 106.001ZM810.547 104.072L810.542 106.09L811.542 106.093L811.547 104.075L810.547 104.072ZM811.044 105.592C808.739 105.586 806.457 106.046 804.326 106.946L804.715 107.867C806.722 107.02 808.872 106.586 811.041 106.592L811.044 105.592ZM804.326 106.946C802.196 107.845 800.26 109.166 798.628 110.833L799.343 111.532C800.883 109.96 802.708 108.715 804.715 107.867L804.326 106.946ZM798.628 110.833C796.997 112.499 795.702 114.478 794.816 116.657L795.743 117.033C796.579 114.974 797.803 113.105 799.343 111.532L798.628 110.833ZM794.816 116.657C793.931 118.835 793.472 121.171 793.466 123.531L794.466 123.533C794.472 121.301 794.906 119.093 795.743 117.033L794.816 116.657ZM793.466 123.531C793.461 125.89 793.908 128.228 794.783 130.411L795.711 130.039C794.884 127.976 794.461 125.765 794.466 123.533L793.466 123.531ZM794.783 130.411C795.657 132.594 796.943 134.579 798.566 136.253L799.284 135.557C797.752 133.977 796.538 132.102 795.711 130.039L794.783 130.411ZM798.566 136.253C800.19 137.928 802.119 139.258 804.245 140.168L804.639 139.249C802.636 138.391 800.816 137.137 799.284 135.557L798.566 136.253ZM804.245 140.168C806.371 141.078 808.652 141.549 810.956 141.555L810.959 140.555C808.789 140.55 806.642 140.106 804.639 139.249L804.245 140.168ZM810.457 141.054L810.452 143.072L811.452 143.074L811.457 141.056L810.457 141.054ZM792.002 122.527L732.003 122.381L732 123.381L792 123.527L792.002 122.527ZM254 123.5H284V122.5H254V123.5ZM300 123.5H330V122.5H300V123.5ZM83.3288 123.877L114.829 96.3767L114.171 95.6233L82.6712 123.123L83.3288 123.877ZM114.292 96.4545L174.292 123.955L174.708 123.045L114.708 95.5455L114.292 96.4545ZM174.259 123.062L114.259 156.062L114.741 156.938L174.741 123.938L174.259 123.062ZM114.862 156.155L83.3617 123.155L82.6383 123.845L114.138 156.845L114.862 156.155ZM132.775 96.4464L187.275 123.946L187.725 123.054L133.225 95.5536L132.775 96.4464ZM187.241 123.072L132.741 156.072L133.259 156.928L187.759 123.928L187.241 123.072ZM132.746 156.93L143.746 163.43L144.254 162.57L133.254 156.07L132.746 156.93ZM144.277 163.417L203.777 123.917L203.223 123.083L143.723 162.583L144.277 163.417ZM203.751 123.067L144.251 88.5675L143.749 89.4325L203.249 123.933L203.751 123.067ZM143.732 88.5782L132.732 95.5782L133.268 96.4218L144.268 89.4218L143.732 88.5782ZM164.833 95.8726L174.333 87.3726L173.667 86.6274L164.167 95.1274L164.833 95.8726ZM173.715 87.4111L225.715 123.411L226.285 122.589L174.285 86.5889L173.715 87.4111ZM225.69 122.607L173.69 163.607L174.31 164.393L226.31 123.393L225.69 122.607ZM174.267 163.577L164.767 157.577L164.233 158.423L173.733 164.423L174.267 163.577ZM164.789 158.408L214.289 123.408L213.711 122.592L164.211 157.592L164.789 158.408ZM214.243 122.563L164.743 95.0629L164.257 95.9371L213.757 123.437L214.243 122.563ZM194.833 95.8726L204.333 87.3726L203.667 86.6274L194.167 95.1274L194.833 95.8726ZM203.715 87.4111L255.715 123.411L256.285 122.589L204.285 86.5889L203.715 87.4111ZM255.69 122.607L203.69 163.607L204.31 164.393L256.31 123.393L255.69 122.607ZM204.267 163.577L194.767 157.577L194.233 158.423L203.733 164.423L204.267 163.577ZM194.789 158.408L244.289 123.408L243.711 122.592L194.211 157.592L194.789 158.408ZM244.243 122.563L194.743 95.0629L194.257 95.9371L243.757 123.437L244.243 122.563ZM559.329 123.877L590.829 96.3767L590.171 95.6233L558.671 123.123L559.329 123.877ZM590.292 96.4545L650.292 123.955L650.708 123.045L590.708 95.5455L590.292 96.4545ZM650.259 123.062L590.259 156.062L590.741 156.938L650.741 123.938L650.259 123.062ZM590.862 156.155L559.362 123.155L558.638 123.845L590.138 156.845L590.862 156.155ZM608.775 96.4464L663.275 123.946L663.725 123.054L609.225 95.5536L608.775 96.4464ZM663.241 123.072L608.741 156.072L609.259 156.928L663.759 123.928L663.241 123.072ZM608.746 156.93L619.746 163.43L620.254 162.57L609.254 156.07L608.746 156.93ZM620.277 163.417L679.777 123.917L679.223 123.083L619.723 162.583L620.277 163.417ZM679.751 123.067L620.251 88.5675L619.749 89.4325L679.249 123.933L679.751 123.067ZM619.732 88.5782L608.732 95.5782L609.268 96.4218L620.268 89.4218L619.732 88.5782ZM640.833 95.8726L650.333 87.3726L649.667 86.6274L640.167 95.1274L640.833 95.8726ZM649.715 87.4111L701.715 123.411L702.285 122.589L650.285 86.5889L649.715 87.4111ZM701.69 122.607L649.69 163.607L650.31 164.393L702.31 123.393L701.69 122.607ZM650.267 163.577L640.767 157.577L640.233 158.423L649.733 164.423L650.267 163.577ZM640.789 158.408L690.289 123.408L689.711 122.592L640.211 157.592L640.789 158.408ZM690.243 122.563L640.743 95.0629L640.257 95.9371L689.757 123.437L690.243 122.563ZM670.833 95.8726L680.333 87.3726L679.667 86.6274L670.167 95.1274L670.833 95.8726ZM679.715 87.4111L731.715 123.411L732.285 122.589L680.285 86.5889L679.715 87.4111ZM731.69 122.607L679.69 163.607L680.31 164.393L732.31 123.393L731.69 122.607ZM680.267 163.577L670.767 157.577L670.233 158.423L679.733 164.423L680.267 163.577ZM670.789 158.408L720.289 123.408L719.711 122.592L670.211 157.592L670.789 158.408ZM720.243 122.563L670.743 95.0629L670.257 95.9371L719.757 123.437L720.243 122.563ZM300.5 122.5C300.5 126.918 296.918 130.5 292.5 130.5V131.5C297.471 131.5 301.5 127.471 301.5 122.5H300.5ZM292.5 130.5C288.082 130.5 284.5 126.918 284.5 122.5H283.5C283.5 127.471 287.529 131.5 292.5 131.5V130.5ZM284.5 122.5C284.5 118.082 288.082 114.5 292.5 114.5V113.5C287.529 113.5 283.5 117.529 283.5 122.5H284.5ZM292.5 114.5C296.918 114.5 300.5 118.082 300.5 122.5H301.5C301.5 117.529 297.471 113.5 292.5 113.5V114.5ZM483 123.5H513V122.5H483V123.5ZM529 123.5H559V122.5H529V123.5ZM529.5 122.5C529.5 126.918 525.918 130.5 521.5 130.5V131.5C526.471 131.5 530.5 127.471 530.5 122.5H529.5ZM521.5 130.5C517.082 130.5 513.5 126.918 513.5 122.5H512.5C512.5 127.471 516.529 131.5 521.5 131.5V130.5ZM513.5 122.5C513.5 118.082 517.082 114.5 521.5 114.5V113.5C516.529 113.5 512.5 117.529 512.5 122.5H513.5ZM521.5 114.5C525.918 114.5 529.5 118.082 529.5 122.5H530.5C530.5 117.529 526.471 113.5 521.5 113.5V114.5ZM330.356 123.851L390.856 62.3506L390.144 61.6494L329.644 123.149L330.356 123.851ZM390.224 62.4171L483.224 123.917L483.776 123.083L390.776 61.5829L390.224 62.4171ZM483.232 123.078L390.232 182.078L390.768 182.922L483.768 123.922L483.232 123.078ZM390.849 182.142L330.349 123.142L329.651 123.858L390.151 182.858L390.849 182.142ZM335.356 123.45L388.565 69.3506L387.852 68.6494L334.644 122.749L335.356 123.45ZM387.933 69.417L469.724 123.517L470.276 122.683L388.484 68.583L387.933 69.417ZM469.732 122.677L387.941 174.578L388.476 175.422L470.268 123.522L469.732 122.677ZM388.558 174.642L335.349 122.742L334.651 123.458L387.859 175.358L388.558 174.642ZM341.358 123.303L387.078 76.3488L386.362 75.6512L340.642 122.606L341.358 123.303ZM386.442 76.4157L456.722 123.37L457.278 122.539L386.998 75.5843L386.442 76.4157ZM456.73 122.533L386.45 167.579L386.99 168.421L457.27 123.375L456.73 122.533ZM387.071 167.644L341.351 122.598L340.649 123.311L386.369 168.356L387.071 167.644ZM346.357 123.159L385.377 83.35L384.662 82.65L345.643 122.459L346.357 123.159ZM384.743 83.4166L444.724 123.226L445.276 122.393L385.296 82.5834L384.743 83.4166ZM444.731 122.387L384.751 160.578L385.288 161.422L445.269 123.231L444.731 122.387ZM385.369 160.643L346.35 122.452L345.65 123.166L384.67 161.357L385.369 160.643ZM351.355 123.037L384.856 89.3526L384.147 88.6474L350.645 122.332L351.355 123.037ZM384.228 89.4184L435.726 123.103L436.274 122.266L384.775 88.5816L384.228 89.4184ZM435.734 122.261L384.236 154.576L384.767 155.424L436.266 123.108L435.734 122.261ZM384.849 154.64L351.347 122.325L350.653 123.045L384.154 155.36L384.849 154.64ZM356.352 122.895L383.153 96.3553L382.449 95.6447L355.648 122.184L356.352 122.895ZM382.531 96.4203L423.729 122.96L424.271 122.119L383.072 95.5797L382.531 96.4203ZM423.737 122.114L382.538 147.575L383.064 148.425L424.263 122.965L423.737 122.114ZM383.146 147.637L356.344 122.177L355.656 122.902L382.457 148.363L383.146 147.637ZM13.5 37C13.5 39.4853 11.4853 41.5 9 41.5V42.5C12.0376 42.5 14.5 40.0376 14.5 37H13.5ZM9 41.5C6.51472 41.5 4.5 39.4853 4.5 37H3.5C3.5 40.0376 5.96243 42.5 9 42.5V41.5ZM4.5 37C4.5 34.5147 6.51472 32.5 9 32.5V31.5C5.96243 31.5 3.5 33.9624 3.5 37H4.5ZM9 32.5C11.4853 32.5 13.5 34.5147 13.5 37H14.5C14.5 33.9624 12.0376 31.5 9 31.5V32.5ZM28.5 37C28.5 39.4853 26.4853 41.5 24 41.5V42.5C27.0376 42.5 29.5 40.0376 29.5 37H28.5ZM24 41.5C21.5147 41.5 19.5 39.4853 19.5 37H18.5C18.5 40.0376 20.9624 42.5 24 42.5V41.5ZM19.5 37C19.5 34.5147 21.5147 32.5 24 32.5V31.5C20.9624 31.5 18.5 33.9624 18.5 37H19.5ZM24 32.5C26.4853 32.5 28.5 34.5147 28.5 37H29.5C29.5 33.9624 27.0376 31.5 24 31.5V32.5ZM44.5 37C44.5 39.4853 42.4853 41.5 40 41.5V42.5C43.0376 42.5 45.5 40.0376 45.5 37H44.5ZM40 41.5C37.5147 41.5 35.5 39.4853 35.5 37H34.5C34.5 40.0376 36.9624 42.5 40 42.5V41.5ZM35.5 37C35.5 34.5147 37.5147 32.5 40 32.5V31.5C36.9624 31.5 34.5 33.9624 34.5 37H35.5ZM40 32.5C42.4853 32.5 44.5 34.5147 44.5 37H45.5C45.5 33.9624 43.0376 31.5 40 31.5V32.5ZM59.5 37C59.5 39.4853 57.4853 41.5 55 41.5V42.5C58.0376 42.5 60.5 40.0376 60.5 37H59.5ZM55 41.5C52.5147 41.5 50.5 39.4853 50.5 37H49.5C49.5 40.0376 51.9624 42.5 55 42.5V41.5ZM50.5 37C50.5 34.5147 52.5147 32.5 55 32.5V31.5C51.9624 31.5 49.5 33.9624 49.5 37H50.5ZM55 32.5C57.4853 32.5 59.5 34.5147 59.5 37H60.5C60.5 33.9624 58.0376 31.5 55 31.5V32.5ZM74.5 37C74.5 39.4853 72.4853 41.5 70 41.5V42.5C73.0376 42.5 75.5 40.0376 75.5 37H74.5ZM70 41.5C67.5147 41.5 65.5 39.4853 65.5 37H64.5C64.5 40.0376 66.9624 42.5 70 42.5V41.5ZM65.5 37C65.5 34.5147 67.5147 32.5 70 32.5V31.5C66.9624 31.5 64.5 33.9624 64.5 37H65.5ZM70 32.5C72.4853 32.5 74.5 34.5147 74.5 37H75.5C75.5 33.9624 73.0376 31.5 70 31.5V32.5ZM89.5 37C89.5 39.4853 87.4853 41.5 85 41.5V42.5C88.0376 42.5 90.5 40.0376 90.5 37H89.5ZM85 41.5C82.5147 41.5 80.5 39.4853 80.5 37H79.5C79.5 40.0376 81.9624 42.5 85 42.5V41.5ZM80.5 37C80.5 34.5147 82.5147 32.5 85 32.5V31.5C81.9624 31.5 79.5 33.9624 79.5 37H80.5ZM85 32.5C87.4853 32.5 89.5 34.5147 89.5 37H90.5C90.5 33.9624 88.0376 31.5 85 31.5V32.5ZM104.5 37C104.5 39.4853 102.485 41.5 100 41.5V42.5C103.038 42.5 105.5 40.0376 105.5 37H104.5ZM100 41.5C97.5147 41.5 95.5 39.4853 95.5 37H94.5C94.5 40.0376 96.9624 42.5 100 42.5V41.5ZM95.5 37C95.5 34.5147 97.5147 32.5 100 32.5V31.5C96.9624 31.5 94.5 33.9624 94.5 37H95.5ZM100 32.5C102.485 32.5 104.5 34.5147 104.5 37H105.5C105.5 33.9624 103.038 31.5 100 31.5V32.5ZM119.5 37C119.5 39.4853 117.485 41.5 115 41.5V42.5C118.038 42.5 120.5 40.0376 120.5 37H119.5ZM115 41.5C112.515 41.5 110.5 39.4853 110.5 37H109.5C109.5 40.0376 111.962 42.5 115 42.5V41.5ZM110.5 37C110.5 34.5147 112.515 32.5 115 32.5V31.5C111.962 31.5 109.5 33.9624 109.5 37H110.5ZM115 32.5C117.485 32.5 119.5 34.5147 119.5 37H120.5C120.5 33.9624 118.038 31.5 115 31.5V32.5ZM134.5 37C134.5 39.4853 132.485 41.5 130 41.5V42.5C133.038 42.5 135.5 40.0376 135.5 37H134.5ZM130 41.5C127.515 41.5 125.5 39.4853 125.5 37H124.5C124.5 40.0376 126.962 42.5 130 42.5V41.5ZM125.5 37C125.5 34.5147 127.515 32.5 130 32.5V31.5C126.962 31.5 124.5 33.9624 124.5 37H125.5ZM130 32.5C132.485 32.5 134.5 34.5147 134.5 37H135.5C135.5 33.9624 133.038 31.5 130 31.5V32.5ZM149.5 37C149.5 39.4853 147.485 41.5 145 41.5V42.5C148.038 42.5 150.5 40.0376 150.5 37H149.5ZM145 41.5C142.515 41.5 140.5 39.4853 140.5 37H139.5C139.5 40.0376 141.962 42.5 145 42.5V41.5ZM140.5 37C140.5 34.5147 142.515 32.5 145 32.5V31.5C141.962 31.5 139.5 33.9624 139.5 37H140.5ZM145 32.5C147.485 32.5 149.5 34.5147 149.5 37H150.5C150.5 33.9624 148.038 31.5 145 31.5V32.5ZM165.5 37C165.5 39.4853 163.485 41.5 161 41.5V42.5C164.038 42.5 166.5 40.0376 166.5 37H165.5ZM161 41.5C158.515 41.5 156.5 39.4853 156.5 37H155.5C155.5 40.0376 157.962 42.5 161 42.5V41.5ZM156.5 37C156.5 34.5147 158.515 32.5 161 32.5V31.5C157.962 31.5 155.5 33.9624 155.5 37H156.5ZM161 32.5C163.485 32.5 165.5 34.5147 165.5 37H166.5C166.5 33.9624 164.038 31.5 161 31.5V32.5ZM180.5 37C180.5 39.4853 178.485 41.5 176 41.5V42.5C179.038 42.5 181.5 40.0376 181.5 37H180.5ZM176 41.5C173.515 41.5 171.5 39.4853 171.5 37H170.5C170.5 40.0376 172.962 42.5 176 42.5V41.5ZM171.5 37C171.5 34.5147 173.515 32.5 176 32.5V31.5C172.962 31.5 170.5 33.9624 170.5 37H171.5ZM176 32.5C178.485 32.5 180.5 34.5147 180.5 37H181.5C181.5 33.9624 179.038 31.5 176 31.5V32.5ZM195.5 37C195.5 39.4853 193.485 41.5 191 41.5V42.5C194.038 42.5 196.5 40.0376 196.5 37H195.5ZM191 41.5C188.515 41.5 186.5 39.4853 186.5 37H185.5C185.5 40.0376 187.962 42.5 191 42.5V41.5ZM186.5 37C186.5 34.5147 188.515 32.5 191 32.5V31.5C187.962 31.5 185.5 33.9624 185.5 37H186.5ZM191 32.5C193.485 32.5 195.5 34.5147 195.5 37H196.5C196.5 33.9624 194.038 31.5 191 31.5V32.5ZM210.5 37C210.5 39.4853 208.485 41.5 206 41.5V42.5C209.038 42.5 211.5 40.0376 211.5 37H210.5ZM206 41.5C203.515 41.5 201.5 39.4853 201.5 37H200.5C200.5 40.0376 202.962 42.5 206 42.5V41.5ZM201.5 37C201.5 34.5147 203.515 32.5 206 32.5V31.5C202.962 31.5 200.5 33.9624 200.5 37H201.5ZM206 32.5C208.485 32.5 210.5 34.5147 210.5 37H211.5C211.5 33.9624 209.038 31.5 206 31.5V32.5ZM225.5 37C225.5 39.4853 223.485 41.5 221 41.5V42.5C224.038 42.5 226.5 40.0376 226.5 37H225.5ZM221 41.5C218.515 41.5 216.5 39.4853 216.5 37H215.5C215.5 40.0376 217.962 42.5 221 42.5V41.5ZM216.5 37C216.5 34.5147 218.515 32.5 221 32.5V31.5C217.962 31.5 215.5 33.9624 215.5 37H216.5ZM221 32.5C223.485 32.5 225.5 34.5147 225.5 37H226.5C226.5 33.9624 224.038 31.5 221 31.5V32.5ZM240.5 37C240.5 39.4853 238.485 41.5 236 41.5V42.5C239.038 42.5 241.5 40.0376 241.5 37H240.5ZM236 41.5C233.515 41.5 231.5 39.4853 231.5 37H230.5C230.5 40.0376 232.962 42.5 236 42.5V41.5ZM231.5 37C231.5 34.5147 233.515 32.5 236 32.5V31.5C232.962 31.5 230.5 33.9624 230.5 37H231.5ZM236 32.5C238.485 32.5 240.5 34.5147 240.5 37H241.5C241.5 33.9624 239.038 31.5 236 31.5V32.5ZM254.5 37C254.5 39.4853 252.485 41.5 250 41.5V42.5C253.038 42.5 255.5 40.0376 255.5 37H254.5ZM250 41.5C247.515 41.5 245.5 39.4853 245.5 37H244.5C244.5 40.0376 246.962 42.5 250 42.5V41.5ZM245.5 37C245.5 34.5147 247.515 32.5 250 32.5V31.5C246.962 31.5 244.5 33.9624 244.5 37H245.5ZM250 32.5C252.485 32.5 254.5 34.5147 254.5 37H255.5C255.5 33.9624 253.038 31.5 250 31.5V32.5ZM269.5 37C269.5 39.4853 267.485 41.5 265 41.5V42.5C268.038 42.5 270.5 40.0376 270.5 37H269.5ZM265 41.5C262.515 41.5 260.5 39.4853 260.5 37H259.5C259.5 40.0376 261.962 42.5 265 42.5V41.5ZM260.5 37C260.5 34.5147 262.515 32.5 265 32.5V31.5C261.962 31.5 259.5 33.9624 259.5 37H260.5ZM265 32.5C267.485 32.5 269.5 34.5147 269.5 37H270.5C270.5 33.9624 268.038 31.5 265 31.5V32.5ZM285.5 37C285.5 39.4853 283.485 41.5 281 41.5V42.5C284.038 42.5 286.5 40.0376 286.5 37H285.5ZM281 41.5C278.515 41.5 276.5 39.4853 276.5 37H275.5C275.5 40.0376 277.962 42.5 281 42.5V41.5ZM276.5 37C276.5 34.5147 278.515 32.5 281 32.5V31.5C277.962 31.5 275.5 33.9624 275.5 37H276.5ZM281 32.5C283.485 32.5 285.5 34.5147 285.5 37H286.5C286.5 33.9624 284.038 31.5 281 31.5V32.5ZM300.5 37C300.5 39.4853 298.485 41.5 296 41.5V42.5C299.038 42.5 301.5 40.0376 301.5 37H300.5ZM296 41.5C293.515 41.5 291.5 39.4853 291.5 37H290.5C290.5 40.0376 292.962 42.5 296 42.5V41.5ZM291.5 37C291.5 34.5147 293.515 32.5 296 32.5V31.5C292.962 31.5 290.5 33.9624 290.5 37H291.5ZM296 32.5C298.485 32.5 300.5 34.5147 300.5 37H301.5C301.5 33.9624 299.038 31.5 296 31.5V32.5ZM315.5 37C315.5 39.4853 313.485 41.5 311 41.5V42.5C314.038 42.5 316.5 40.0376 316.5 37H315.5ZM311 41.5C308.515 41.5 306.5 39.4853 306.5 37H305.5C305.5 40.0376 307.962 42.5 311 42.5V41.5ZM306.5 37C306.5 34.5147 308.515 32.5 311 32.5V31.5C307.962 31.5 305.5 33.9624 305.5 37H306.5ZM311 32.5C313.485 32.5 315.5 34.5147 315.5 37H316.5C316.5 33.9624 314.038 31.5 311 31.5V32.5ZM330.5 37C330.5 39.4853 328.485 41.5 326 41.5V42.5C329.038 42.5 331.5 40.0376 331.5 37H330.5ZM326 41.5C323.515 41.5 321.5 39.4853 321.5 37H320.5C320.5 40.0376 322.962 42.5 326 42.5V41.5ZM321.5 37C321.5 34.5147 323.515 32.5 326 32.5V31.5C322.962 31.5 320.5 33.9624 320.5 37H321.5ZM326 32.5C328.485 32.5 330.5 34.5147 330.5 37H331.5C331.5 33.9624 329.038 31.5 326 31.5V32.5ZM345.5 37C345.5 39.4853 343.485 41.5 341 41.5V42.5C344.038 42.5 346.5 40.0376 346.5 37H345.5ZM341 41.5C338.515 41.5 336.5 39.4853 336.5 37H335.5C335.5 40.0376 337.962 42.5 341 42.5V41.5ZM336.5 37C336.5 34.5147 338.515 32.5 341 32.5V31.5C337.962 31.5 335.5 33.9624 335.5 37H336.5ZM341 32.5C343.485 32.5 345.5 34.5147 345.5 37H346.5C346.5 33.9624 344.038 31.5 341 31.5V32.5ZM360.5 37C360.5 39.4853 358.485 41.5 356 41.5V42.5C359.038 42.5 361.5 40.0376 361.5 37H360.5ZM356 41.5C353.515 41.5 351.5 39.4853 351.5 37H350.5C350.5 40.0376 352.962 42.5 356 42.5V41.5ZM351.5 37C351.5 34.5147 353.515 32.5 356 32.5V31.5C352.962 31.5 350.5 33.9624 350.5 37H351.5ZM356 32.5C358.485 32.5 360.5 34.5147 360.5 37H361.5C361.5 33.9624 359.038 31.5 356 31.5V32.5ZM374.5 37C374.5 39.4853 372.485 41.5 370 41.5V42.5C373.038 42.5 375.5 40.0376 375.5 37H374.5ZM370 41.5C367.515 41.5 365.5 39.4853 365.5 37H364.5C364.5 40.0376 366.962 42.5 370 42.5V41.5ZM365.5 37C365.5 34.5147 367.515 32.5 370 32.5V31.5C366.962 31.5 364.5 33.9624 364.5 37H365.5ZM370 32.5C372.485 32.5 374.5 34.5147 374.5 37H375.5C375.5 33.9624 373.038 31.5 370 31.5V32.5ZM389.5 37C389.5 39.4853 387.485 41.5 385 41.5V42.5C388.038 42.5 390.5 40.0376 390.5 37H389.5ZM385 41.5C382.515 41.5 380.5 39.4853 380.5 37H379.5C379.5 40.0376 381.962 42.5 385 42.5V41.5ZM380.5 37C380.5 34.5147 382.515 32.5 385 32.5V31.5C381.962 31.5 379.5 33.9624 379.5 37H380.5ZM385 32.5C387.485 32.5 389.5 34.5147 389.5 37H390.5C390.5 33.9624 388.038 31.5 385 31.5V32.5ZM405.5 37C405.5 39.4853 403.485 41.5 401 41.5V42.5C404.038 42.5 406.5 40.0376 406.5 37H405.5ZM401 41.5C398.515 41.5 396.5 39.4853 396.5 37H395.5C395.5 40.0376 397.962 42.5 401 42.5V41.5ZM396.5 37C396.5 34.5147 398.515 32.5 401 32.5V31.5C397.962 31.5 395.5 33.9624 395.5 37H396.5ZM401 32.5C403.485 32.5 405.5 34.5147 405.5 37H406.5C406.5 33.9624 404.038 31.5 401 31.5V32.5ZM420.5 37C420.5 39.4853 418.485 41.5 416 41.5V42.5C419.038 42.5 421.5 40.0376 421.5 37H420.5ZM416 41.5C413.515 41.5 411.5 39.4853 411.5 37H410.5C410.5 40.0376 412.962 42.5 416 42.5V41.5ZM411.5 37C411.5 34.5147 413.515 32.5 416 32.5V31.5C412.962 31.5 410.5 33.9624 410.5 37H411.5ZM416 32.5C418.485 32.5 420.5 34.5147 420.5 37H421.5C421.5 33.9624 419.038 31.5 416 31.5V32.5ZM435.5 37C435.5 39.4853 433.485 41.5 431 41.5V42.5C434.038 42.5 436.5 40.0376 436.5 37H435.5ZM431 41.5C428.515 41.5 426.5 39.4853 426.5 37H425.5C425.5 40.0376 427.962 42.5 431 42.5V41.5ZM426.5 37C426.5 34.5147 428.515 32.5 431 32.5V31.5C427.962 31.5 425.5 33.9624 425.5 37H426.5ZM431 32.5C433.485 32.5 435.5 34.5147 435.5 37H436.5C436.5 33.9624 434.038 31.5 431 31.5V32.5ZM450.5 37C450.5 39.4853 448.485 41.5 446 41.5V42.5C449.038 42.5 451.5 40.0376 451.5 37H450.5ZM446 41.5C443.515 41.5 441.5 39.4853 441.5 37H440.5C440.5 40.0376 442.962 42.5 446 42.5V41.5ZM441.5 37C441.5 34.5147 443.515 32.5 446 32.5V31.5C442.962 31.5 440.5 33.9624 440.5 37H441.5ZM446 32.5C448.485 32.5 450.5 34.5147 450.5 37H451.5C451.5 33.9624 449.038 31.5 446 31.5V32.5ZM465.5 37C465.5 39.4853 463.485 41.5 461 41.5V42.5C464.038 42.5 466.5 40.0376 466.5 37H465.5ZM461 41.5C458.515 41.5 456.5 39.4853 456.5 37H455.5C455.5 40.0376 457.962 42.5 461 42.5V41.5ZM456.5 37C456.5 34.5147 458.515 32.5 461 32.5V31.5C457.962 31.5 455.5 33.9624 455.5 37H456.5ZM461 32.5C463.485 32.5 465.5 34.5147 465.5 37H466.5C466.5 33.9624 464.038 31.5 461 31.5V32.5ZM480.5 37C480.5 39.4853 478.485 41.5 476 41.5V42.5C479.038 42.5 481.5 40.0376 481.5 37H480.5ZM476 41.5C473.515 41.5 471.5 39.4853 471.5 37H470.5C470.5 40.0376 472.962 42.5 476 42.5V41.5ZM471.5 37C471.5 34.5147 473.515 32.5 476 32.5V31.5C472.962 31.5 470.5 33.9624 470.5 37H471.5ZM476 32.5C478.485 32.5 480.5 34.5147 480.5 37H481.5C481.5 33.9624 479.038 31.5 476 31.5V32.5ZM494.5 37C494.5 39.4853 492.485 41.5 490 41.5V42.5C493.038 42.5 495.5 40.0376 495.5 37H494.5ZM490 41.5C487.515 41.5 485.5 39.4853 485.5 37H484.5C484.5 40.0376 486.962 42.5 490 42.5V41.5ZM485.5 37C485.5 34.5147 487.515 32.5 490 32.5V31.5C486.962 31.5 484.5 33.9624 484.5 37H485.5ZM490 32.5C492.485 32.5 494.5 34.5147 494.5 37H495.5C495.5 33.9624 493.038 31.5 490 31.5V32.5ZM509.5 37C509.5 39.4853 507.485 41.5 505 41.5V42.5C508.038 42.5 510.5 40.0376 510.5 37H509.5ZM505 41.5C502.515 41.5 500.5 39.4853 500.5 37H499.5C499.5 40.0376 501.962 42.5 505 42.5V41.5ZM500.5 37C500.5 34.5147 502.515 32.5 505 32.5V31.5C501.962 31.5 499.5 33.9624 499.5 37H500.5ZM505 32.5C507.485 32.5 509.5 34.5147 509.5 37H510.5C510.5 33.9624 508.038 31.5 505 31.5V32.5ZM525.5 37C525.5 39.4853 523.485 41.5 521 41.5V42.5C524.038 42.5 526.5 40.0376 526.5 37H525.5ZM521 41.5C518.515 41.5 516.5 39.4853 516.5 37H515.5C515.5 40.0376 517.962 42.5 521 42.5V41.5ZM516.5 37C516.5 34.5147 518.515 32.5 521 32.5V31.5C517.962 31.5 515.5 33.9624 515.5 37H516.5ZM521 32.5C523.485 32.5 525.5 34.5147 525.5 37H526.5C526.5 33.9624 524.038 31.5 521 31.5V32.5ZM540.5 37C540.5 39.4853 538.485 41.5 536 41.5V42.5C539.038 42.5 541.5 40.0376 541.5 37H540.5ZM536 41.5C533.515 41.5 531.5 39.4853 531.5 37H530.5C530.5 40.0376 532.962 42.5 536 42.5V41.5ZM531.5 37C531.5 34.5147 533.515 32.5 536 32.5V31.5C532.962 31.5 530.5 33.9624 530.5 37H531.5ZM536 32.5C538.485 32.5 540.5 34.5147 540.5 37H541.5C541.5 33.9624 539.038 31.5 536 31.5V32.5ZM555.5 37C555.5 39.4853 553.485 41.5 551 41.5V42.5C554.038 42.5 556.5 40.0376 556.5 37H555.5ZM551 41.5C548.515 41.5 546.5 39.4853 546.5 37H545.5C545.5 40.0376 547.962 42.5 551 42.5V41.5ZM546.5 37C546.5 34.5147 548.515 32.5 551 32.5V31.5C547.962 31.5 545.5 33.9624 545.5 37H546.5ZM551 32.5C553.485 32.5 555.5 34.5147 555.5 37H556.5C556.5 33.9624 554.038 31.5 551 31.5V32.5ZM570.5 37C570.5 39.4853 568.485 41.5 566 41.5V42.5C569.038 42.5 571.5 40.0376 571.5 37H570.5ZM566 41.5C563.515 41.5 561.5 39.4853 561.5 37H560.5C560.5 40.0376 562.962 42.5 566 42.5V41.5ZM561.5 37C561.5 34.5147 563.515 32.5 566 32.5V31.5C562.962 31.5 560.5 33.9624 560.5 37H561.5ZM566 32.5C568.485 32.5 570.5 34.5147 570.5 37H571.5C571.5 33.9624 569.038 31.5 566 31.5V32.5ZM585.5 37C585.5 39.4853 583.485 41.5 581 41.5V42.5C584.038 42.5 586.5 40.0376 586.5 37H585.5ZM581 41.5C578.515 41.5 576.5 39.4853 576.5 37H575.5C575.5 40.0376 577.962 42.5 581 42.5V41.5ZM576.5 37C576.5 34.5147 578.515 32.5 581 32.5V31.5C577.962 31.5 575.5 33.9624 575.5 37H576.5ZM581 32.5C583.485 32.5 585.5 34.5147 585.5 37H586.5C586.5 33.9624 584.038 31.5 581 31.5V32.5ZM600.5 37C600.5 39.4853 598.485 41.5 596 41.5V42.5C599.038 42.5 601.5 40.0376 601.5 37H600.5ZM596 41.5C593.515 41.5 591.5 39.4853 591.5 37H590.5C590.5 40.0376 592.962 42.5 596 42.5V41.5ZM591.5 37C591.5 34.5147 593.515 32.5 596 32.5V31.5C592.962 31.5 590.5 33.9624 590.5 37H591.5ZM596 32.5C598.485 32.5 600.5 34.5147 600.5 37H601.5C601.5 33.9624 599.038 31.5 596 31.5V32.5ZM614.5 37C614.5 39.4853 612.485 41.5 610 41.5V42.5C613.038 42.5 615.5 40.0376 615.5 37H614.5ZM610 41.5C607.515 41.5 605.5 39.4853 605.5 37H604.5C604.5 40.0376 606.962 42.5 610 42.5V41.5ZM605.5 37C605.5 34.5147 607.515 32.5 610 32.5V31.5C606.962 31.5 604.5 33.9624 604.5 37H605.5ZM610 32.5C612.485 32.5 614.5 34.5147 614.5 37H615.5C615.5 33.9624 613.038 31.5 610 31.5V32.5ZM629.5 37C629.5 39.4853 627.485 41.5 625 41.5V42.5C628.038 42.5 630.5 40.0376 630.5 37H629.5ZM625 41.5C622.515 41.5 620.5 39.4853 620.5 37H619.5C619.5 40.0376 621.962 42.5 625 42.5V41.5ZM620.5 37C620.5 34.5147 622.515 32.5 625 32.5V31.5C621.962 31.5 619.5 33.9624 619.5 37H620.5ZM625 32.5C627.485 32.5 629.5 34.5147 629.5 37H630.5C630.5 33.9624 628.038 31.5 625 31.5V32.5ZM645.5 37C645.5 39.4853 643.485 41.5 641 41.5V42.5C644.038 42.5 646.5 40.0376 646.5 37H645.5ZM641 41.5C638.515 41.5 636.5 39.4853 636.5 37H635.5C635.5 40.0376 637.962 42.5 641 42.5V41.5ZM636.5 37C636.5 34.5147 638.515 32.5 641 32.5V31.5C637.962 31.5 635.5 33.9624 635.5 37H636.5ZM641 32.5C643.485 32.5 645.5 34.5147 645.5 37H646.5C646.5 33.9624 644.038 31.5 641 31.5V32.5ZM660.5 37C660.5 39.4853 658.485 41.5 656 41.5V42.5C659.038 42.5 661.5 40.0376 661.5 37H660.5ZM656 41.5C653.515 41.5 651.5 39.4853 651.5 37H650.5C650.5 40.0376 652.962 42.5 656 42.5V41.5ZM651.5 37C651.5 34.5147 653.515 32.5 656 32.5V31.5C652.962 31.5 650.5 33.9624 650.5 37H651.5ZM656 32.5C658.485 32.5 660.5 34.5147 660.5 37H661.5C661.5 33.9624 659.038 31.5 656 31.5V32.5ZM675.5 37C675.5 39.4853 673.485 41.5 671 41.5V42.5C674.038 42.5 676.5 40.0376 676.5 37H675.5ZM671 41.5C668.515 41.5 666.5 39.4853 666.5 37H665.5C665.5 40.0376 667.962 42.5 671 42.5V41.5ZM666.5 37C666.5 34.5147 668.515 32.5 671 32.5V31.5C667.962 31.5 665.5 33.9624 665.5 37H666.5ZM671 32.5C673.485 32.5 675.5 34.5147 675.5 37H676.5C676.5 33.9624 674.038 31.5 671 31.5V32.5ZM690.5 37C690.5 39.4853 688.485 41.5 686 41.5V42.5C689.038 42.5 691.5 40.0376 691.5 37H690.5ZM686 41.5C683.515 41.5 681.5 39.4853 681.5 37H680.5C680.5 40.0376 682.962 42.5 686 42.5V41.5ZM681.5 37C681.5 34.5147 683.515 32.5 686 32.5V31.5C682.962 31.5 680.5 33.9624 680.5 37H681.5ZM686 32.5C688.485 32.5 690.5 34.5147 690.5 37H691.5C691.5 33.9624 689.038 31.5 686 31.5V32.5ZM705.5 37C705.5 39.4853 703.485 41.5 701 41.5V42.5C704.038 42.5 706.5 40.0376 706.5 37H705.5ZM701 41.5C698.515 41.5 696.5 39.4853 696.5 37H695.5C695.5 40.0376 697.962 42.5 701 42.5V41.5ZM696.5 37C696.5 34.5147 698.515 32.5 701 32.5V31.5C697.962 31.5 695.5 33.9624 695.5 37H696.5ZM701 32.5C703.485 32.5 705.5 34.5147 705.5 37H706.5C706.5 33.9624 704.038 31.5 701 31.5V32.5ZM720.5 37C720.5 39.4853 718.485 41.5 716 41.5V42.5C719.038 42.5 721.5 40.0376 721.5 37H720.5ZM716 41.5C713.515 41.5 711.5 39.4853 711.5 37H710.5C710.5 40.0376 712.962 42.5 716 42.5V41.5ZM711.5 37C711.5 34.5147 713.515 32.5 716 32.5V31.5C712.962 31.5 710.5 33.9624 710.5 37H711.5ZM716 32.5C718.485 32.5 720.5 34.5147 720.5 37H721.5C721.5 33.9624 719.038 31.5 716 31.5V32.5ZM734.5 37C734.5 39.4853 732.485 41.5 730 41.5V42.5C733.038 42.5 735.5 40.0376 735.5 37H734.5ZM730 41.5C727.515 41.5 725.5 39.4853 725.5 37H724.5C724.5 40.0376 726.962 42.5 730 42.5V41.5ZM725.5 37C725.5 34.5147 727.515 32.5 730 32.5V31.5C726.962 31.5 724.5 33.9624 724.5 37H725.5ZM730 32.5C732.485 32.5 734.5 34.5147 734.5 37H735.5C735.5 33.9624 733.038 31.5 730 31.5V32.5ZM749.5 37C749.5 39.4853 747.485 41.5 745 41.5V42.5C748.038 42.5 750.5 40.0376 750.5 37H749.5ZM745 41.5C742.515 41.5 740.5 39.4853 740.5 37H739.5C739.5 40.0376 741.962 42.5 745 42.5V41.5ZM740.5 37C740.5 34.5147 742.515 32.5 745 32.5V31.5C741.962 31.5 739.5 33.9624 739.5 37H740.5ZM745 32.5C747.485 32.5 749.5 34.5147 749.5 37H750.5C750.5 33.9624 748.038 31.5 745 31.5V32.5ZM765.5 37C765.5 39.4853 763.485 41.5 761 41.5V42.5C764.038 42.5 766.5 40.0376 766.5 37H765.5ZM761 41.5C758.515 41.5 756.5 39.4853 756.5 37H755.5C755.5 40.0376 757.962 42.5 761 42.5V41.5ZM756.5 37C756.5 34.5147 758.515 32.5 761 32.5V31.5C757.962 31.5 755.5 33.9624 755.5 37H756.5ZM761 32.5C763.485 32.5 765.5 34.5147 765.5 37H766.5C766.5 33.9624 764.038 31.5 761 31.5V32.5ZM780.5 37C780.5 39.4853 778.485 41.5 776 41.5V42.5C779.038 42.5 781.5 40.0376 781.5 37H780.5ZM776 41.5C773.515 41.5 771.5 39.4853 771.5 37H770.5C770.5 40.0376 772.962 42.5 776 42.5V41.5ZM771.5 37C771.5 34.5147 773.515 32.5 776 32.5V31.5C772.962 31.5 770.5 33.9624 770.5 37H771.5ZM776 32.5C778.485 32.5 780.5 34.5147 780.5 37H781.5C781.5 33.9624 779.038 31.5 776 31.5V32.5ZM795.5 37C795.5 39.4853 793.485 41.5 791 41.5V42.5C794.038 42.5 796.5 40.0376 796.5 37H795.5ZM791 41.5C788.515 41.5 786.5 39.4853 786.5 37H785.5C785.5 40.0376 787.962 42.5 791 42.5V41.5ZM786.5 37C786.5 34.5147 788.515 32.5 791 32.5V31.5C787.962 31.5 785.5 33.9624 785.5 37H786.5ZM791 32.5C793.485 32.5 795.5 34.5147 795.5 37H796.5C796.5 33.9624 794.038 31.5 791 31.5V32.5ZM810.5 37C810.5 39.4853 808.485 41.5 806 41.5V42.5C809.038 42.5 811.5 40.0376 811.5 37H810.5ZM806 41.5C803.515 41.5 801.5 39.4853 801.5 37H800.5C800.5 40.0376 802.962 42.5 806 42.5V41.5ZM801.5 37C801.5 34.5147 803.515 32.5 806 32.5V31.5C802.962 31.5 800.5 33.9624 800.5 37H801.5ZM806 32.5C808.485 32.5 810.5 34.5147 810.5 37H811.5C811.5 33.9624 809.038 31.5 806 31.5V32.5ZM13.5 208C13.5 210.485 11.4853 212.5 9 212.5V213.5C12.0376 213.5 14.5 211.038 14.5 208H13.5ZM9 212.5C6.51472 212.5 4.5 210.485 4.5 208H3.5C3.5 211.038 5.96243 213.5 9 213.5V212.5ZM4.5 208C4.5 205.515 6.51472 203.5 9 203.5V202.5C5.96243 202.5 3.5 204.962 3.5 208H4.5ZM9 203.5C11.4853 203.5 13.5 205.515 13.5 208H14.5C14.5 204.962 12.0376 202.5 9 202.5V203.5ZM28.5 208C28.5 210.485 26.4853 212.5 24 212.5V213.5C27.0376 213.5 29.5 211.038 29.5 208H28.5ZM24 212.5C21.5147 212.5 19.5 210.485 19.5 208H18.5C18.5 211.038 20.9624 213.5 24 213.5V212.5ZM19.5 208C19.5 205.515 21.5147 203.5 24 203.5V202.5C20.9624 202.5 18.5 204.962 18.5 208H19.5ZM24 203.5C26.4853 203.5 28.5 205.515 28.5 208H29.5C29.5 204.962 27.0376 202.5 24 202.5V203.5ZM44.5 208C44.5 210.485 42.4853 212.5 40 212.5V213.5C43.0376 213.5 45.5 211.038 45.5 208H44.5ZM40 212.5C37.5147 212.5 35.5 210.485 35.5 208H34.5C34.5 211.038 36.9624 213.5 40 213.5V212.5ZM35.5 208C35.5 205.515 37.5147 203.5 40 203.5V202.5C36.9624 202.5 34.5 204.962 34.5 208H35.5ZM40 203.5C42.4853 203.5 44.5 205.515 44.5 208H45.5C45.5 204.962 43.0376 202.5 40 202.5V203.5ZM59.5 208C59.5 210.485 57.4853 212.5 55 212.5V213.5C58.0376 213.5 60.5 211.038 60.5 208H59.5ZM55 212.5C52.5147 212.5 50.5 210.485 50.5 208H49.5C49.5 211.038 51.9624 213.5 55 213.5V212.5ZM50.5 208C50.5 205.515 52.5147 203.5 55 203.5V202.5C51.9624 202.5 49.5 204.962 49.5 208H50.5ZM55 203.5C57.4853 203.5 59.5 205.515 59.5 208H60.5C60.5 204.962 58.0376 202.5 55 202.5V203.5ZM74.5 208C74.5 210.485 72.4853 212.5 70 212.5V213.5C73.0376 213.5 75.5 211.038 75.5 208H74.5ZM70 212.5C67.5147 212.5 65.5 210.485 65.5 208H64.5C64.5 211.038 66.9624 213.5 70 213.5V212.5ZM65.5 208C65.5 205.515 67.5147 203.5 70 203.5V202.5C66.9624 202.5 64.5 204.962 64.5 208H65.5ZM70 203.5C72.4853 203.5 74.5 205.515 74.5 208H75.5C75.5 204.962 73.0376 202.5 70 202.5V203.5ZM89.5 208C89.5 210.485 87.4853 212.5 85 212.5V213.5C88.0376 213.5 90.5 211.038 90.5 208H89.5ZM85 212.5C82.5147 212.5 80.5 210.485 80.5 208H79.5C79.5 211.038 81.9624 213.5 85 213.5V212.5ZM80.5 208C80.5 205.515 82.5147 203.5 85 203.5V202.5C81.9624 202.5 79.5 204.962 79.5 208H80.5ZM85 203.5C87.4853 203.5 89.5 205.515 89.5 208H90.5C90.5 204.962 88.0376 202.5 85 202.5V203.5ZM104.5 208C104.5 210.485 102.485 212.5 100 212.5V213.5C103.038 213.5 105.5 211.038 105.5 208H104.5ZM100 212.5C97.5147 212.5 95.5 210.485 95.5 208H94.5C94.5 211.038 96.9624 213.5 100 213.5V212.5ZM95.5 208C95.5 205.515 97.5147 203.5 100 203.5V202.5C96.9624 202.5 94.5 204.962 94.5 208H95.5ZM100 203.5C102.485 203.5 104.5 205.515 104.5 208H105.5C105.5 204.962 103.038 202.5 100 202.5V203.5ZM119.5 208C119.5 210.485 117.485 212.5 115 212.5V213.5C118.038 213.5 120.5 211.038 120.5 208H119.5ZM115 212.5C112.515 212.5 110.5 210.485 110.5 208H109.5C109.5 211.038 111.962 213.5 115 213.5V212.5ZM110.5 208C110.5 205.515 112.515 203.5 115 203.5V202.5C111.962 202.5 109.5 204.962 109.5 208H110.5ZM115 203.5C117.485 203.5 119.5 205.515 119.5 208H120.5C120.5 204.962 118.038 202.5 115 202.5V203.5ZM134.5 208C134.5 210.485 132.485 212.5 130 212.5V213.5C133.038 213.5 135.5 211.038 135.5 208H134.5ZM130 212.5C127.515 212.5 125.5 210.485 125.5 208H124.5C124.5 211.038 126.962 213.5 130 213.5V212.5ZM125.5 208C125.5 205.515 127.515 203.5 130 203.5V202.5C126.962 202.5 124.5 204.962 124.5 208H125.5ZM130 203.5C132.485 203.5 134.5 205.515 134.5 208H135.5C135.5 204.962 133.038 202.5 130 202.5V203.5ZM149.5 208C149.5 210.485 147.485 212.5 145 212.5V213.5C148.038 213.5 150.5 211.038 150.5 208H149.5ZM145 212.5C142.515 212.5 140.5 210.485 140.5 208H139.5C139.5 211.038 141.962 213.5 145 213.5V212.5ZM140.5 208C140.5 205.515 142.515 203.5 145 203.5V202.5C141.962 202.5 139.5 204.962 139.5 208H140.5ZM145 203.5C147.485 203.5 149.5 205.515 149.5 208H150.5C150.5 204.962 148.038 202.5 145 202.5V203.5ZM165.5 208C165.5 210.485 163.485 212.5 161 212.5V213.5C164.038 213.5 166.5 211.038 166.5 208H165.5ZM161 212.5C158.515 212.5 156.5 210.485 156.5 208H155.5C155.5 211.038 157.962 213.5 161 213.5V212.5ZM156.5 208C156.5 205.515 158.515 203.5 161 203.5V202.5C157.962 202.5 155.5 204.962 155.5 208H156.5ZM161 203.5C163.485 203.5 165.5 205.515 165.5 208H166.5C166.5 204.962 164.038 202.5 161 202.5V203.5ZM180.5 208C180.5 210.485 178.485 212.5 176 212.5V213.5C179.038 213.5 181.5 211.038 181.5 208H180.5ZM176 212.5C173.515 212.5 171.5 210.485 171.5 208H170.5C170.5 211.038 172.962 213.5 176 213.5V212.5ZM171.5 208C171.5 205.515 173.515 203.5 176 203.5V202.5C172.962 202.5 170.5 204.962 170.5 208H171.5ZM176 203.5C178.485 203.5 180.5 205.515 180.5 208H181.5C181.5 204.962 179.038 202.5 176 202.5V203.5ZM195.5 208C195.5 210.485 193.485 212.5 191 212.5V213.5C194.038 213.5 196.5 211.038 196.5 208H195.5ZM191 212.5C188.515 212.5 186.5 210.485 186.5 208H185.5C185.5 211.038 187.962 213.5 191 213.5V212.5ZM186.5 208C186.5 205.515 188.515 203.5 191 203.5V202.5C187.962 202.5 185.5 204.962 185.5 208H186.5ZM191 203.5C193.485 203.5 195.5 205.515 195.5 208H196.5C196.5 204.962 194.038 202.5 191 202.5V203.5ZM210.5 208C210.5 210.485 208.485 212.5 206 212.5V213.5C209.038 213.5 211.5 211.038 211.5 208H210.5ZM206 212.5C203.515 212.5 201.5 210.485 201.5 208H200.5C200.5 211.038 202.962 213.5 206 213.5V212.5ZM201.5 208C201.5 205.515 203.515 203.5 206 203.5V202.5C202.962 202.5 200.5 204.962 200.5 208H201.5ZM206 203.5C208.485 203.5 210.5 205.515 210.5 208H211.5C211.5 204.962 209.038 202.5 206 202.5V203.5ZM225.5 208C225.5 210.485 223.485 212.5 221 212.5V213.5C224.038 213.5 226.5 211.038 226.5 208H225.5ZM221 212.5C218.515 212.5 216.5 210.485 216.5 208H215.5C215.5 211.038 217.962 213.5 221 213.5V212.5ZM216.5 208C216.5 205.515 218.515 203.5 221 203.5V202.5C217.962 202.5 215.5 204.962 215.5 208H216.5ZM221 203.5C223.485 203.5 225.5 205.515 225.5 208H226.5C226.5 204.962 224.038 202.5 221 202.5V203.5ZM240.5 208C240.5 210.485 238.485 212.5 236 212.5V213.5C239.038 213.5 241.5 211.038 241.5 208H240.5ZM236 212.5C233.515 212.5 231.5 210.485 231.5 208H230.5C230.5 211.038 232.962 213.5 236 213.5V212.5ZM231.5 208C231.5 205.515 233.515 203.5 236 203.5V202.5C232.962 202.5 230.5 204.962 230.5 208H231.5ZM236 203.5C238.485 203.5 240.5 205.515 240.5 208H241.5C241.5 204.962 239.038 202.5 236 202.5V203.5ZM254.5 208C254.5 210.485 252.485 212.5 250 212.5V213.5C253.038 213.5 255.5 211.038 255.5 208H254.5ZM250 212.5C247.515 212.5 245.5 210.485 245.5 208H244.5C244.5 211.038 246.962 213.5 250 213.5V212.5ZM245.5 208C245.5 205.515 247.515 203.5 250 203.5V202.5C246.962 202.5 244.5 204.962 244.5 208H245.5ZM250 203.5C252.485 203.5 254.5 205.515 254.5 208H255.5C255.5 204.962 253.038 202.5 250 202.5V203.5ZM269.5 208C269.5 210.485 267.485 212.5 265 212.5V213.5C268.038 213.5 270.5 211.038 270.5 208H269.5ZM265 212.5C262.515 212.5 260.5 210.485 260.5 208H259.5C259.5 211.038 261.962 213.5 265 213.5V212.5ZM260.5 208C260.5 205.515 262.515 203.5 265 203.5V202.5C261.962 202.5 259.5 204.962 259.5 208H260.5ZM265 203.5C267.485 203.5 269.5 205.515 269.5 208H270.5C270.5 204.962 268.038 202.5 265 202.5V203.5ZM285.5 208C285.5 210.485 283.485 212.5 281 212.5V213.5C284.038 213.5 286.5 211.038 286.5 208H285.5ZM281 212.5C278.515 212.5 276.5 210.485 276.5 208H275.5C275.5 211.038 277.962 213.5 281 213.5V212.5ZM276.5 208C276.5 205.515 278.515 203.5 281 203.5V202.5C277.962 202.5 275.5 204.962 275.5 208H276.5ZM281 203.5C283.485 203.5 285.5 205.515 285.5 208H286.5C286.5 204.962 284.038 202.5 281 202.5V203.5ZM300.5 208C300.5 210.485 298.485 212.5 296 212.5V213.5C299.038 213.5 301.5 211.038 301.5 208H300.5ZM296 212.5C293.515 212.5 291.5 210.485 291.5 208H290.5C290.5 211.038 292.962 213.5 296 213.5V212.5ZM291.5 208C291.5 205.515 293.515 203.5 296 203.5V202.5C292.962 202.5 290.5 204.962 290.5 208H291.5ZM296 203.5C298.485 203.5 300.5 205.515 300.5 208H301.5C301.5 204.962 299.038 202.5 296 202.5V203.5ZM315.5 208C315.5 210.485 313.485 212.5 311 212.5V213.5C314.038 213.5 316.5 211.038 316.5 208H315.5ZM311 212.5C308.515 212.5 306.5 210.485 306.5 208H305.5C305.5 211.038 307.962 213.5 311 213.5V212.5ZM306.5 208C306.5 205.515 308.515 203.5 311 203.5V202.5C307.962 202.5 305.5 204.962 305.5 208H306.5ZM311 203.5C313.485 203.5 315.5 205.515 315.5 208H316.5C316.5 204.962 314.038 202.5 311 202.5V203.5ZM330.5 208C330.5 210.485 328.485 212.5 326 212.5V213.5C329.038 213.5 331.5 211.038 331.5 208H330.5ZM326 212.5C323.515 212.5 321.5 210.485 321.5 208H320.5C320.5 211.038 322.962 213.5 326 213.5V212.5ZM321.5 208C321.5 205.515 323.515 203.5 326 203.5V202.5C322.962 202.5 320.5 204.962 320.5 208H321.5ZM326 203.5C328.485 203.5 330.5 205.515 330.5 208H331.5C331.5 204.962 329.038 202.5 326 202.5V203.5ZM345.5 208C345.5 210.485 343.485 212.5 341 212.5V213.5C344.038 213.5 346.5 211.038 346.5 208H345.5ZM341 212.5C338.515 212.5 336.5 210.485 336.5 208H335.5C335.5 211.038 337.962 213.5 341 213.5V212.5ZM336.5 208C336.5 205.515 338.515 203.5 341 203.5V202.5C337.962 202.5 335.5 204.962 335.5 208H336.5ZM341 203.5C343.485 203.5 345.5 205.515 345.5 208H346.5C346.5 204.962 344.038 202.5 341 202.5V203.5ZM360.5 208C360.5 210.485 358.485 212.5 356 212.5V213.5C359.038 213.5 361.5 211.038 361.5 208H360.5ZM356 212.5C353.515 212.5 351.5 210.485 351.5 208H350.5C350.5 211.038 352.962 213.5 356 213.5V212.5ZM351.5 208C351.5 205.515 353.515 203.5 356 203.5V202.5C352.962 202.5 350.5 204.962 350.5 208H351.5ZM356 203.5C358.485 203.5 360.5 205.515 360.5 208H361.5C361.5 204.962 359.038 202.5 356 202.5V203.5ZM374.5 208C374.5 210.485 372.485 212.5 370 212.5V213.5C373.038 213.5 375.5 211.038 375.5 208H374.5ZM370 212.5C367.515 212.5 365.5 210.485 365.5 208H364.5C364.5 211.038 366.962 213.5 370 213.5V212.5ZM365.5 208C365.5 205.515 367.515 203.5 370 203.5V202.5C366.962 202.5 364.5 204.962 364.5 208H365.5ZM370 203.5C372.485 203.5 374.5 205.515 374.5 208H375.5C375.5 204.962 373.038 202.5 370 202.5V203.5ZM389.5 208C389.5 210.485 387.485 212.5 385 212.5V213.5C388.038 213.5 390.5 211.038 390.5 208H389.5ZM385 212.5C382.515 212.5 380.5 210.485 380.5 208H379.5C379.5 211.038 381.962 213.5 385 213.5V212.5ZM380.5 208C380.5 205.515 382.515 203.5 385 203.5V202.5C381.962 202.5 379.5 204.962 379.5 208H380.5ZM385 203.5C387.485 203.5 389.5 205.515 389.5 208H390.5C390.5 204.962 388.038 202.5 385 202.5V203.5ZM405.5 208C405.5 210.485 403.485 212.5 401 212.5V213.5C404.038 213.5 406.5 211.038 406.5 208H405.5ZM401 212.5C398.515 212.5 396.5 210.485 396.5 208H395.5C395.5 211.038 397.962 213.5 401 213.5V212.5ZM396.5 208C396.5 205.515 398.515 203.5 401 203.5V202.5C397.962 202.5 395.5 204.962 395.5 208H396.5ZM401 203.5C403.485 203.5 405.5 205.515 405.5 208H406.5C406.5 204.962 404.038 202.5 401 202.5V203.5ZM420.5 208C420.5 210.485 418.485 212.5 416 212.5V213.5C419.038 213.5 421.5 211.038 421.5 208H420.5ZM416 212.5C413.515 212.5 411.5 210.485 411.5 208H410.5C410.5 211.038 412.962 213.5 416 213.5V212.5ZM411.5 208C411.5 205.515 413.515 203.5 416 203.5V202.5C412.962 202.5 410.5 204.962 410.5 208H411.5ZM416 203.5C418.485 203.5 420.5 205.515 420.5 208H421.5C421.5 204.962 419.038 202.5 416 202.5V203.5ZM435.5 208C435.5 210.485 433.485 212.5 431 212.5V213.5C434.038 213.5 436.5 211.038 436.5 208H435.5ZM431 212.5C428.515 212.5 426.5 210.485 426.5 208H425.5C425.5 211.038 427.962 213.5 431 213.5V212.5ZM426.5 208C426.5 205.515 428.515 203.5 431 203.5V202.5C427.962 202.5 425.5 204.962 425.5 208H426.5ZM431 203.5C433.485 203.5 435.5 205.515 435.5 208H436.5C436.5 204.962 434.038 202.5 431 202.5V203.5ZM450.5 208C450.5 210.485 448.485 212.5 446 212.5V213.5C449.038 213.5 451.5 211.038 451.5 208H450.5ZM446 212.5C443.515 212.5 441.5 210.485 441.5 208H440.5C440.5 211.038 442.962 213.5 446 213.5V212.5ZM441.5 208C441.5 205.515 443.515 203.5 446 203.5V202.5C442.962 202.5 440.5 204.962 440.5 208H441.5ZM446 203.5C448.485 203.5 450.5 205.515 450.5 208H451.5C451.5 204.962 449.038 202.5 446 202.5V203.5ZM465.5 208C465.5 210.485 463.485 212.5 461 212.5V213.5C464.038 213.5 466.5 211.038 466.5 208H465.5ZM461 212.5C458.515 212.5 456.5 210.485 456.5 208H455.5C455.5 211.038 457.962 213.5 461 213.5V212.5ZM456.5 208C456.5 205.515 458.515 203.5 461 203.5V202.5C457.962 202.5 455.5 204.962 455.5 208H456.5ZM461 203.5C463.485 203.5 465.5 205.515 465.5 208H466.5C466.5 204.962 464.038 202.5 461 202.5V203.5ZM480.5 208C480.5 210.485 478.485 212.5 476 212.5V213.5C479.038 213.5 481.5 211.038 481.5 208H480.5ZM476 212.5C473.515 212.5 471.5 210.485 471.5 208H470.5C470.5 211.038 472.962 213.5 476 213.5V212.5ZM471.5 208C471.5 205.515 473.515 203.5 476 203.5V202.5C472.962 202.5 470.5 204.962 470.5 208H471.5ZM476 203.5C478.485 203.5 480.5 205.515 480.5 208H481.5C481.5 204.962 479.038 202.5 476 202.5V203.5ZM494.5 208C494.5 210.485 492.485 212.5 490 212.5V213.5C493.038 213.5 495.5 211.038 495.5 208H494.5ZM490 212.5C487.515 212.5 485.5 210.485 485.5 208H484.5C484.5 211.038 486.962 213.5 490 213.5V212.5ZM485.5 208C485.5 205.515 487.515 203.5 490 203.5V202.5C486.962 202.5 484.5 204.962 484.5 208H485.5ZM490 203.5C492.485 203.5 494.5 205.515 494.5 208H495.5C495.5 204.962 493.038 202.5 490 202.5V203.5ZM509.5 208C509.5 210.485 507.485 212.5 505 212.5V213.5C508.038 213.5 510.5 211.038 510.5 208H509.5ZM505 212.5C502.515 212.5 500.5 210.485 500.5 208H499.5C499.5 211.038 501.962 213.5 505 213.5V212.5ZM500.5 208C500.5 205.515 502.515 203.5 505 203.5V202.5C501.962 202.5 499.5 204.962 499.5 208H500.5ZM505 203.5C507.485 203.5 509.5 205.515 509.5 208H510.5C510.5 204.962 508.038 202.5 505 202.5V203.5ZM525.5 208C525.5 210.485 523.485 212.5 521 212.5V213.5C524.038 213.5 526.5 211.038 526.5 208H525.5ZM521 212.5C518.515 212.5 516.5 210.485 516.5 208H515.5C515.5 211.038 517.962 213.5 521 213.5V212.5ZM516.5 208C516.5 205.515 518.515 203.5 521 203.5V202.5C517.962 202.5 515.5 204.962 515.5 208H516.5ZM521 203.5C523.485 203.5 525.5 205.515 525.5 208H526.5C526.5 204.962 524.038 202.5 521 202.5V203.5ZM540.5 208C540.5 210.485 538.485 212.5 536 212.5V213.5C539.038 213.5 541.5 211.038 541.5 208H540.5ZM536 212.5C533.515 212.5 531.5 210.485 531.5 208H530.5C530.5 211.038 532.962 213.5 536 213.5V212.5ZM531.5 208C531.5 205.515 533.515 203.5 536 203.5V202.5C532.962 202.5 530.5 204.962 530.5 208H531.5ZM536 203.5C538.485 203.5 540.5 205.515 540.5 208H541.5C541.5 204.962 539.038 202.5 536 202.5V203.5ZM555.5 208C555.5 210.485 553.485 212.5 551 212.5V213.5C554.038 213.5 556.5 211.038 556.5 208H555.5ZM551 212.5C548.515 212.5 546.5 210.485 546.5 208H545.5C545.5 211.038 547.962 213.5 551 213.5V212.5ZM546.5 208C546.5 205.515 548.515 203.5 551 203.5V202.5C547.962 202.5 545.5 204.962 545.5 208H546.5ZM551 203.5C553.485 203.5 555.5 205.515 555.5 208H556.5C556.5 204.962 554.038 202.5 551 202.5V203.5ZM570.5 208C570.5 210.485 568.485 212.5 566 212.5V213.5C569.038 213.5 571.5 211.038 571.5 208H570.5ZM566 212.5C563.515 212.5 561.5 210.485 561.5 208H560.5C560.5 211.038 562.962 213.5 566 213.5V212.5ZM561.5 208C561.5 205.515 563.515 203.5 566 203.5V202.5C562.962 202.5 560.5 204.962 560.5 208H561.5ZM566 203.5C568.485 203.5 570.5 205.515 570.5 208H571.5C571.5 204.962 569.038 202.5 566 202.5V203.5ZM585.5 208C585.5 210.485 583.485 212.5 581 212.5V213.5C584.038 213.5 586.5 211.038 586.5 208H585.5ZM581 212.5C578.515 212.5 576.5 210.485 576.5 208H575.5C575.5 211.038 577.962 213.5 581 213.5V212.5ZM576.5 208C576.5 205.515 578.515 203.5 581 203.5V202.5C577.962 202.5 575.5 204.962 575.5 208H576.5ZM581 203.5C583.485 203.5 585.5 205.515 585.5 208H586.5C586.5 204.962 584.038 202.5 581 202.5V203.5ZM600.5 208C600.5 210.485 598.485 212.5 596 212.5V213.5C599.038 213.5 601.5 211.038 601.5 208H600.5ZM596 212.5C593.515 212.5 591.5 210.485 591.5 208H590.5C590.5 211.038 592.962 213.5 596 213.5V212.5ZM591.5 208C591.5 205.515 593.515 203.5 596 203.5V202.5C592.962 202.5 590.5 204.962 590.5 208H591.5ZM596 203.5C598.485 203.5 600.5 205.515 600.5 208H601.5C601.5 204.962 599.038 202.5 596 202.5V203.5ZM614.5 208C614.5 210.485 612.485 212.5 610 212.5V213.5C613.038 213.5 615.5 211.038 615.5 208H614.5ZM610 212.5C607.515 212.5 605.5 210.485 605.5 208H604.5C604.5 211.038 606.962 213.5 610 213.5V212.5ZM605.5 208C605.5 205.515 607.515 203.5 610 203.5V202.5C606.962 202.5 604.5 204.962 604.5 208H605.5ZM610 203.5C612.485 203.5 614.5 205.515 614.5 208H615.5C615.5 204.962 613.038 202.5 610 202.5V203.5ZM629.5 208C629.5 210.485 627.485 212.5 625 212.5V213.5C628.038 213.5 630.5 211.038 630.5 208H629.5ZM625 212.5C622.515 212.5 620.5 210.485 620.5 208H619.5C619.5 211.038 621.962 213.5 625 213.5V212.5ZM620.5 208C620.5 205.515 622.515 203.5 625 203.5V202.5C621.962 202.5 619.5 204.962 619.5 208H620.5ZM625 203.5C627.485 203.5 629.5 205.515 629.5 208H630.5C630.5 204.962 628.038 202.5 625 202.5V203.5ZM645.5 208C645.5 210.485 643.485 212.5 641 212.5V213.5C644.038 213.5 646.5 211.038 646.5 208H645.5ZM641 212.5C638.515 212.5 636.5 210.485 636.5 208H635.5C635.5 211.038 637.962 213.5 641 213.5V212.5ZM636.5 208C636.5 205.515 638.515 203.5 641 203.5V202.5C637.962 202.5 635.5 204.962 635.5 208H636.5ZM641 203.5C643.485 203.5 645.5 205.515 645.5 208H646.5C646.5 204.962 644.038 202.5 641 202.5V203.5ZM660.5 208C660.5 210.485 658.485 212.5 656 212.5V213.5C659.038 213.5 661.5 211.038 661.5 208H660.5ZM656 212.5C653.515 212.5 651.5 210.485 651.5 208H650.5C650.5 211.038 652.962 213.5 656 213.5V212.5ZM651.5 208C651.5 205.515 653.515 203.5 656 203.5V202.5C652.962 202.5 650.5 204.962 650.5 208H651.5ZM656 203.5C658.485 203.5 660.5 205.515 660.5 208H661.5C661.5 204.962 659.038 202.5 656 202.5V203.5ZM675.5 208C675.5 210.485 673.485 212.5 671 212.5V213.5C674.038 213.5 676.5 211.038 676.5 208H675.5ZM671 212.5C668.515 212.5 666.5 210.485 666.5 208H665.5C665.5 211.038 667.962 213.5 671 213.5V212.5ZM666.5 208C666.5 205.515 668.515 203.5 671 203.5V202.5C667.962 202.5 665.5 204.962 665.5 208H666.5ZM671 203.5C673.485 203.5 675.5 205.515 675.5 208H676.5C676.5 204.962 674.038 202.5 671 202.5V203.5ZM690.5 208C690.5 210.485 688.485 212.5 686 212.5V213.5C689.038 213.5 691.5 211.038 691.5 208H690.5ZM686 212.5C683.515 212.5 681.5 210.485 681.5 208H680.5C680.5 211.038 682.962 213.5 686 213.5V212.5ZM681.5 208C681.5 205.515 683.515 203.5 686 203.5V202.5C682.962 202.5 680.5 204.962 680.5 208H681.5ZM686 203.5C688.485 203.5 690.5 205.515 690.5 208H691.5C691.5 204.962 689.038 202.5 686 202.5V203.5ZM705.5 208C705.5 210.485 703.485 212.5 701 212.5V213.5C704.038 213.5 706.5 211.038 706.5 208H705.5ZM701 212.5C698.515 212.5 696.5 210.485 696.5 208H695.5C695.5 211.038 697.962 213.5 701 213.5V212.5ZM696.5 208C696.5 205.515 698.515 203.5 701 203.5V202.5C697.962 202.5 695.5 204.962 695.5 208H696.5ZM701 203.5C703.485 203.5 705.5 205.515 705.5 208H706.5C706.5 204.962 704.038 202.5 701 202.5V203.5ZM720.5 208C720.5 210.485 718.485 212.5 716 212.5V213.5C719.038 213.5 721.5 211.038 721.5 208H720.5ZM716 212.5C713.515 212.5 711.5 210.485 711.5 208H710.5C710.5 211.038 712.962 213.5 716 213.5V212.5ZM711.5 208C711.5 205.515 713.515 203.5 716 203.5V202.5C712.962 202.5 710.5 204.962 710.5 208H711.5ZM716 203.5C718.485 203.5 720.5 205.515 720.5 208H721.5C721.5 204.962 719.038 202.5 716 202.5V203.5ZM734.5 208C734.5 210.485 732.485 212.5 730 212.5V213.5C733.038 213.5 735.5 211.038 735.5 208H734.5ZM730 212.5C727.515 212.5 725.5 210.485 725.5 208H724.5C724.5 211.038 726.962 213.5 730 213.5V212.5ZM725.5 208C725.5 205.515 727.515 203.5 730 203.5V202.5C726.962 202.5 724.5 204.962 724.5 208H725.5ZM730 203.5C732.485 203.5 734.5 205.515 734.5 208H735.5C735.5 204.962 733.038 202.5 730 202.5V203.5ZM749.5 208C749.5 210.485 747.485 212.5 745 212.5V213.5C748.038 213.5 750.5 211.038 750.5 208H749.5ZM745 212.5C742.515 212.5 740.5 210.485 740.5 208H739.5C739.5 211.038 741.962 213.5 745 213.5V212.5ZM740.5 208C740.5 205.515 742.515 203.5 745 203.5V202.5C741.962 202.5 739.5 204.962 739.5 208H740.5ZM745 203.5C747.485 203.5 749.5 205.515 749.5 208H750.5C750.5 204.962 748.038 202.5 745 202.5V203.5ZM765.5 208C765.5 210.485 763.485 212.5 761 212.5V213.5C764.038 213.5 766.5 211.038 766.5 208H765.5ZM761 212.5C758.515 212.5 756.5 210.485 756.5 208H755.5C755.5 211.038 757.962 213.5 761 213.5V212.5ZM756.5 208C756.5 205.515 758.515 203.5 761 203.5V202.5C757.962 202.5 755.5 204.962 755.5 208H756.5ZM761 203.5C763.485 203.5 765.5 205.515 765.5 208H766.5C766.5 204.962 764.038 202.5 761 202.5V203.5ZM780.5 208C780.5 210.485 778.485 212.5 776 212.5V213.5C779.038 213.5 781.5 211.038 781.5 208H780.5ZM776 212.5C773.515 212.5 771.5 210.485 771.5 208H770.5C770.5 211.038 772.962 213.5 776 213.5V212.5ZM771.5 208C771.5 205.515 773.515 203.5 776 203.5V202.5C772.962 202.5 770.5 204.962 770.5 208H771.5ZM776 203.5C778.485 203.5 780.5 205.515 780.5 208H781.5C781.5 204.962 779.038 202.5 776 202.5V203.5ZM795.5 208C795.5 210.485 793.485 212.5 791 212.5V213.5C794.038 213.5 796.5 211.038 796.5 208H795.5ZM791 212.5C788.515 212.5 786.5 210.485 786.5 208H785.5C785.5 211.038 787.962 213.5 791 213.5V212.5ZM786.5 208C786.5 205.515 788.515 203.5 791 203.5V202.5C787.962 202.5 785.5 204.962 785.5 208H786.5ZM791 203.5C793.485 203.5 795.5 205.515 795.5 208H796.5C796.5 204.962 794.038 202.5 791 202.5V203.5ZM810.5 208C810.5 210.485 808.485 212.5 806 212.5V213.5C809.038 213.5 811.5 211.038 811.5 208H810.5ZM806 212.5C803.515 212.5 801.5 210.485 801.5 208H800.5C800.5 211.038 802.962 213.5 806 213.5V212.5ZM801.5 208C801.5 205.515 803.515 203.5 806 203.5V202.5C802.962 202.5 800.5 204.962 800.5 208H801.5ZM806 203.5C808.485 203.5 810.5 205.515 810.5 208H811.5C811.5 204.962 809.038 202.5 806 202.5V203.5ZM0.5 0V20H1.5V0H0.5ZM8.5 0V20H9.5V0H8.5ZM16.5 0V20H17.5V0H16.5ZM27 2.5H48V1.5H27V2.5ZM27 10.5H48V9.5H27V10.5ZM27 18.5H48V17.5H27V18.5ZM57.5 0V20H58.5V0H57.5ZM65.5 0V20H66.5V0H65.5ZM73.5 0V20H74.5V0H73.5ZM84 2.5H105V1.5H84V2.5ZM84 10.5H105V9.5H84V10.5ZM84 18.5H105V17.5H84V18.5ZM114.5 0V20H115.5V0H114.5ZM122.5 0V20H123.5V0H122.5ZM130.5 0V20H131.5V0H130.5ZM141 2.5H162V1.5H141V2.5ZM141 10.5H162V9.5H141V10.5ZM141 18.5H162V17.5H141V18.5ZM171.5 0V20H172.5V0H171.5ZM179.5 0V20H180.5V0H179.5ZM187.5 0V20H188.5V0H187.5ZM198 2.5H219V1.5H198V2.5ZM198 10.5H219V9.5H198V10.5ZM198 18.5H219V17.5H198V18.5ZM228.5 0V20H229.5V0H228.5ZM236.5 0V20H237.5V0H236.5ZM244.5 0V20H245.5V0H244.5ZM255 2.5H276V1.5H255V2.5ZM255 10.5H276V9.5H255V10.5ZM255 18.5H276V17.5H255V18.5ZM285.5 0V20H286.5V0H285.5ZM293.5 0V20H294.5V0H293.5ZM301.5 0V20H302.5V0H301.5ZM312 2.5H333V1.5H312V2.5ZM312 10.5H333V9.5H312V10.5ZM312 18.5H333V17.5H312V18.5ZM342.5 0V20H343.5V0H342.5ZM350.5 0V20H351.5V0H350.5ZM358.5 0V20H359.5V0H358.5ZM369 2.5H390V1.5H369V2.5ZM369 10.5H390V9.5H369V10.5ZM369 18.5H390V17.5H369V18.5ZM399.5 0V20H400.5V0H399.5ZM407.5 0V20H408.5V0H407.5ZM415.5 0V20H416.5V0H415.5ZM426 2.5H447V1.5H426V2.5ZM426 10.5H447V9.5H426V10.5ZM426 18.5H447V17.5H426V18.5ZM456.5 0V20H457.5V0H456.5ZM464.5 0V20H465.5V0H464.5ZM472.5 0V20H473.5V0H472.5ZM483 2.5H504V1.5H483V2.5ZM483 10.5H504V9.5H483V10.5ZM483 18.5H504V17.5H483V18.5ZM513.5 0V20H514.5V0H513.5ZM521.5 0V20H522.5V0H521.5ZM529.5 0V20H530.5V0H529.5ZM540 2.5H561V1.5H540V2.5ZM540 10.5H561V9.5H540V10.5ZM540 18.5H561V17.5H540V18.5ZM570.5 0V20H571.5V0H570.5ZM578.5 0V20H579.5V0H578.5ZM586.5 0V20H587.5V0H586.5ZM597 2.5H618V1.5H597V2.5ZM597 10.5H618V9.5H597V10.5ZM597 18.5H618V17.5H597V18.5ZM627.5 0V20H628.5V0H627.5ZM635.5 0V20H636.5V0H635.5ZM643.5 0V20H644.5V0H643.5ZM654 2.5H675V1.5H654V2.5ZM654 10.5H675V9.5H654V10.5ZM654 18.5H675V17.5H654V18.5ZM684.5 0V20H685.5V0H684.5ZM692.5 0V20H693.5V0H692.5ZM700.5 0V20H701.5V0H700.5ZM711 2.5H732V1.5H711V2.5ZM711 10.5H732V9.5H711V10.5ZM711 18.5H732V17.5H711V18.5ZM741.5 0V20H742.5V0H741.5ZM749.5 0V20H750.5V0H749.5ZM757.5 0V20H758.5V0H757.5ZM768 2.5H789V1.5H768V2.5ZM768 10.5H789V9.5H768V10.5ZM768 18.5H789V17.5H768V18.5ZM798.5 0V20H799.5V0H798.5ZM806.5 0V20H807.5V0H806.5ZM814.5 0V20H815.5V0H814.5ZM0.5 225V245H1.5V225H0.5ZM8.5 225V245H9.5V225H8.5ZM16.5 225V245H17.5V225H16.5ZM27 227.5H48V226.5H27V227.5ZM27 235.5H48V234.5H27V235.5ZM27 243.5H48V242.5H27V243.5ZM57.5 225V245H58.5V225H57.5ZM65.5 225V245H66.5V225H65.5ZM73.5 225V245H74.5V225H73.5ZM84 227.5H105V226.5H84V227.5ZM84 235.5H105V234.5H84V235.5ZM84 243.5H105V242.5H84V243.5ZM114.5 225V245H115.5V225H114.5ZM122.5 225V245H123.5V225H122.5ZM130.5 225V245H131.5V225H130.5ZM141 227.5H162V226.5H141V227.5ZM141 235.5H162V234.5H141V235.5ZM141 243.5H162V242.5H141V243.5ZM171.5 225V245H172.5V225H171.5ZM179.5 225V245H180.5V225H179.5ZM187.5 225V245H188.5V225H187.5ZM198 227.5H219V226.5H198V227.5ZM198 235.5H219V234.5H198V235.5ZM198 243.5H219V242.5H198V243.5ZM228.5 225V245H229.5V225H228.5ZM236.5 225V245H237.5V225H236.5ZM244.5 225V245H245.5V225H244.5ZM255 227.5H276V226.5H255V227.5ZM255 235.5H276V234.5H255V235.5ZM255 243.5H276V242.5H255V243.5ZM285.5 225V245H286.5V225H285.5ZM293.5 225V245H294.5V225H293.5ZM301.5 225V245H302.5V225H301.5ZM312 227.5H333V226.5H312V227.5ZM312 235.5H333V234.5H312V235.5ZM312 243.5H333V242.5H312V243.5ZM342.5 225V245H343.5V225H342.5ZM350.5 225V245H351.5V225H350.5ZM358.5 225V245H359.5V225H358.5ZM369 227.5H390V226.5H369V227.5ZM369 235.5H390V234.5H369V235.5ZM369 243.5H390V242.5H369V243.5ZM399.5 225V245H400.5V225H399.5ZM407.5 225V245H408.5V225H407.5ZM415.5 225V245H416.5V225H415.5ZM426 227.5H447V226.5H426V227.5ZM426 235.5H447V234.5H426V235.5ZM426 243.5H447V242.5H426V243.5ZM456.5 225V245H457.5V225H456.5ZM464.5 225V245H465.5V225H464.5ZM472.5 225V245H473.5V225H472.5ZM483 227.5H504V226.5H483V227.5ZM483 235.5H504V234.5H483V235.5ZM483 243.5H504V242.5H483V243.5ZM513.5 225V245H514.5V225H513.5ZM521.5 225V245H522.5V225H521.5ZM529.5 225V245H530.5V225H529.5ZM540 227.5H561V226.5H540V227.5ZM540 235.5H561V234.5H540V235.5ZM540 243.5H561V242.5H540V243.5ZM570.5 225V245H571.5V225H570.5ZM578.5 225V245H579.5V225H578.5ZM586.5 225V245H587.5V225H586.5ZM597 227.5H618V226.5H597V227.5ZM597 235.5H618V234.5H597V235.5ZM597 243.5H618V242.5H597V243.5ZM627.5 225V245H628.5V225H627.5ZM635.5 225V245H636.5V225H635.5ZM643.5 225V245H644.5V225H643.5ZM654 227.5H675V226.5H654V227.5ZM654 235.5H675V234.5H654V235.5ZM654 243.5H675V242.5H654V243.5ZM684.5 225V245H685.5V225H684.5ZM692.5 225V245H693.5V225H692.5ZM700.5 225V245H701.5V225H700.5ZM711 227.5H732V226.5H711V227.5ZM711 235.5H732V234.5H711V235.5ZM711 243.5H732V242.5H711V243.5ZM741.5 225V245H742.5V225H741.5ZM749.5 225V245H750.5V225H749.5ZM757.5 225V245H758.5V225H757.5ZM768 227.5H789V226.5H768V227.5ZM768 235.5H789V234.5H768V235.5ZM768 243.5H789V242.5H768V243.5ZM798.5 225V245H799.5V225H798.5ZM806.5 225V245H807.5V225H806.5ZM814.5 225V245H815.5V225H814.5Z" fill="#093373"/>
</svg>
