<svg width="449" height="91" viewBox="0 0 449 91" fill="none" xmlns="http://www.w3.org/2000/svg">
<path d="M1 1L75.0149 44.7177L1 90M13.9851 1L88 44.7177L13.9851 90M41 1L115.015 44.7177L41 90M53.9851 1L128 44.7177L53.9851 90M81 1L155.015 44.7177L81 90M93.9851 1L168 44.7177L93.9851 90M121 1L195.015 44.7177L121 90M133.985 1L208 44.7177L133.985 90M161 1L235.015 44.7177L161 90M173.985 1L248 44.7177L173.985 90M201 1L275.015 44.7177L201 90M213.985 1L288 44.7177L213.985 90M241 1L315.015 44.7177L241 90M253.985 1L328 44.7177L253.985 90M281 1L355.015 44.7177L281 90M293.985 1L368 44.7177L293.985 90M321 1L395.015 44.7177L321 90M333.985 1L408 44.7177L333.985 90M361 1L435.015 44.7177L361 90M373.985 1L448 44.7177L373.985 90" stroke="#093373"/>
</svg>
