<svg width="447" height="175" viewBox="0 0 447 175" fill="none" xmlns="http://www.w3.org/2000/svg">
<path d="M83.9572 27.147C83.9572 41.8638 72.0269 53.794 57.3102 53.794C42.5935 53.794 30.6633 41.8638 30.6633 27.147C30.6633 12.4303 42.5935 0.500092 57.3102 0.500092C72.0269 0.500092 83.9572 12.4303 83.9572 27.147ZM144.284 27.147C144.284 41.8637 132.354 53.7939 117.637 53.7939C102.92 53.7939 90.9899 41.8637 90.9899 27.147C90.9899 12.4302 102.92 0.5 117.637 0.5C132.354 0.5 144.284 12.4302 144.284 27.147ZM204.61 27.147C204.61 41.8637 192.68 53.7939 177.963 53.7939C163.247 53.7939 151.316 41.8637 151.316 27.147C151.316 12.4302 163.247 0.5 177.963 0.5C192.68 0.5 204.61 12.4302 204.61 27.147ZM264.937 27.147C264.937 41.8637 253.007 53.7939 238.29 53.7939C223.573 53.7939 211.643 41.8637 211.643 27.147C211.643 12.4302 223.573 0.5 238.29 0.5C253.007 0.5 264.937 12.4302 264.937 27.147ZM325.263 27.147C325.263 41.8637 313.333 53.7939 298.616 53.7939C283.9 53.7939 271.97 41.8637 271.97 27.147C271.97 12.4302 283.9 0.5 298.616 0.5C313.333 0.5 325.263 12.4302 325.263 27.147ZM385.59 27.147C385.59 41.8637 373.66 53.7939 358.943 53.7939C344.226 53.7939 332.296 41.8637 332.296 27.147C332.296 12.4302 344.226 0.5 358.943 0.5C373.66 0.5 385.59 12.4302 385.59 27.147ZM114.12 87.4737C114.12 102.19 102.19 114.121 87.4735 114.121C72.7568 114.121 60.8266 102.19 60.8266 87.4737C60.8266 72.757 72.7568 60.8268 87.4735 60.8268C102.19 60.8268 114.12 72.757 114.12 87.4737ZM53.7939 87.4737C53.7939 102.19 41.8637 114.121 27.147 114.121C12.4302 114.121 0.5 102.19 0.5 87.4737C0.5 72.757 12.4302 60.8268 27.147 60.8268C41.8637 60.8268 53.7939 72.757 53.7939 87.4737ZM174.447 87.4737C174.447 102.19 162.517 114.121 147.8 114.121C133.083 114.121 121.153 102.19 121.153 87.4737C121.153 72.757 133.083 60.8268 147.8 60.8268C162.517 60.8268 174.447 72.757 174.447 87.4737ZM234.774 87.4737C234.774 102.19 222.843 114.121 208.127 114.121C193.41 114.121 181.48 102.19 181.48 87.4737C181.48 72.757 193.41 60.8268 208.127 60.8268C222.843 60.8268 234.774 72.757 234.774 87.4737ZM295.1 87.4737C295.1 102.19 283.17 114.121 268.453 114.121C253.736 114.121 241.806 102.19 241.806 87.4737C241.806 72.757 253.736 60.8268 268.453 60.8268C283.17 60.8268 295.1 72.757 295.1 87.4737ZM355.427 87.4737C355.427 102.19 343.496 114.121 328.78 114.121C314.063 114.121 302.133 102.19 302.133 87.4737C302.133 72.757 314.063 60.8268 328.78 60.8268C343.496 60.8268 355.427 72.757 355.427 87.4737ZM415.753 87.4737C415.753 102.19 403.823 114.121 389.106 114.121C374.39 114.121 362.459 102.19 362.459 87.4737C362.459 72.757 374.39 60.8268 389.106 60.8268C403.823 60.8268 415.753 72.757 415.753 87.4737ZM83.9572 147.8C83.9572 162.517 72.0269 174.447 57.3102 174.447C42.5935 174.447 30.6633 162.517 30.6633 147.8C30.6633 133.084 42.5935 121.153 57.3102 121.153C72.0269 121.153 83.9572 133.084 83.9572 147.8ZM144.284 147.8C144.284 162.517 132.353 174.447 117.637 174.447C102.92 174.447 90.9898 162.517 90.9898 147.8C90.9898 133.084 102.92 121.153 117.637 121.153C132.353 121.153 144.284 133.084 144.284 147.8ZM204.61 147.8C204.61 162.517 192.68 174.447 177.963 174.447C163.247 174.447 151.316 162.517 151.316 147.8C151.316 133.084 163.247 121.153 177.963 121.153C192.68 121.153 204.61 133.084 204.61 147.8ZM264.937 147.8C264.937 162.517 253.007 174.447 238.29 174.447C223.573 174.447 211.643 162.517 211.643 147.8C211.643 133.084 223.573 121.153 238.29 121.153C253.007 121.153 264.937 133.084 264.937 147.8ZM325.263 147.8C325.263 162.517 313.333 174.447 298.616 174.447C283.9 174.447 271.969 162.517 271.969 147.8C271.969 133.084 283.9 121.153 298.616 121.153C313.333 121.153 325.263 133.084 325.263 147.8ZM385.59 147.8C385.59 162.517 373.66 174.447 358.943 174.447C344.226 174.447 332.296 162.517 332.296 147.8C332.296 133.084 344.226 121.153 358.943 121.153C373.66 121.153 385.59 133.084 385.59 147.8ZM446.5 147.8C446.5 162.517 434.57 174.447 419.853 174.447C405.136 174.447 393.206 162.517 393.206 147.8C393.206 133.084 405.136 121.153 419.853 121.153C434.57 121.153 446.5 133.084 446.5 147.8ZM446.5 27.147C446.5 41.8638 434.57 53.794 419.853 53.794C405.136 53.794 393.206 41.8638 393.206 27.147C393.206 12.4303 405.136 0.500092 419.853 0.500092C434.57 0.500092 446.5 12.4303 446.5 27.147Z" stroke="#093373"/>
</svg>
