<svg width="547" height="182" viewBox="0 0 547 182" fill="none" xmlns="http://www.w3.org/2000/svg">
<path fill-rule="evenodd" clip-rule="evenodd" d="M15.9302 4.36853C14.4781 1.76265 11.6949 0 8.5 0C3.80558 0 0 3.80558 0 8.5C0 11.846 1.93331 14.7404 4.7438 16.1271C2.98661 19.7103 2 23.7399 2 28C2 42.9117 14.0883 55 29 55C43.9117 55 56 42.9117 56 28C56 23.5656 54.931 19.3808 53.0366 15.6894C55.4184 14.1834 57 11.5264 57 8.5C57 3.80558 53.1944 0 48.5 0C45.4736 0 42.8166 1.58163 41.3106 3.96341C37.6192 2.06902 33.4344 1 29 1C24.2587 1 19.8028 2.22215 15.9302 4.36853ZM6.08088 15.6718L5.64164 16.5674C3.95018 20.0166 3 23.8959 3 28C3 42.3594 14.6406 54 29 54C43.3594 54 55 42.3594 55 28C55 23.728 53.9705 19.6994 52.1469 16.146L51.7296 15.3328L52.5021 14.8442C54.6063 13.5137 56 11.1693 56 8.5C56 4.35786 52.6421 1 48.5 1C45.8307 1 43.4863 2.3937 42.1558 4.49786L41.6672 5.27044L40.854 4.85309C37.3006 3.02951 33.272 2 29 2C24.4326 2 20.143 3.17688 16.4149 5.24317L15.5423 5.72684L15.0566 4.85529C13.7739 2.5534 11.3177 1 8.5 1C4.35786 1 1 4.35786 1 8.5C1 11.4509 2.70403 14.0056 5.18628 15.2304L6.08088 15.6718Z" fill="#093373"/>
<path fill-rule="evenodd" clip-rule="evenodd" d="M31.4523 45.6619C35.231 44.5942 38 41.1205 38 37C38 32.0294 33.9706 28 29 28C24.0294 28 20 32.0294 20 37C20 41.0901 22.7284 44.543 26.4644 45.6379C26.4651 45.6712 26.4658 45.7066 26.4665 45.7441C26.4711 46.0048 26.475 46.3575 26.4781 46.7725C26.4844 47.6021 26.4875 48.6758 26.4875 49.75C26.4875 50.8242 26.4844 51.8979 26.4781 52.7275C26.475 53.1425 26.4711 53.4952 26.4665 53.7559C26.4642 53.8865 26.4617 53.9924 26.4591 54.0708C26.4567 54.1429 26.4545 54.1768 26.454 54.1856C26.4538 54.1876 26.4538 54.188 26.4538 54.188C26.4208 54.4524 26.5744 54.629 26.6683 54.7063C26.7601 54.782 26.8634 54.8256 26.9368 54.852C27.0914 54.9073 27.2851 54.9441 27.4797 54.9705C27.8789 55.0246 28.4001 55.05 28.9125 55.05C29.4253 55.05 29.9517 55.0246 30.3619 54.9708C30.5633 54.9444 30.7596 54.9083 30.9179 54.8562C30.9948 54.831 31.0906 54.7931 31.1783 54.7332C31.2553 54.6806 31.4166 54.5485 31.4461 54.312C31.4568 54.2264 31.4611 54.01 31.4643 53.7547C31.4678 53.4788 31.4699 53.1081 31.4711 52.6763C31.4734 51.8124 31.4719 50.6988 31.4687 49.5986C31.4656 48.4981 31.4609 47.4103 31.457 46.5976C31.4552 46.216 31.4535 45.895 31.4523 45.6619ZM37 37C37 41.4183 33.4183 45 29 45C24.5817 45 21 41.4183 21 37C21 32.5817 24.5817 29 29 29C33.4183 29 37 32.5817 37 37ZM30.4534 45.8833C29.9803 45.9601 29.4948 46 29 46C28.478 46 27.9663 45.9556 27.4687 45.8702C27.4724 46.1156 27.4755 46.4198 27.4781 46.765C27.4844 47.5979 27.4875 48.6742 27.4875 49.75C27.4875 50.8258 27.4844 51.9021 27.4781 52.735C27.475 53.1513 27.471 53.5079 27.4663 53.7737C27.4652 53.8376 27.464 53.8988 27.4627 53.9559C27.5065 53.9638 27.5569 53.9718 27.614 53.9795C27.9524 54.0254 28.4248 54.05 28.9125 54.05C29.3997 54.05 29.8795 54.0255 30.2318 53.9793C30.3224 53.9674 30.3988 53.9548 30.4613 53.9423C30.4624 53.8837 30.4635 53.8168 30.4644 53.7422C30.4678 53.4712 30.4699 53.1044 30.4711 52.6736C30.4734 51.8125 30.4719 50.7012 30.4687 49.6014C30.4656 48.5019 30.4609 47.4147 30.457 46.6024C30.4557 46.3279 30.4545 46.0848 30.4534 45.8833ZM27.262 53.9059C27.2602 53.9051 27.2593 53.9047 27.2593 53.9047L27.262 53.9059Z" fill="#093373"/>
<path d="M32 37C32 38.6569 30.6569 40 29 40C27.3431 40 26 38.6569 26 37C26 35.3431 27.3431 34 29 34C30.6569 34 32 35.3431 32 37Z" fill="#093373"/>
<path fill-rule="evenodd" clip-rule="evenodd" d="M80.9302 4.36853C79.4781 1.76265 76.6949 0 73.5 0C68.8056 0 65 3.80558 65 8.5C65 11.846 66.9333 14.7404 69.7438 16.1271C67.9866 19.7103 67 23.7399 67 28C67 42.9117 79.0883 55 94 55C108.912 55 121 42.9117 121 28C121 23.5656 119.931 19.3808 118.037 15.6894C120.418 14.1834 122 11.5264 122 8.5C122 3.80558 118.194 0 113.5 0C110.474 0 107.817 1.58163 106.311 3.96341C102.619 2.06902 98.4344 1 94 1C89.2587 1 84.8028 2.22215 80.9302 4.36853ZM71.0809 15.6718L70.6416 16.5674C68.9502 20.0166 68 23.8959 68 28C68 42.3594 79.6406 54 94 54C108.359 54 120 42.3594 120 28C120 23.728 118.97 19.6994 117.147 16.146L116.73 15.3328L117.502 14.8442C119.606 13.5137 121 11.1693 121 8.5C121 4.35786 117.642 1 113.5 1C110.831 1 108.486 2.3937 107.156 4.49786L106.667 5.27044L105.854 4.85309C102.301 3.02951 98.272 2 94 2C89.4326 2 85.143 3.17688 81.4149 5.24317L80.5423 5.72684L80.0566 4.85529C78.7739 2.5534 76.3177 1 73.5 1C69.3579 1 66 4.35786 66 8.5C66 11.4509 67.704 14.0056 70.1863 15.2304L71.0809 15.6718Z" fill="#093373"/>
<path fill-rule="evenodd" clip-rule="evenodd" d="M96.4523 45.6619C100.231 44.5942 103 41.1205 103 37C103 32.0294 98.9706 28 94 28C89.0294 28 85 32.0294 85 37C85 41.0901 87.7284 44.543 91.4644 45.6379C91.4651 45.6712 91.4658 45.7066 91.4665 45.7441C91.4711 46.0048 91.475 46.3575 91.4781 46.7725C91.4844 47.6021 91.4875 48.6758 91.4875 49.75C91.4875 50.8242 91.4844 51.8979 91.4781 52.7275C91.475 53.1425 91.4711 53.4952 91.4665 53.7559C91.4641 53.8865 91.4617 53.9924 91.4591 54.0708C91.4566 54.1429 91.4545 54.1768 91.454 54.1856C91.4538 54.1876 91.4538 54.188 91.4538 54.188C91.4208 54.4524 91.5744 54.629 91.6683 54.7063C91.7602 54.782 91.8634 54.8256 91.9368 54.852C92.0914 54.9073 92.2851 54.9441 92.4797 54.9705C92.8789 55.0246 93.4001 55.05 93.9125 55.05C94.4253 55.05 94.9517 55.0246 95.3619 54.9708C95.5633 54.9444 95.7596 54.9083 95.9179 54.8562C95.9948 54.831 96.0906 54.7931 96.1783 54.7332C96.2553 54.6806 96.4166 54.5485 96.4461 54.312C96.4568 54.2264 96.4611 54.01 96.4643 53.7547C96.4678 53.4788 96.4699 53.1081 96.4711 52.6763C96.4734 51.8124 96.4719 50.6988 96.4687 49.5986C96.4656 48.4981 96.4609 47.4103 96.457 46.5976C96.4552 46.216 96.4535 45.895 96.4523 45.6619ZM102 37C102 41.4183 98.4183 45 94 45C89.5817 45 86 41.4183 86 37C86 32.5817 89.5817 29 94 29C98.4183 29 102 32.5817 102 37ZM95.4534 45.8833C94.9803 45.9601 94.4948 46 94 46C93.478 46 92.9664 45.9556 92.4687 45.8702C92.4724 46.1156 92.4755 46.4198 92.4781 46.765C92.4844 47.5979 92.4875 48.6742 92.4875 49.75C92.4875 50.8258 92.4844 51.9021 92.4781 52.735C92.475 53.1513 92.471 53.5079 92.4663 53.7737C92.4652 53.8376 92.464 53.8988 92.4626 53.9559C92.5065 53.9638 92.5568 53.9718 92.614 53.9795C92.9524 54.0254 93.4248 54.05 93.9125 54.05C94.3997 54.05 94.8795 54.0255 95.2318 53.9793C95.3224 53.9674 95.3988 53.9548 95.4613 53.9423C95.4624 53.8837 95.4635 53.8168 95.4644 53.7422C95.4678 53.4712 95.4699 53.1044 95.4711 52.6736C95.4734 51.8125 95.4719 50.7012 95.4687 49.6014C95.4656 48.5019 95.4609 47.4147 95.457 46.6024C95.4557 46.3279 95.4545 46.0848 95.4534 45.8833ZM92.262 53.9059C92.2602 53.9051 92.2593 53.9047 92.2593 53.9047L92.262 53.9059Z" fill="#093373"/>
<path d="M97 37C97 38.6569 95.6569 40 94 40C92.3431 40 91 38.6569 91 37C91 35.3431 92.3431 34 94 34C95.6569 34 97 35.3431 97 37Z" fill="#093373"/>
<path fill-rule="evenodd" clip-rule="evenodd" d="M145.93 4.36853C144.478 1.76265 141.695 0 138.5 0C133.806 0 130 3.80558 130 8.5C130 11.846 131.933 14.7404 134.744 16.1271C132.987 19.7103 132 23.7399 132 28C132 42.9117 144.088 55 159 55C173.912 55 186 42.9117 186 28C186 23.5656 184.931 19.3808 183.037 15.6894C185.418 14.1834 187 11.5264 187 8.5C187 3.80558 183.194 0 178.5 0C175.474 0 172.817 1.58163 171.311 3.96341C167.619 2.06902 163.434 1 159 1C154.259 1 149.803 2.22215 145.93 4.36853ZM136.081 15.6718L135.642 16.5674C133.95 20.0166 133 23.8959 133 28C133 42.3594 144.641 54 159 54C173.359 54 185 42.3594 185 28C185 23.728 183.97 19.6994 182.147 16.146L181.73 15.3328L182.502 14.8442C184.606 13.5137 186 11.1693 186 8.5C186 4.35786 182.642 1 178.5 1C175.831 1 173.486 2.3937 172.156 4.49786L171.667 5.27044L170.854 4.85309C167.301 3.02951 163.272 2 159 2C154.433 2 150.143 3.17688 146.415 5.24317L145.542 5.72684L145.057 4.85529C143.774 2.5534 141.318 1 138.5 1C134.358 1 131 4.35786 131 8.5C131 11.4509 132.704 14.0056 135.186 15.2304L136.081 15.6718Z" fill="#093373"/>
<path fill-rule="evenodd" clip-rule="evenodd" d="M161.452 45.6619C165.231 44.5942 168 41.1205 168 37C168 32.0294 163.971 28 159 28C154.029 28 150 32.0294 150 37C150 41.0901 152.728 44.543 156.464 45.6379C156.465 45.6712 156.466 45.7066 156.466 45.7441C156.471 46.0048 156.475 46.3575 156.478 46.7725C156.484 47.6021 156.487 48.6758 156.487 49.75C156.487 50.8242 156.484 51.8979 156.478 52.7275C156.475 53.1425 156.471 53.4952 156.466 53.7559C156.464 53.8865 156.462 53.9924 156.459 54.0708C156.457 54.1429 156.455 54.1768 156.454 54.1856C156.454 54.1876 156.454 54.188 156.454 54.188C156.421 54.4524 156.574 54.629 156.668 54.7063C156.76 54.782 156.863 54.8256 156.937 54.852C157.091 54.9073 157.285 54.9441 157.48 54.9705C157.879 55.0246 158.4 55.05 158.912 55.05C159.425 55.05 159.952 55.0246 160.362 54.9708C160.563 54.9444 160.76 54.9083 160.918 54.8562C160.995 54.831 161.091 54.7931 161.178 54.7332C161.255 54.6806 161.417 54.5485 161.446 54.312C161.457 54.2264 161.461 54.01 161.464 53.7547C161.468 53.4788 161.47 53.1081 161.471 52.6763C161.473 51.8124 161.472 50.6988 161.469 49.5986C161.466 48.4981 161.461 47.4103 161.457 46.5976C161.455 46.216 161.454 45.895 161.452 45.6619ZM167 37C167 41.4183 163.418 45 159 45C154.582 45 151 41.4183 151 37C151 32.5817 154.582 29 159 29C163.418 29 167 32.5817 167 37ZM160.453 45.8833C159.98 45.9601 159.495 46 159 46C158.478 46 157.966 45.9556 157.469 45.8702C157.472 46.1156 157.476 46.4198 157.478 46.765C157.484 47.5979 157.487 48.6742 157.487 49.75C157.487 50.8258 157.484 51.9021 157.478 52.735C157.475 53.1513 157.471 53.5079 157.466 53.7737C157.465 53.8376 157.464 53.8988 157.463 53.9559C157.506 53.9638 157.557 53.9718 157.614 53.9795C157.952 54.0254 158.425 54.05 158.912 54.05C159.4 54.05 159.88 54.0255 160.232 53.9793C160.322 53.9674 160.399 53.9548 160.461 53.9423C160.462 53.8837 160.463 53.8168 160.464 53.7422C160.468 53.4712 160.47 53.1044 160.471 52.6736C160.473 51.8125 160.472 50.7012 160.469 49.6014C160.466 48.5019 160.461 47.4147 160.457 46.6024C160.456 46.3279 160.454 46.0848 160.453 45.8833ZM157.262 53.9059C157.26 53.9051 157.259 53.9047 157.259 53.9047L157.262 53.9059Z" fill="#093373"/>
<path d="M162 37C162 38.6569 160.657 40 159 40C157.343 40 156 38.6569 156 37C156 35.3431 157.343 34 159 34C160.657 34 162 35.3431 162 37Z" fill="#093373"/>
<path fill-rule="evenodd" clip-rule="evenodd" d="M210.93 4.36853C209.478 1.76265 206.695 0 203.5 0C198.806 0 195 3.80558 195 8.5C195 11.846 196.933 14.7404 199.744 16.1271C197.987 19.7103 197 23.7399 197 28C197 42.9117 209.088 55 224 55C238.912 55 251 42.9117 251 28C251 23.5656 249.931 19.3808 248.037 15.6894C250.418 14.1834 252 11.5264 252 8.5C252 3.80558 248.194 0 243.5 0C240.474 0 237.817 1.58163 236.311 3.96341C232.619 2.06902 228.434 1 224 1C219.259 1 214.803 2.22215 210.93 4.36853ZM201.081 15.6718L200.642 16.5674C198.95 20.0166 198 23.8959 198 28C198 42.3594 209.641 54 224 54C238.359 54 250 42.3594 250 28C250 23.728 248.97 19.6994 247.147 16.146L246.73 15.3328L247.502 14.8442C249.606 13.5137 251 11.1693 251 8.5C251 4.35786 247.642 1 243.5 1C240.831 1 238.486 2.3937 237.156 4.49786L236.667 5.27044L235.854 4.85309C232.301 3.02951 228.272 2 224 2C219.433 2 215.143 3.17688 211.415 5.24317L210.542 5.72684L210.057 4.85529C208.774 2.5534 206.318 1 203.5 1C199.358 1 196 4.35786 196 8.5C196 11.4509 197.704 14.0056 200.186 15.2304L201.081 15.6718Z" fill="#093373"/>
<path fill-rule="evenodd" clip-rule="evenodd" d="M226.452 45.6619C230.231 44.5942 233 41.1205 233 37C233 32.0294 228.971 28 224 28C219.029 28 215 32.0294 215 37C215 41.0901 217.728 44.543 221.464 45.6379C221.465 45.6712 221.466 45.7066 221.466 45.7441C221.471 46.0048 221.475 46.3575 221.478 46.7725C221.484 47.6021 221.487 48.6758 221.487 49.75C221.487 50.8242 221.484 51.8979 221.478 52.7275C221.475 53.1425 221.471 53.4952 221.466 53.7559C221.464 53.8865 221.462 53.9924 221.459 54.0708C221.457 54.1429 221.455 54.1768 221.454 54.1856C221.454 54.1876 221.454 54.188 221.454 54.188C221.421 54.4524 221.574 54.629 221.668 54.7063C221.76 54.782 221.863 54.8256 221.937 54.852C222.091 54.9073 222.285 54.9441 222.48 54.9705C222.879 55.0246 223.4 55.05 223.912 55.05C224.425 55.05 224.952 55.0246 225.362 54.9708C225.563 54.9444 225.76 54.9083 225.918 54.8562C225.995 54.831 226.091 54.7931 226.178 54.7332C226.255 54.6806 226.417 54.5485 226.446 54.312C226.457 54.2264 226.461 54.01 226.464 53.7547C226.468 53.4788 226.47 53.1081 226.471 52.6763C226.473 51.8124 226.472 50.6988 226.469 49.5986C226.466 48.4981 226.461 47.4103 226.457 46.5976C226.455 46.216 226.454 45.895 226.452 45.6619ZM232 37C232 41.4183 228.418 45 224 45C219.582 45 216 41.4183 216 37C216 32.5817 219.582 29 224 29C228.418 29 232 32.5817 232 37ZM225.453 45.8833C224.98 45.9601 224.495 46 224 46C223.478 46 222.966 45.9556 222.469 45.8702C222.472 46.1156 222.476 46.4198 222.478 46.765C222.484 47.5979 222.487 48.6742 222.487 49.75C222.487 50.8258 222.484 51.9021 222.478 52.735C222.475 53.1513 222.471 53.5079 222.466 53.7737C222.465 53.8376 222.464 53.8988 222.463 53.9559C222.506 53.9638 222.557 53.9718 222.614 53.9795C222.952 54.0254 223.425 54.05 223.912 54.05C224.4 54.05 224.88 54.0255 225.232 53.9793C225.322 53.9674 225.399 53.9548 225.461 53.9423C225.462 53.8837 225.463 53.8168 225.464 53.7422C225.468 53.4712 225.47 53.1044 225.471 52.6736C225.473 51.8125 225.472 50.7012 225.469 49.6014C225.466 48.5019 225.461 47.4147 225.457 46.6024C225.456 46.3279 225.454 46.0848 225.453 45.8833ZM222.262 53.9059C222.26 53.9051 222.259 53.9047 222.259 53.9047L222.262 53.9059Z" fill="#093373"/>
<path d="M227 37C227 38.6569 225.657 40 224 40C222.343 40 221 38.6569 221 37C221 35.3431 222.343 34 224 34C225.657 34 227 35.3431 227 37Z" fill="#093373"/>
<path fill-rule="evenodd" clip-rule="evenodd" d="M275.93 4.36853C274.478 1.76265 271.695 0 268.5 0C263.806 0 260 3.80558 260 8.5C260 11.846 261.933 14.7404 264.744 16.1271C262.987 19.7103 262 23.7399 262 28C262 42.9117 274.088 55 289 55C303.912 55 316 42.9117 316 28C316 23.5656 314.931 19.3808 313.037 15.6894C315.418 14.1834 317 11.5264 317 8.5C317 3.80558 313.194 0 308.5 0C305.474 0 302.817 1.58163 301.311 3.96341C297.619 2.06902 293.434 1 289 1C284.259 1 279.803 2.22215 275.93 4.36853ZM266.081 15.6718L265.642 16.5674C263.95 20.0166 263 23.8959 263 28C263 42.3594 274.641 54 289 54C303.359 54 315 42.3594 315 28C315 23.728 313.97 19.6994 312.147 16.146L311.73 15.3328L312.502 14.8442C314.606 13.5137 316 11.1693 316 8.5C316 4.35786 312.642 1 308.5 1C305.831 1 303.486 2.3937 302.156 4.49786L301.667 5.27044L300.854 4.85309C297.301 3.02951 293.272 2 289 2C284.433 2 280.143 3.17688 276.415 5.24317L275.542 5.72684L275.057 4.85529C273.774 2.5534 271.318 1 268.5 1C264.358 1 261 4.35786 261 8.5C261 11.4509 262.704 14.0056 265.186 15.2304L266.081 15.6718Z" fill="#093373"/>
<path fill-rule="evenodd" clip-rule="evenodd" d="M291.452 45.6619C295.231 44.5942 298 41.1205 298 37C298 32.0294 293.971 28 289 28C284.029 28 280 32.0294 280 37C280 41.0901 282.728 44.543 286.464 45.6379C286.465 45.6712 286.466 45.7066 286.466 45.7441C286.471 46.0048 286.475 46.3575 286.478 46.7725C286.484 47.6021 286.487 48.6758 286.487 49.75C286.487 50.8242 286.484 51.8979 286.478 52.7275C286.475 53.1425 286.471 53.4952 286.466 53.7559C286.464 53.8865 286.462 53.9924 286.459 54.0708C286.457 54.1429 286.455 54.1768 286.454 54.1856C286.454 54.1876 286.454 54.188 286.454 54.188C286.421 54.4524 286.574 54.629 286.668 54.7063C286.76 54.782 286.863 54.8256 286.937 54.852C287.091 54.9073 287.285 54.9441 287.48 54.9705C287.879 55.0246 288.4 55.05 288.912 55.05C289.425 55.05 289.952 55.0246 290.362 54.9708C290.563 54.9444 290.76 54.9083 290.918 54.8562C290.995 54.831 291.091 54.7931 291.178 54.7332C291.255 54.6806 291.417 54.5485 291.446 54.312C291.457 54.2264 291.461 54.01 291.464 53.7547C291.468 53.4788 291.47 53.1081 291.471 52.6763C291.473 51.8124 291.472 50.6988 291.469 49.5986C291.466 48.4981 291.461 47.4103 291.457 46.5976C291.455 46.216 291.454 45.895 291.452 45.6619ZM297 37C297 41.4183 293.418 45 289 45C284.582 45 281 41.4183 281 37C281 32.5817 284.582 29 289 29C293.418 29 297 32.5817 297 37ZM290.453 45.8833C289.98 45.9601 289.495 46 289 46C288.478 46 287.966 45.9556 287.469 45.8702C287.472 46.1156 287.475 46.4198 287.478 46.765C287.484 47.5979 287.487 48.6742 287.487 49.75C287.487 50.8258 287.484 51.9021 287.478 52.735C287.475 53.1513 287.471 53.5079 287.466 53.7737C287.465 53.8376 287.464 53.8988 287.463 53.9559C287.506 53.9638 287.557 53.9718 287.614 53.9795C287.952 54.0254 288.425 54.05 288.912 54.05C289.4 54.05 289.88 54.0255 290.232 53.9793C290.322 53.9674 290.399 53.9548 290.461 53.9423C290.462 53.8837 290.463 53.8168 290.464 53.7422C290.468 53.4712 290.47 53.1044 290.471 52.6736C290.473 51.8125 290.472 50.7012 290.469 49.6014C290.466 48.5019 290.461 47.4147 290.457 46.6024C290.456 46.3279 290.454 46.0848 290.453 45.8833ZM287.262 53.9059C287.26 53.9051 287.259 53.9047 287.259 53.9047L287.262 53.9059Z" fill="#093373"/>
<path d="M292 37C292 38.6569 290.657 40 289 40C287.343 40 286 38.6569 286 37C286 35.3431 287.343 34 289 34C290.657 34 292 35.3431 292 37Z" fill="#093373"/>
<path fill-rule="evenodd" clip-rule="evenodd" d="M340.93 4.36853C339.478 1.76265 336.695 0 333.5 0C328.806 0 325 3.80558 325 8.5C325 11.846 326.933 14.7404 329.744 16.1271C327.987 19.7103 327 23.7399 327 28C327 42.9117 339.088 55 354 55C368.912 55 381 42.9117 381 28C381 23.5656 379.931 19.3808 378.037 15.6894C380.418 14.1834 382 11.5264 382 8.5C382 3.80558 378.194 0 373.5 0C370.474 0 367.817 1.58163 366.311 3.96341C362.619 2.06902 358.434 1 354 1C349.259 1 344.803 2.22215 340.93 4.36853ZM331.081 15.6718L330.642 16.5674C328.95 20.0166 328 23.8959 328 28C328 42.3594 339.641 54 354 54C368.359 54 380 42.3594 380 28C380 23.728 378.97 19.6994 377.147 16.146L376.73 15.3328L377.502 14.8442C379.606 13.5137 381 11.1693 381 8.5C381 4.35786 377.642 1 373.5 1C370.831 1 368.486 2.3937 367.156 4.49786L366.667 5.27044L365.854 4.85309C362.301 3.02951 358.272 2 354 2C349.433 2 345.143 3.17688 341.415 5.24317L340.542 5.72684L340.057 4.85529C338.774 2.5534 336.318 1 333.5 1C329.358 1 326 4.35786 326 8.5C326 11.4509 327.704 14.0056 330.186 15.2304L331.081 15.6718Z" fill="#093373"/>
<path fill-rule="evenodd" clip-rule="evenodd" d="M356.452 45.6619C360.231 44.5942 363 41.1205 363 37C363 32.0294 358.971 28 354 28C349.029 28 345 32.0294 345 37C345 41.0901 347.728 44.543 351.464 45.6379C351.465 45.6712 351.466 45.7066 351.466 45.7441C351.471 46.0048 351.475 46.3575 351.478 46.7725C351.484 47.6021 351.487 48.6758 351.487 49.75C351.487 50.8242 351.484 51.8979 351.478 52.7275C351.475 53.1425 351.471 53.4952 351.466 53.7559C351.464 53.8865 351.462 53.9924 351.459 54.0708C351.457 54.1429 351.455 54.1768 351.454 54.1856C351.454 54.1876 351.454 54.188 351.454 54.188C351.421 54.4524 351.574 54.629 351.668 54.7063C351.76 54.782 351.863 54.8256 351.937 54.852C352.091 54.9073 352.285 54.9441 352.48 54.9705C352.879 55.0246 353.4 55.05 353.912 55.05C354.425 55.05 354.952 55.0246 355.362 54.9708C355.563 54.9444 355.76 54.9083 355.918 54.8562C355.995 54.831 356.091 54.7931 356.178 54.7332C356.255 54.6806 356.417 54.5485 356.446 54.312C356.457 54.2264 356.461 54.01 356.464 53.7547C356.468 53.4788 356.47 53.1081 356.471 52.6763C356.473 51.8124 356.472 50.6988 356.469 49.5986C356.466 48.4981 356.461 47.4103 356.457 46.5976C356.455 46.216 356.454 45.895 356.452 45.6619ZM362 37C362 41.4183 358.418 45 354 45C349.582 45 346 41.4183 346 37C346 32.5817 349.582 29 354 29C358.418 29 362 32.5817 362 37ZM355.453 45.8833C354.98 45.9601 354.495 46 354 46C353.478 46 352.966 45.9556 352.469 45.8702C352.472 46.1156 352.475 46.4198 352.478 46.765C352.484 47.5979 352.487 48.6742 352.487 49.75C352.487 50.8258 352.484 51.9021 352.478 52.735C352.475 53.1513 352.471 53.5079 352.466 53.7737C352.465 53.8376 352.464 53.8988 352.463 53.9559C352.506 53.9638 352.557 53.9718 352.614 53.9795C352.952 54.0254 353.425 54.05 353.912 54.05C354.4 54.05 354.88 54.0255 355.232 53.9793C355.322 53.9674 355.399 53.9548 355.461 53.9423C355.462 53.8837 355.463 53.8168 355.464 53.7422C355.468 53.4712 355.47 53.1044 355.471 52.6736C355.473 51.8125 355.472 50.7012 355.469 49.6014C355.466 48.5019 355.461 47.4147 355.457 46.6024C355.456 46.3279 355.454 46.0848 355.453 45.8833ZM352.262 53.9059C352.26 53.9051 352.259 53.9047 352.259 53.9047L352.262 53.9059Z" fill="#093373"/>
<path d="M357 37C357 38.6569 355.657 40 354 40C352.343 40 351 38.6569 351 37C351 35.3431 352.343 34 354 34C355.657 34 357 35.3431 357 37Z" fill="#093373"/>
<path fill-rule="evenodd" clip-rule="evenodd" d="M405.93 4.36853C404.478 1.76265 401.695 0 398.5 0C393.806 0 390 3.80558 390 8.5C390 11.846 391.933 14.7404 394.744 16.1271C392.987 19.7103 392 23.7399 392 28C392 42.9117 404.088 55 419 55C433.912 55 446 42.9117 446 28C446 23.5656 444.931 19.3808 443.037 15.6894C445.418 14.1834 447 11.5264 447 8.5C447 3.80558 443.194 0 438.5 0C435.474 0 432.817 1.58163 431.311 3.96341C427.619 2.06902 423.434 1 419 1C414.259 1 409.803 2.22215 405.93 4.36853ZM396.081 15.6718L395.642 16.5674C393.95 20.0166 393 23.8959 393 28C393 42.3594 404.641 54 419 54C433.359 54 445 42.3594 445 28C445 23.728 443.97 19.6994 442.147 16.146L441.73 15.3328L442.502 14.8442C444.606 13.5137 446 11.1693 446 8.5C446 4.35786 442.642 1 438.5 1C435.831 1 433.486 2.3937 432.156 4.49786L431.667 5.27044L430.854 4.85309C427.301 3.02951 423.272 2 419 2C414.433 2 410.143 3.17688 406.415 5.24317L405.542 5.72684L405.057 4.85529C403.774 2.5534 401.318 1 398.5 1C394.358 1 391 4.35786 391 8.5C391 11.4509 392.704 14.0056 395.186 15.2304L396.081 15.6718Z" fill="#093373"/>
<path fill-rule="evenodd" clip-rule="evenodd" d="M421.452 45.6619C425.231 44.5942 428 41.1205 428 37C428 32.0294 423.971 28 419 28C414.029 28 410 32.0294 410 37C410 41.0901 412.728 44.543 416.464 45.6379C416.465 45.6712 416.466 45.7066 416.466 45.7441C416.471 46.0048 416.475 46.3575 416.478 46.7725C416.484 47.6021 416.487 48.6758 416.487 49.75C416.487 50.8242 416.484 51.8979 416.478 52.7275C416.475 53.1425 416.471 53.4952 416.466 53.7559C416.464 53.8865 416.462 53.9924 416.459 54.0708C416.457 54.1429 416.455 54.1768 416.454 54.1856C416.454 54.1876 416.454 54.188 416.454 54.188C416.421 54.4524 416.574 54.629 416.668 54.7063C416.76 54.782 416.863 54.8256 416.937 54.852C417.091 54.9073 417.285 54.9441 417.48 54.9705C417.879 55.0246 418.4 55.05 418.912 55.05C419.425 55.05 419.952 55.0246 420.362 54.9708C420.563 54.9444 420.76 54.9083 420.918 54.8562C420.995 54.831 421.091 54.7931 421.178 54.7332C421.255 54.6806 421.417 54.5485 421.446 54.312C421.457 54.2264 421.461 54.01 421.464 53.7547C421.468 53.4788 421.47 53.1081 421.471 52.6763C421.473 51.8124 421.472 50.6988 421.469 49.5986C421.466 48.4981 421.461 47.4103 421.457 46.5976C421.455 46.216 421.454 45.895 421.452 45.6619ZM427 37C427 41.4183 423.418 45 419 45C414.582 45 411 41.4183 411 37C411 32.5817 414.582 29 419 29C423.418 29 427 32.5817 427 37ZM420.453 45.8833C419.98 45.9601 419.495 46 419 46C418.478 46 417.966 45.9556 417.469 45.8702C417.472 46.1156 417.475 46.4198 417.478 46.765C417.484 47.5979 417.487 48.6742 417.487 49.75C417.487 50.8258 417.484 51.9021 417.478 52.735C417.475 53.1513 417.471 53.5079 417.466 53.7737C417.465 53.8376 417.464 53.8988 417.463 53.9559C417.506 53.9638 417.557 53.9718 417.614 53.9795C417.952 54.0254 418.425 54.05 418.912 54.05C419.4 54.05 419.88 54.0255 420.232 53.9793C420.322 53.9674 420.399 53.9548 420.461 53.9423C420.462 53.8837 420.463 53.8168 420.464 53.7422C420.468 53.4712 420.47 53.1044 420.471 52.6736C420.473 51.8125 420.472 50.7012 420.469 49.6014C420.466 48.5019 420.461 47.4147 420.457 46.6024C420.456 46.3279 420.454 46.0848 420.453 45.8833ZM417.262 53.9059C417.26 53.9051 417.259 53.9047 417.259 53.9047L417.262 53.9059Z" fill="#093373"/>
<path d="M422 37C422 38.6569 420.657 40 419 40C417.343 40 416 38.6569 416 37C416 35.3431 417.343 34 419 34C420.657 34 422 35.3431 422 37Z" fill="#093373"/>
<path fill-rule="evenodd" clip-rule="evenodd" d="M470.93 4.36853C469.478 1.76265 466.695 0 463.5 0C458.806 0 455 3.80558 455 8.5C455 11.846 456.933 14.7404 459.744 16.1271C457.987 19.7103 457 23.7399 457 28C457 42.9117 469.088 55 484 55C498.912 55 511 42.9117 511 28C511 23.5656 509.931 19.3808 508.037 15.6894C510.418 14.1834 512 11.5264 512 8.5C512 3.80558 508.194 0 503.5 0C500.474 0 497.817 1.58163 496.311 3.96341C492.619 2.06902 488.434 1 484 1C479.259 1 474.803 2.22215 470.93 4.36853ZM461.081 15.6718L460.642 16.5674C458.95 20.0166 458 23.8959 458 28C458 42.3594 469.641 54 484 54C498.359 54 510 42.3594 510 28C510 23.728 508.97 19.6994 507.147 16.146L506.73 15.3328L507.502 14.8442C509.606 13.5137 511 11.1693 511 8.5C511 4.35786 507.642 1 503.5 1C500.831 1 498.486 2.3937 497.156 4.49786L496.667 5.27044L495.854 4.85309C492.301 3.02951 488.272 2 484 2C479.433 2 475.143 3.17688 471.415 5.24317L470.542 5.72684L470.057 4.85529C468.774 2.5534 466.318 1 463.5 1C459.358 1 456 4.35786 456 8.5C456 11.4509 457.704 14.0056 460.186 15.2304L461.081 15.6718Z" fill="#093373"/>
<path fill-rule="evenodd" clip-rule="evenodd" d="M486.452 45.6619C490.231 44.5942 493 41.1205 493 37C493 32.0294 488.971 28 484 28C479.029 28 475 32.0294 475 37C475 41.0901 477.728 44.543 481.464 45.6379C481.465 45.6712 481.466 45.7066 481.466 45.7441C481.471 46.0048 481.475 46.3575 481.478 46.7725C481.484 47.6021 481.487 48.6758 481.487 49.75C481.487 50.8242 481.484 51.8979 481.478 52.7275C481.475 53.1425 481.471 53.4952 481.466 53.7559C481.464 53.8865 481.462 53.9924 481.459 54.0708C481.457 54.1429 481.455 54.1768 481.454 54.1856C481.454 54.1876 481.454 54.188 481.454 54.188C481.421 54.4524 481.574 54.629 481.668 54.7063C481.76 54.782 481.863 54.8256 481.937 54.852C482.091 54.9073 482.285 54.9441 482.48 54.9705C482.879 55.0246 483.4 55.05 483.912 55.05C484.425 55.05 484.952 55.0246 485.362 54.9708C485.563 54.9444 485.76 54.9083 485.918 54.8562C485.995 54.831 486.091 54.7931 486.178 54.7332C486.255 54.6806 486.417 54.5485 486.446 54.312C486.457 54.2264 486.461 54.01 486.464 53.7547C486.468 53.4788 486.47 53.1081 486.471 52.6763C486.473 51.8124 486.472 50.6988 486.469 49.5986C486.466 48.4981 486.461 47.4103 486.457 46.5976C486.455 46.216 486.454 45.895 486.452 45.6619ZM492 37C492 41.4183 488.418 45 484 45C479.582 45 476 41.4183 476 37C476 32.5817 479.582 29 484 29C488.418 29 492 32.5817 492 37ZM485.453 45.8833C484.98 45.9601 484.495 46 484 46C483.478 46 482.966 45.9556 482.469 45.8702C482.472 46.1156 482.475 46.4198 482.478 46.765C482.484 47.5979 482.487 48.6742 482.487 49.75C482.487 50.8258 482.484 51.9021 482.478 52.735C482.475 53.1513 482.471 53.5079 482.466 53.7737C482.465 53.8376 482.464 53.8988 482.463 53.9559C482.506 53.9638 482.557 53.9718 482.614 53.9795C482.952 54.0254 483.425 54.05 483.912 54.05C484.4 54.05 484.88 54.0255 485.232 53.9793C485.322 53.9674 485.399 53.9548 485.461 53.9423C485.462 53.8837 485.463 53.8168 485.464 53.7422C485.468 53.4712 485.47 53.1044 485.471 52.6736C485.473 51.8125 485.472 50.7012 485.469 49.6014C485.466 48.5019 485.461 47.4147 485.457 46.6024C485.456 46.3279 485.454 46.0848 485.453 45.8833ZM482.262 53.9059C482.26 53.9051 482.259 53.9047 482.259 53.9047L482.262 53.9059Z" fill="#093373"/>
<path d="M487 37C487 38.6569 485.657 40 484 40C482.343 40 481 38.6569 481 37C481 35.3431 482.343 34 484 34C485.657 34 487 35.3431 487 37Z" fill="#093373"/>
<path fill-rule="evenodd" clip-rule="evenodd" d="M50.9302 67.4183C49.4781 64.8125 46.6949 63.0498 43.5 63.0498C38.8056 63.0498 35 66.8554 35 71.5498C35 74.8958 36.9333 77.7902 39.7438 79.1769C37.9866 82.7601 37 86.7897 37 91.0498C37 105.961 49.0883 118.05 64 118.05C78.9117 118.05 91 105.961 91 91.0498C91 86.6154 89.931 82.4306 88.0366 78.7392C90.4184 77.2332 92 74.5762 92 71.5498C92 66.8554 88.1944 63.0498 83.5 63.0498C80.4736 63.0498 77.8166 64.6314 76.3106 67.0132C72.6192 65.1188 68.4344 64.0498 64 64.0498C59.2587 64.0498 54.8028 65.272 50.9302 67.4183ZM41.0809 78.7216L40.6416 79.6172C38.9502 83.0664 38 86.9457 38 91.0498C38 105.409 49.6406 117.05 64 117.05C78.3594 117.05 90 105.409 90 91.0498C90 86.7778 88.9705 82.7492 87.1469 79.1958L86.7296 78.3826L87.5021 77.894C89.6063 76.5635 91 74.2191 91 71.5498C91 67.4077 87.6421 64.0498 83.5 64.0498C80.8307 64.0498 78.4863 65.4435 77.1558 67.5477L76.6672 68.3202L75.854 67.9029C72.3006 66.0793 68.272 65.0498 64 65.0498C59.4326 65.0498 55.143 66.2267 51.4149 68.293L50.5423 68.7766L50.0566 67.9051C48.7739 65.6032 46.3177 64.0498 43.5 64.0498C39.3579 64.0498 36 67.4077 36 71.5498C36 74.5007 37.704 77.0554 40.1863 78.2802L41.0809 78.7216Z" fill="#093373"/>
<path fill-rule="evenodd" clip-rule="evenodd" d="M66.4523 108.712C70.231 107.644 73 104.17 73 100.05C73 95.0792 68.9706 91.0498 64 91.0498C59.0294 91.0498 55 95.0792 55 100.05C55 104.14 57.7284 107.593 61.4644 108.688C61.4651 108.721 61.4658 108.756 61.4665 108.794C61.4711 109.055 61.475 109.407 61.4781 109.822C61.4844 110.652 61.4875 111.726 61.4875 112.8C61.4875 113.874 61.4844 114.948 61.4781 115.777C61.475 116.192 61.4711 116.545 61.4665 116.806C61.4641 116.936 61.4617 117.042 61.4591 117.121C61.4567 117.193 61.4545 117.227 61.454 117.235C61.4538 117.237 61.4538 117.238 61.4538 117.238C61.4208 117.502 61.5744 117.679 61.6683 117.756C61.7601 117.832 61.8634 117.875 61.9368 117.902C62.0914 117.957 62.2851 117.994 62.4797 118.02C62.8789 118.074 63.4001 118.1 63.9125 118.1C64.4253 118.1 64.9517 118.074 65.3619 118.021C65.5633 117.994 65.7596 117.958 65.9179 117.906C65.9948 117.881 66.0906 117.843 66.1783 117.783C66.2553 117.73 66.4166 117.598 66.4461 117.362C66.4568 117.276 66.4611 117.06 66.4643 116.804C66.4678 116.529 66.4699 116.158 66.4711 115.726C66.4734 114.862 66.4719 113.749 66.4687 112.648C66.4656 111.548 66.4609 110.46 66.457 109.647C66.4552 109.266 66.4535 108.945 66.4523 108.712ZM72 100.05C72 104.468 68.4183 108.05 64 108.05C59.5817 108.05 56 104.468 56 100.05C56 95.6315 59.5817 92.0498 64 92.0498C68.4183 92.0498 72 95.6315 72 100.05ZM65.4534 108.933C64.9803 109.01 64.4948 109.05 64 109.05C63.478 109.05 62.9663 109.005 62.4687 108.92C62.4724 109.165 62.4755 109.47 62.4781 109.815C62.4844 110.648 62.4875 111.724 62.4875 112.8C62.4875 113.876 62.4844 114.952 62.4781 115.785C62.475 116.201 62.4711 116.558 62.4663 116.824C62.4652 116.887 62.464 116.949 62.4627 117.006C62.5065 117.014 62.5569 117.022 62.614 117.029C62.9524 117.075 63.4248 117.1 63.9125 117.1C64.3997 117.1 64.8795 117.075 65.2318 117.029C65.3224 117.017 65.3988 117.005 65.4613 116.992C65.4624 116.933 65.4635 116.867 65.4644 116.792C65.4678 116.521 65.4699 116.154 65.4711 115.723C65.4734 114.862 65.4719 113.751 65.4687 112.651C65.4656 111.552 65.4609 110.465 65.457 109.652C65.4557 109.378 65.4545 109.135 65.4534 108.933ZM62.262 116.956C62.2602 116.955 62.2593 116.954 62.2593 116.954L62.262 116.956Z" fill="#093373"/>
<path d="M67 100.05C67 101.707 65.6569 103.05 64 103.05C62.3431 103.05 61 101.707 61 100.05C61 98.393 62.3431 97.0498 64 97.0498C65.6569 97.0498 67 98.393 67 100.05Z" fill="#093373"/>
<path fill-rule="evenodd" clip-rule="evenodd" d="M115.93 67.4183C114.478 64.8125 111.695 63.0498 108.5 63.0498C103.806 63.0498 100 66.8554 100 71.5498C100 74.8958 101.933 77.7902 104.744 79.1769C102.987 82.7601 102 86.7897 102 91.0498C102 105.961 114.088 118.05 129 118.05C143.912 118.05 156 105.961 156 91.0498C156 86.6154 154.931 82.4306 153.037 78.7392C155.418 77.2332 157 74.5762 157 71.5498C157 66.8554 153.194 63.0498 148.5 63.0498C145.474 63.0498 142.817 64.6314 141.311 67.0132C137.619 65.1188 133.434 64.0498 129 64.0498C124.259 64.0498 119.803 65.272 115.93 67.4183ZM106.081 78.7216L105.642 79.6172C103.95 83.0664 103 86.9457 103 91.0498C103 105.409 114.641 117.05 129 117.05C143.359 117.05 155 105.409 155 91.0498C155 86.7778 153.97 82.7492 152.147 79.1958L151.73 78.3826L152.502 77.894C154.606 76.5635 156 74.2191 156 71.5498C156 67.4077 152.642 64.0498 148.5 64.0498C145.831 64.0498 143.486 65.4435 142.156 67.5477L141.667 68.3202L140.854 67.9029C137.301 66.0793 133.272 65.0498 129 65.0498C124.433 65.0498 120.143 66.2267 116.415 68.293L115.542 68.7766L115.057 67.9051C113.774 65.6032 111.318 64.0498 108.5 64.0498C104.358 64.0498 101 67.4077 101 71.5498C101 74.5007 102.704 77.0554 105.186 78.2802L106.081 78.7216Z" fill="#093373"/>
<path fill-rule="evenodd" clip-rule="evenodd" d="M131.452 108.712C135.231 107.644 138 104.17 138 100.05C138 95.0792 133.971 91.0498 129 91.0498C124.029 91.0498 120 95.0792 120 100.05C120 104.14 122.728 107.593 126.464 108.688C126.465 108.721 126.466 108.756 126.466 108.794C126.471 109.055 126.475 109.407 126.478 109.822C126.484 110.652 126.487 111.726 126.487 112.8C126.487 113.874 126.484 114.948 126.478 115.777C126.475 116.192 126.471 116.545 126.466 116.806C126.464 116.936 126.462 117.042 126.459 117.121C126.457 117.193 126.455 117.227 126.454 117.235C126.454 117.237 126.454 117.238 126.454 117.238C126.421 117.502 126.574 117.679 126.668 117.756C126.76 117.832 126.863 117.875 126.937 117.902C127.091 117.957 127.285 117.994 127.48 118.02C127.879 118.074 128.4 118.1 128.912 118.1C129.425 118.1 129.952 118.074 130.362 118.021C130.563 117.994 130.76 117.958 130.918 117.906C130.995 117.881 131.091 117.843 131.178 117.783C131.255 117.73 131.417 117.598 131.446 117.362C131.457 117.276 131.461 117.06 131.464 116.804C131.468 116.529 131.47 116.158 131.471 115.726C131.473 114.862 131.472 113.749 131.469 112.648C131.466 111.548 131.461 110.46 131.457 109.647C131.455 109.266 131.454 108.945 131.452 108.712ZM137 100.05C137 104.468 133.418 108.05 129 108.05C124.582 108.05 121 104.468 121 100.05C121 95.6315 124.582 92.0498 129 92.0498C133.418 92.0498 137 95.6315 137 100.05ZM130.453 108.933C129.98 109.01 129.495 109.05 129 109.05C128.478 109.05 127.966 109.005 127.469 108.92C127.472 109.165 127.476 109.47 127.478 109.815C127.484 110.648 127.487 111.724 127.487 112.8C127.487 113.876 127.484 114.952 127.478 115.785C127.475 116.201 127.471 116.558 127.466 116.824C127.465 116.887 127.464 116.949 127.463 117.006C127.506 117.014 127.557 117.022 127.614 117.029C127.952 117.075 128.425 117.1 128.912 117.1C129.4 117.1 129.88 117.075 130.232 117.029C130.322 117.017 130.399 117.005 130.461 116.992C130.462 116.933 130.463 116.867 130.464 116.792C130.468 116.521 130.47 116.154 130.471 115.723C130.473 114.862 130.472 113.751 130.469 112.651C130.466 111.552 130.461 110.465 130.457 109.652C130.456 109.378 130.454 109.135 130.453 108.933ZM127.262 116.956C127.26 116.955 127.259 116.954 127.259 116.954L127.262 116.956Z" fill="#093373"/>
<path d="M132 100.05C132 101.707 130.657 103.05 129 103.05C127.343 103.05 126 101.707 126 100.05C126 98.393 127.343 97.0498 129 97.0498C130.657 97.0498 132 98.393 132 100.05Z" fill="#093373"/>
<path fill-rule="evenodd" clip-rule="evenodd" d="M180.93 67.4183C179.478 64.8125 176.695 63.0498 173.5 63.0498C168.806 63.0498 165 66.8554 165 71.5498C165 74.8958 166.933 77.7902 169.744 79.1769C167.987 82.7601 167 86.7897 167 91.0498C167 105.961 179.088 118.05 194 118.05C208.912 118.05 221 105.961 221 91.0498C221 86.6154 219.931 82.4306 218.037 78.7392C220.418 77.2332 222 74.5762 222 71.5498C222 66.8554 218.194 63.0498 213.5 63.0498C210.474 63.0498 207.817 64.6314 206.311 67.0132C202.619 65.1188 198.434 64.0498 194 64.0498C189.259 64.0498 184.803 65.272 180.93 67.4183ZM171.081 78.7216L170.642 79.6172C168.95 83.0664 168 86.9457 168 91.0498C168 105.409 179.641 117.05 194 117.05C208.359 117.05 220 105.409 220 91.0498C220 86.7778 218.97 82.7492 217.147 79.1958L216.73 78.3826L217.502 77.894C219.606 76.5635 221 74.2191 221 71.5498C221 67.4077 217.642 64.0498 213.5 64.0498C210.831 64.0498 208.486 65.4435 207.156 67.5477L206.667 68.3202L205.854 67.9029C202.301 66.0793 198.272 65.0498 194 65.0498C189.433 65.0498 185.143 66.2267 181.415 68.293L180.542 68.7766L180.057 67.9051C178.774 65.6032 176.318 64.0498 173.5 64.0498C169.358 64.0498 166 67.4077 166 71.5498C166 74.5007 167.704 77.0554 170.186 78.2802L171.081 78.7216Z" fill="#093373"/>
<path fill-rule="evenodd" clip-rule="evenodd" d="M196.452 108.712C200.231 107.644 203 104.17 203 100.05C203 95.0792 198.971 91.0498 194 91.0498C189.029 91.0498 185 95.0792 185 100.05C185 104.14 187.728 107.593 191.464 108.688C191.465 108.721 191.466 108.756 191.466 108.794C191.471 109.055 191.475 109.407 191.478 109.822C191.484 110.652 191.487 111.726 191.487 112.8C191.487 113.874 191.484 114.948 191.478 115.777C191.475 116.192 191.471 116.545 191.466 116.806C191.464 116.936 191.462 117.042 191.459 117.121C191.457 117.193 191.455 117.227 191.454 117.235C191.454 117.237 191.454 117.238 191.454 117.238C191.421 117.502 191.574 117.679 191.668 117.756C191.76 117.832 191.863 117.875 191.937 117.902C192.091 117.957 192.285 117.994 192.48 118.02C192.879 118.074 193.4 118.1 193.912 118.1C194.425 118.1 194.952 118.074 195.362 118.021C195.563 117.994 195.76 117.958 195.918 117.906C195.995 117.881 196.091 117.843 196.178 117.783C196.255 117.73 196.417 117.598 196.446 117.362C196.457 117.276 196.461 117.06 196.464 116.804C196.468 116.529 196.47 116.158 196.471 115.726C196.473 114.862 196.472 113.749 196.469 112.648C196.466 111.548 196.461 110.46 196.457 109.647C196.455 109.266 196.454 108.945 196.452 108.712ZM202 100.05C202 104.468 198.418 108.05 194 108.05C189.582 108.05 186 104.468 186 100.05C186 95.6315 189.582 92.0498 194 92.0498C198.418 92.0498 202 95.6315 202 100.05ZM195.453 108.933C194.98 109.01 194.495 109.05 194 109.05C193.478 109.05 192.966 109.005 192.469 108.92C192.472 109.165 192.476 109.47 192.478 109.815C192.484 110.648 192.487 111.724 192.487 112.8C192.487 113.876 192.484 114.952 192.478 115.785C192.475 116.201 192.471 116.558 192.466 116.824C192.465 116.887 192.464 116.949 192.463 117.006C192.506 117.014 192.557 117.022 192.614 117.029C192.952 117.075 193.425 117.1 193.912 117.1C194.4 117.1 194.88 117.075 195.232 117.029C195.322 117.017 195.399 117.005 195.461 116.992C195.462 116.933 195.463 116.867 195.464 116.792C195.468 116.521 195.47 116.154 195.471 115.723C195.473 114.862 195.472 113.751 195.469 112.651C195.466 111.552 195.461 110.465 195.457 109.652C195.456 109.378 195.454 109.135 195.453 108.933ZM192.262 116.956C192.26 116.955 192.259 116.954 192.259 116.954L192.262 116.956Z" fill="#093373"/>
<path d="M197 100.05C197 101.707 195.657 103.05 194 103.05C192.343 103.05 191 101.707 191 100.05C191 98.393 192.343 97.0498 194 97.0498C195.657 97.0498 197 98.393 197 100.05Z" fill="#093373"/>
<path fill-rule="evenodd" clip-rule="evenodd" d="M245.93 67.4183C244.478 64.8125 241.695 63.0498 238.5 63.0498C233.806 63.0498 230 66.8554 230 71.5498C230 74.8958 231.933 77.7902 234.744 79.1769C232.987 82.7601 232 86.7897 232 91.0498C232 105.961 244.088 118.05 259 118.05C273.912 118.05 286 105.961 286 91.0498C286 86.6154 284.931 82.4306 283.037 78.7392C285.418 77.2332 287 74.5762 287 71.5498C287 66.8554 283.194 63.0498 278.5 63.0498C275.474 63.0498 272.817 64.6314 271.311 67.0132C267.619 65.1188 263.434 64.0498 259 64.0498C254.259 64.0498 249.803 65.272 245.93 67.4183ZM236.081 78.7216L235.642 79.6172C233.95 83.0664 233 86.9457 233 91.0498C233 105.409 244.641 117.05 259 117.05C273.359 117.05 285 105.409 285 91.0498C285 86.7778 283.97 82.7492 282.147 79.1958L281.73 78.3826L282.502 77.894C284.606 76.5635 286 74.2191 286 71.5498C286 67.4077 282.642 64.0498 278.5 64.0498C275.831 64.0498 273.486 65.4435 272.156 67.5477L271.667 68.3202L270.854 67.9029C267.301 66.0793 263.272 65.0498 259 65.0498C254.433 65.0498 250.143 66.2267 246.415 68.293L245.542 68.7766L245.057 67.9051C243.774 65.6032 241.318 64.0498 238.5 64.0498C234.358 64.0498 231 67.4077 231 71.5498C231 74.5007 232.704 77.0554 235.186 78.2802L236.081 78.7216Z" fill="#093373"/>
<path fill-rule="evenodd" clip-rule="evenodd" d="M261.452 108.712C265.231 107.644 268 104.17 268 100.05C268 95.0792 263.971 91.0498 259 91.0498C254.029 91.0498 250 95.0792 250 100.05C250 104.14 252.728 107.593 256.464 108.688C256.465 108.721 256.466 108.756 256.466 108.794C256.471 109.055 256.475 109.407 256.478 109.822C256.484 110.652 256.487 111.726 256.487 112.8C256.487 113.874 256.484 114.948 256.478 115.777C256.475 116.192 256.471 116.545 256.466 116.806C256.464 116.936 256.462 117.042 256.459 117.121C256.457 117.193 256.455 117.227 256.454 117.235C256.454 117.237 256.454 117.238 256.454 117.238C256.421 117.502 256.574 117.679 256.668 117.756C256.76 117.832 256.863 117.875 256.937 117.902C257.091 117.957 257.285 117.994 257.48 118.02C257.879 118.074 258.4 118.1 258.912 118.1C259.425 118.1 259.952 118.074 260.362 118.021C260.563 117.994 260.76 117.958 260.918 117.906C260.995 117.881 261.091 117.843 261.178 117.783C261.255 117.73 261.417 117.598 261.446 117.362C261.457 117.276 261.461 117.06 261.464 116.804C261.468 116.529 261.47 116.158 261.471 115.726C261.473 114.862 261.472 113.749 261.469 112.648C261.466 111.548 261.461 110.46 261.457 109.647C261.455 109.266 261.454 108.945 261.452 108.712ZM267 100.05C267 104.468 263.418 108.05 259 108.05C254.582 108.05 251 104.468 251 100.05C251 95.6315 254.582 92.0498 259 92.0498C263.418 92.0498 267 95.6315 267 100.05ZM260.453 108.933C259.98 109.01 259.495 109.05 259 109.05C258.478 109.05 257.966 109.005 257.469 108.92C257.472 109.165 257.475 109.47 257.478 109.815C257.484 110.648 257.487 111.724 257.487 112.8C257.487 113.876 257.484 114.952 257.478 115.785C257.475 116.201 257.471 116.558 257.466 116.824C257.465 116.887 257.464 116.949 257.463 117.006C257.506 117.014 257.557 117.022 257.614 117.029C257.952 117.075 258.425 117.1 258.912 117.1C259.4 117.1 259.88 117.075 260.232 117.029C260.322 117.017 260.399 117.005 260.461 116.992C260.462 116.933 260.463 116.867 260.464 116.792C260.468 116.521 260.47 116.154 260.471 115.723C260.473 114.862 260.472 113.751 260.469 112.651C260.466 111.552 260.461 110.465 260.457 109.652C260.456 109.378 260.454 109.135 260.453 108.933ZM257.262 116.956C257.26 116.955 257.259 116.954 257.259 116.954L257.262 116.956Z" fill="#093373"/>
<path d="M262 100.05C262 101.707 260.657 103.05 259 103.05C257.343 103.05 256 101.707 256 100.05C256 98.393 257.343 97.0498 259 97.0498C260.657 97.0498 262 98.393 262 100.05Z" fill="#093373"/>
<path fill-rule="evenodd" clip-rule="evenodd" d="M310.93 67.4183C309.478 64.8125 306.695 63.0498 303.5 63.0498C298.806 63.0498 295 66.8554 295 71.5498C295 74.8958 296.933 77.7902 299.744 79.1769C297.987 82.7601 297 86.7897 297 91.0498C297 105.961 309.088 118.05 324 118.05C338.912 118.05 351 105.961 351 91.0498C351 86.6154 349.931 82.4306 348.037 78.7392C350.418 77.2332 352 74.5762 352 71.5498C352 66.8554 348.194 63.0498 343.5 63.0498C340.474 63.0498 337.817 64.6314 336.311 67.0132C332.619 65.1188 328.434 64.0498 324 64.0498C319.259 64.0498 314.803 65.272 310.93 67.4183ZM301.081 78.7216L300.642 79.6172C298.95 83.0664 298 86.9457 298 91.0498C298 105.409 309.641 117.05 324 117.05C338.359 117.05 350 105.409 350 91.0498C350 86.7778 348.97 82.7492 347.147 79.1958L346.73 78.3826L347.502 77.894C349.606 76.5635 351 74.2191 351 71.5498C351 67.4077 347.642 64.0498 343.5 64.0498C340.831 64.0498 338.486 65.4435 337.156 67.5477L336.667 68.3202L335.854 67.9029C332.301 66.0793 328.272 65.0498 324 65.0498C319.433 65.0498 315.143 66.2267 311.415 68.293L310.542 68.7766L310.057 67.9051C308.774 65.6032 306.318 64.0498 303.5 64.0498C299.358 64.0498 296 67.4077 296 71.5498C296 74.5007 297.704 77.0554 300.186 78.2802L301.081 78.7216Z" fill="#093373"/>
<path fill-rule="evenodd" clip-rule="evenodd" d="M326.452 108.712C330.231 107.644 333 104.17 333 100.05C333 95.0792 328.971 91.0498 324 91.0498C319.029 91.0498 315 95.0792 315 100.05C315 104.14 317.728 107.593 321.464 108.688C321.465 108.721 321.466 108.756 321.466 108.794C321.471 109.055 321.475 109.407 321.478 109.822C321.484 110.652 321.487 111.726 321.487 112.8C321.487 113.874 321.484 114.948 321.478 115.777C321.475 116.192 321.471 116.545 321.466 116.806C321.464 116.936 321.462 117.042 321.459 117.121C321.457 117.193 321.455 117.227 321.454 117.235C321.454 117.237 321.454 117.238 321.454 117.238C321.421 117.502 321.574 117.679 321.668 117.756C321.76 117.832 321.863 117.875 321.937 117.902C322.091 117.957 322.285 117.994 322.48 118.02C322.879 118.074 323.4 118.1 323.912 118.1C324.425 118.1 324.952 118.074 325.362 118.021C325.563 117.994 325.76 117.958 325.918 117.906C325.995 117.881 326.091 117.843 326.178 117.783C326.255 117.73 326.417 117.598 326.446 117.362C326.457 117.276 326.461 117.06 326.464 116.804C326.468 116.529 326.47 116.158 326.471 115.726C326.473 114.862 326.472 113.749 326.469 112.648C326.466 111.548 326.461 110.46 326.457 109.647C326.455 109.266 326.454 108.945 326.452 108.712ZM332 100.05C332 104.468 328.418 108.05 324 108.05C319.582 108.05 316 104.468 316 100.05C316 95.6315 319.582 92.0498 324 92.0498C328.418 92.0498 332 95.6315 332 100.05ZM325.453 108.933C324.98 109.01 324.495 109.05 324 109.05C323.478 109.05 322.966 109.005 322.469 108.92C322.472 109.165 322.475 109.47 322.478 109.815C322.484 110.648 322.487 111.724 322.487 112.8C322.487 113.876 322.484 114.952 322.478 115.785C322.475 116.201 322.471 116.558 322.466 116.824C322.465 116.887 322.464 116.949 322.463 117.006C322.506 117.014 322.557 117.022 322.614 117.029C322.952 117.075 323.425 117.1 323.912 117.1C324.4 117.1 324.88 117.075 325.232 117.029C325.322 117.017 325.399 117.005 325.461 116.992C325.462 116.933 325.463 116.867 325.464 116.792C325.468 116.521 325.47 116.154 325.471 115.723C325.473 114.862 325.472 113.751 325.469 112.651C325.466 111.552 325.461 110.465 325.457 109.652C325.456 109.378 325.454 109.135 325.453 108.933ZM322.262 116.956C322.26 116.955 322.259 116.954 322.259 116.954L322.262 116.956Z" fill="#093373"/>
<path d="M327 100.05C327 101.707 325.657 103.05 324 103.05C322.343 103.05 321 101.707 321 100.05C321 98.393 322.343 97.0498 324 97.0498C325.657 97.0498 327 98.393 327 100.05Z" fill="#093373"/>
<path fill-rule="evenodd" clip-rule="evenodd" d="M375.93 67.4183C374.478 64.8125 371.695 63.0498 368.5 63.0498C363.806 63.0498 360 66.8554 360 71.5498C360 74.8958 361.933 77.7902 364.744 79.1769C362.987 82.7601 362 86.7897 362 91.0498C362 105.961 374.088 118.05 389 118.05C403.912 118.05 416 105.961 416 91.0498C416 86.6154 414.931 82.4306 413.037 78.7392C415.418 77.2332 417 74.5762 417 71.5498C417 66.8554 413.194 63.0498 408.5 63.0498C405.474 63.0498 402.817 64.6314 401.311 67.0132C397.619 65.1188 393.434 64.0498 389 64.0498C384.259 64.0498 379.803 65.272 375.93 67.4183ZM366.081 78.7216L365.642 79.6172C363.95 83.0664 363 86.9457 363 91.0498C363 105.409 374.641 117.05 389 117.05C403.359 117.05 415 105.409 415 91.0498C415 86.7778 413.97 82.7492 412.147 79.1958L411.73 78.3826L412.502 77.894C414.606 76.5635 416 74.2191 416 71.5498C416 67.4077 412.642 64.0498 408.5 64.0498C405.831 64.0498 403.486 65.4435 402.156 67.5477L401.667 68.3202L400.854 67.9029C397.301 66.0793 393.272 65.0498 389 65.0498C384.433 65.0498 380.143 66.2267 376.415 68.293L375.542 68.7766L375.057 67.9051C373.774 65.6032 371.318 64.0498 368.5 64.0498C364.358 64.0498 361 67.4077 361 71.5498C361 74.5007 362.704 77.0554 365.186 78.2802L366.081 78.7216Z" fill="#093373"/>
<path fill-rule="evenodd" clip-rule="evenodd" d="M391.452 108.712C395.231 107.644 398 104.17 398 100.05C398 95.0792 393.971 91.0498 389 91.0498C384.029 91.0498 380 95.0792 380 100.05C380 104.14 382.728 107.593 386.464 108.688C386.465 108.721 386.466 108.756 386.466 108.794C386.471 109.055 386.475 109.407 386.478 109.822C386.484 110.652 386.487 111.726 386.487 112.8C386.487 113.874 386.484 114.948 386.478 115.777C386.475 116.192 386.471 116.545 386.466 116.806C386.464 116.936 386.462 117.042 386.459 117.121C386.457 117.193 386.455 117.227 386.454 117.235C386.454 117.237 386.454 117.238 386.454 117.238C386.421 117.502 386.574 117.679 386.668 117.756C386.76 117.832 386.863 117.875 386.937 117.902C387.091 117.957 387.285 117.994 387.48 118.02C387.879 118.074 388.4 118.1 388.912 118.1C389.425 118.1 389.952 118.074 390.362 118.021C390.563 117.994 390.76 117.958 390.918 117.906C390.995 117.881 391.091 117.843 391.178 117.783C391.255 117.73 391.417 117.598 391.446 117.362C391.457 117.276 391.461 117.06 391.464 116.804C391.468 116.529 391.47 116.158 391.471 115.726C391.473 114.862 391.472 113.749 391.469 112.648C391.466 111.548 391.461 110.46 391.457 109.647C391.455 109.266 391.454 108.945 391.452 108.712ZM397 100.05C397 104.468 393.418 108.05 389 108.05C384.582 108.05 381 104.468 381 100.05C381 95.6315 384.582 92.0498 389 92.0498C393.418 92.0498 397 95.6315 397 100.05ZM390.453 108.933C389.98 109.01 389.495 109.05 389 109.05C388.478 109.05 387.966 109.005 387.469 108.92C387.472 109.165 387.475 109.47 387.478 109.815C387.484 110.648 387.487 111.724 387.487 112.8C387.487 113.876 387.484 114.952 387.478 115.785C387.475 116.201 387.471 116.558 387.466 116.824C387.465 116.887 387.464 116.949 387.463 117.006C387.506 117.014 387.557 117.022 387.614 117.029C387.952 117.075 388.425 117.1 388.912 117.1C389.4 117.1 389.88 117.075 390.232 117.029C390.322 117.017 390.399 117.005 390.461 116.992C390.462 116.933 390.463 116.867 390.464 116.792C390.468 116.521 390.47 116.154 390.471 115.723C390.473 114.862 390.472 113.751 390.469 112.651C390.466 111.552 390.461 110.465 390.457 109.652C390.456 109.378 390.454 109.135 390.453 108.933ZM387.262 116.956C387.26 116.955 387.259 116.954 387.259 116.954L387.262 116.956Z" fill="#093373"/>
<path d="M392 100.05C392 101.707 390.657 103.05 389 103.05C387.343 103.05 386 101.707 386 100.05C386 98.393 387.343 97.0498 389 97.0498C390.657 97.0498 392 98.393 392 100.05Z" fill="#093373"/>
<path fill-rule="evenodd" clip-rule="evenodd" d="M440.93 67.4183C439.478 64.8125 436.695 63.0498 433.5 63.0498C428.806 63.0498 425 66.8554 425 71.5498C425 74.8958 426.933 77.7902 429.744 79.1769C427.987 82.7601 427 86.7897 427 91.0498C427 105.961 439.088 118.05 454 118.05C468.912 118.05 481 105.961 481 91.0498C481 86.6154 479.931 82.4306 478.037 78.7392C480.418 77.2332 482 74.5762 482 71.5498C482 66.8554 478.194 63.0498 473.5 63.0498C470.474 63.0498 467.817 64.6314 466.311 67.0132C462.619 65.1188 458.434 64.0498 454 64.0498C449.259 64.0498 444.803 65.272 440.93 67.4183ZM431.081 78.7216L430.642 79.6172C428.95 83.0664 428 86.9457 428 91.0498C428 105.409 439.641 117.05 454 117.05C468.359 117.05 480 105.409 480 91.0498C480 86.7778 478.97 82.7492 477.147 79.1958L476.73 78.3826L477.502 77.894C479.606 76.5635 481 74.2191 481 71.5498C481 67.4077 477.642 64.0498 473.5 64.0498C470.831 64.0498 468.486 65.4435 467.156 67.5477L466.667 68.3202L465.854 67.9029C462.301 66.0793 458.272 65.0498 454 65.0498C449.433 65.0498 445.143 66.2267 441.415 68.293L440.542 68.7766L440.057 67.9051C438.774 65.6032 436.318 64.0498 433.5 64.0498C429.358 64.0498 426 67.4077 426 71.5498C426 74.5007 427.704 77.0554 430.186 78.2802L431.081 78.7216Z" fill="#093373"/>
<path fill-rule="evenodd" clip-rule="evenodd" d="M456.452 108.712C460.231 107.644 463 104.17 463 100.05C463 95.0792 458.971 91.0498 454 91.0498C449.029 91.0498 445 95.0792 445 100.05C445 104.14 447.728 107.593 451.464 108.688C451.465 108.721 451.466 108.756 451.466 108.794C451.471 109.055 451.475 109.407 451.478 109.822C451.484 110.652 451.487 111.726 451.487 112.8C451.487 113.874 451.484 114.948 451.478 115.777C451.475 116.192 451.471 116.545 451.466 116.806C451.464 116.936 451.462 117.042 451.459 117.121C451.457 117.193 451.455 117.227 451.454 117.235C451.454 117.237 451.454 117.238 451.454 117.238C451.421 117.502 451.574 117.679 451.668 117.756C451.76 117.832 451.863 117.875 451.937 117.902C452.091 117.957 452.285 117.994 452.48 118.02C452.879 118.074 453.4 118.1 453.912 118.1C454.425 118.1 454.952 118.074 455.362 118.021C455.563 117.994 455.76 117.958 455.918 117.906C455.995 117.881 456.091 117.843 456.178 117.783C456.255 117.73 456.417 117.598 456.446 117.362C456.457 117.276 456.461 117.06 456.464 116.804C456.468 116.529 456.47 116.158 456.471 115.726C456.473 114.862 456.472 113.749 456.469 112.648C456.466 111.548 456.461 110.46 456.457 109.647C456.455 109.266 456.454 108.945 456.452 108.712ZM462 100.05C462 104.468 458.418 108.05 454 108.05C449.582 108.05 446 104.468 446 100.05C446 95.6315 449.582 92.0498 454 92.0498C458.418 92.0498 462 95.6315 462 100.05ZM455.453 108.933C454.98 109.01 454.495 109.05 454 109.05C453.478 109.05 452.966 109.005 452.469 108.92C452.472 109.165 452.475 109.47 452.478 109.815C452.484 110.648 452.487 111.724 452.487 112.8C452.487 113.876 452.484 114.952 452.478 115.785C452.475 116.201 452.471 116.558 452.466 116.824C452.465 116.887 452.464 116.949 452.463 117.006C452.506 117.014 452.557 117.022 452.614 117.029C452.952 117.075 453.425 117.1 453.912 117.1C454.4 117.1 454.88 117.075 455.232 117.029C455.322 117.017 455.399 117.005 455.461 116.992C455.462 116.933 455.463 116.867 455.464 116.792C455.468 116.521 455.47 116.154 455.471 115.723C455.473 114.862 455.472 113.751 455.469 112.651C455.466 111.552 455.461 110.465 455.457 109.652C455.456 109.378 455.454 109.135 455.453 108.933ZM452.262 116.956C452.26 116.955 452.259 116.954 452.259 116.954L452.262 116.956Z" fill="#093373"/>
<path d="M457 100.05C457 101.707 455.657 103.05 454 103.05C452.343 103.05 451 101.707 451 100.05C451 98.393 452.343 97.0498 454 97.0498C455.657 97.0498 457 98.393 457 100.05Z" fill="#093373"/>
<path fill-rule="evenodd" clip-rule="evenodd" d="M505.93 67.4183C504.478 64.8125 501.695 63.0498 498.5 63.0498C493.806 63.0498 490 66.8554 490 71.5498C490 74.8958 491.933 77.7902 494.744 79.1769C492.987 82.7601 492 86.7897 492 91.0498C492 105.961 504.088 118.05 519 118.05C533.912 118.05 546 105.961 546 91.0498C546 86.6154 544.931 82.4306 543.037 78.7392C545.418 77.2332 547 74.5762 547 71.5498C547 66.8554 543.194 63.0498 538.5 63.0498C535.474 63.0498 532.817 64.6314 531.311 67.0132C527.619 65.1188 523.434 64.0498 519 64.0498C514.259 64.0498 509.803 65.272 505.93 67.4183ZM496.081 78.7216L495.642 79.6172C493.95 83.0664 493 86.9457 493 91.0498C493 105.409 504.641 117.05 519 117.05C533.359 117.05 545 105.409 545 91.0498C545 86.7778 543.97 82.7492 542.147 79.1958L541.73 78.3826L542.502 77.894C544.606 76.5635 546 74.2191 546 71.5498C546 67.4077 542.642 64.0498 538.5 64.0498C535.831 64.0498 533.486 65.4435 532.156 67.5477L531.667 68.3202L530.854 67.9029C527.301 66.0793 523.272 65.0498 519 65.0498C514.433 65.0498 510.143 66.2267 506.415 68.293L505.542 68.7766L505.057 67.9051C503.774 65.6032 501.318 64.0498 498.5 64.0498C494.358 64.0498 491 67.4077 491 71.5498C491 74.5007 492.704 77.0554 495.186 78.2802L496.081 78.7216Z" fill="#093373"/>
<path fill-rule="evenodd" clip-rule="evenodd" d="M521.452 108.712C525.231 107.644 528 104.17 528 100.05C528 95.0792 523.971 91.0498 519 91.0498C514.029 91.0498 510 95.0792 510 100.05C510 104.14 512.728 107.593 516.464 108.688C516.465 108.721 516.466 108.756 516.466 108.794C516.471 109.055 516.475 109.407 516.478 109.822C516.484 110.652 516.487 111.726 516.487 112.8C516.487 113.874 516.484 114.948 516.478 115.777C516.475 116.192 516.471 116.545 516.466 116.806C516.464 116.936 516.462 117.042 516.459 117.121C516.457 117.193 516.455 117.227 516.454 117.235C516.454 117.237 516.454 117.238 516.454 117.238C516.421 117.502 516.574 117.679 516.668 117.756C516.76 117.832 516.863 117.875 516.937 117.902C517.091 117.957 517.285 117.994 517.48 118.02C517.879 118.074 518.4 118.1 518.912 118.1C519.425 118.1 519.952 118.074 520.362 118.021C520.563 117.994 520.76 117.958 520.918 117.906C520.995 117.881 521.091 117.843 521.178 117.783C521.255 117.73 521.417 117.598 521.446 117.362C521.457 117.276 521.461 117.06 521.464 116.804C521.468 116.529 521.47 116.158 521.471 115.726C521.473 114.862 521.472 113.749 521.469 112.648C521.466 111.548 521.461 110.46 521.457 109.647C521.455 109.266 521.453 108.945 521.452 108.712ZM527 100.05C527 104.468 523.418 108.05 519 108.05C514.582 108.05 511 104.468 511 100.05C511 95.6315 514.582 92.0498 519 92.0498C523.418 92.0498 527 95.6315 527 100.05ZM520.453 108.933C519.98 109.01 519.495 109.05 519 109.05C518.478 109.05 517.966 109.005 517.469 108.92C517.472 109.165 517.475 109.47 517.478 109.815C517.484 110.648 517.487 111.724 517.487 112.8C517.487 113.876 517.484 114.952 517.478 115.785C517.475 116.201 517.471 116.558 517.466 116.824C517.465 116.887 517.464 116.949 517.463 117.006C517.506 117.014 517.557 117.022 517.614 117.029C517.952 117.075 518.425 117.1 518.912 117.1C519.4 117.1 519.879 117.075 520.232 117.029C520.322 117.017 520.399 117.005 520.461 116.992C520.462 116.933 520.463 116.867 520.464 116.792C520.468 116.521 520.47 116.154 520.471 115.723C520.473 114.862 520.472 113.751 520.469 112.651C520.466 111.552 520.461 110.465 520.457 109.652C520.456 109.378 520.454 109.135 520.453 108.933ZM517.262 116.956C517.26 116.955 517.259 116.954 517.259 116.954L517.262 116.956Z" fill="#093373"/>
<path d="M522 100.05C522 101.707 520.657 103.05 519 103.05C517.343 103.05 516 101.707 516 100.05C516 98.393 517.343 97.0498 519 97.0498C520.657 97.0498 522 98.393 522 100.05Z" fill="#093373"/>
<path fill-rule="evenodd" clip-rule="evenodd" d="M15.9302 130.468C14.4781 127.862 11.6949 126.1 8.5 126.1C3.80558 126.1 0 129.905 0 134.6C0 137.946 1.93331 140.84 4.7438 142.227C2.98661 145.81 2 149.84 2 154.1C2 169.011 14.0883 181.1 29 181.1C43.9117 181.1 56 169.011 56 154.1C56 149.665 54.931 145.48 53.0366 141.789C55.4184 140.283 57 137.626 57 134.6C57 129.905 53.1944 126.1 48.5 126.1C45.4736 126.1 42.8166 127.681 41.3106 130.063C37.6192 128.169 33.4344 127.1 29 127.1C24.2587 127.1 19.8028 128.322 15.9302 130.468ZM6.08088 141.771L5.64164 142.667C3.95018 146.116 3 149.996 3 154.1C3 168.459 14.6406 180.1 29 180.1C43.3594 180.1 55 168.459 55 154.1C55 149.828 53.9705 145.799 52.1469 142.246L51.7296 141.432L52.5021 140.944C54.6063 139.613 56 137.269 56 134.6C56 130.457 52.6421 127.1 48.5 127.1C45.8307 127.1 43.4863 128.493 42.1558 130.597L41.6672 131.37L40.854 130.953C37.3006 129.129 33.272 128.1 29 128.1C24.4326 128.1 20.143 129.276 16.4149 131.343L15.5423 131.826L15.0566 130.955C13.7739 128.653 11.3177 127.1 8.5 127.1C4.35786 127.1 1 130.457 1 134.6C1 137.55 2.70403 140.105 5.18628 141.33L6.08088 141.771Z" fill="#093373"/>
<path fill-rule="evenodd" clip-rule="evenodd" d="M31.4523 171.761C35.231 170.694 38 167.22 38 163.1C38 158.129 33.9706 154.1 29 154.1C24.0294 154.1 20 158.129 20 163.1C20 167.19 22.7284 170.643 26.4644 171.738C26.4651 171.771 26.4658 171.806 26.4665 171.844C26.4711 172.104 26.475 172.457 26.4781 172.872C26.4844 173.702 26.4875 174.775 26.4875 175.85C26.4875 176.924 26.4844 177.997 26.4781 178.827C26.475 179.242 26.4711 179.595 26.4665 179.856C26.4642 179.986 26.4617 180.092 26.4591 180.17C26.4567 180.242 26.4545 180.276 26.454 180.285C26.4538 180.287 26.4538 180.288 26.4538 180.288C26.4208 180.552 26.5744 180.729 26.6683 180.806C26.7601 180.882 26.8634 180.925 26.9368 180.952C27.0914 181.007 27.2851 181.044 27.4797 181.07C27.8789 181.124 28.4001 181.15 28.9125 181.15C29.4253 181.15 29.9517 181.124 30.3619 181.07C30.5633 181.044 30.7596 181.008 30.9179 180.956C30.9948 180.931 31.0906 180.893 31.1783 180.833C31.2553 180.78 31.4166 180.648 31.4461 180.412C31.4568 180.326 31.4611 180.11 31.4643 179.854C31.4678 179.578 31.4699 179.208 31.4711 178.776C31.4734 177.912 31.4719 176.798 31.4687 175.698C31.4656 174.598 31.4609 173.51 31.457 172.697C31.4552 172.316 31.4535 171.995 31.4523 171.761ZM37 163.1C37 167.518 33.4183 171.1 29 171.1C24.5817 171.1 21 167.518 21 163.1C21 158.681 24.5817 155.1 29 155.1C33.4183 155.1 37 158.681 37 163.1ZM30.4534 171.983C29.9803 172.06 29.4948 172.1 29 172.1C28.478 172.1 27.9663 172.055 27.4687 171.97C27.4724 172.215 27.4755 172.519 27.4781 172.865C27.4844 173.698 27.4875 174.774 27.4875 175.85C27.4875 176.925 27.4844 178.002 27.4781 178.835C27.475 179.251 27.471 179.608 27.4663 179.873C27.4652 179.937 27.464 179.998 27.4627 180.055C27.5065 180.063 27.5569 180.071 27.614 180.079C27.9524 180.125 28.4248 180.15 28.9125 180.15C29.3997 180.15 29.8795 180.125 30.2318 180.079C30.3224 180.067 30.3988 180.054 30.4613 180.042C30.4624 179.983 30.4635 179.916 30.4644 179.842C30.4678 179.571 30.4699 179.204 30.4711 178.773C30.4734 177.912 30.4719 176.801 30.4687 175.701C30.4656 174.601 30.4609 173.514 30.457 172.702C30.4557 172.428 30.4545 172.184 30.4534 171.983ZM27.262 180.006C27.2602 180.005 27.2593 180.004 27.2593 180.004L27.262 180.006Z" fill="#093373"/>
<path d="M32 163.1C32 164.756 30.6569 166.1 29 166.1C27.3431 166.1 26 164.756 26 163.1C26 161.443 27.3431 160.1 29 160.1C30.6569 160.1 32 161.443 32 163.1Z" fill="#093373"/>
<path fill-rule="evenodd" clip-rule="evenodd" d="M80.9302 130.468C79.4781 127.862 76.6949 126.1 73.5 126.1C68.8056 126.1 65 129.905 65 134.6C65 137.946 66.9333 140.84 69.7438 142.227C67.9866 145.81 67 149.84 67 154.1C67 169.011 79.0883 181.1 94 181.1C108.912 181.1 121 169.011 121 154.1C121 149.665 119.931 145.48 118.037 141.789C120.418 140.283 122 137.626 122 134.6C122 129.905 118.194 126.1 113.5 126.1C110.474 126.1 107.817 127.681 106.311 130.063C102.619 128.169 98.4344 127.1 94 127.1C89.2587 127.1 84.8028 128.322 80.9302 130.468ZM71.0809 141.771L70.6416 142.667C68.9502 146.116 68 149.996 68 154.1C68 168.459 79.6406 180.1 94 180.1C108.359 180.1 120 168.459 120 154.1C120 149.828 118.97 145.799 117.147 142.246L116.73 141.432L117.502 140.944C119.606 139.613 121 137.269 121 134.6C121 130.457 117.642 127.1 113.5 127.1C110.831 127.1 108.486 128.493 107.156 130.597L106.667 131.37L105.854 130.953C102.301 129.129 98.272 128.1 94 128.1C89.4326 128.1 85.143 129.276 81.4149 131.343L80.5423 131.826L80.0566 130.955C78.7739 128.653 76.3177 127.1 73.5 127.1C69.3579 127.1 66 130.457 66 134.6C66 137.55 67.704 140.105 70.1863 141.33L71.0809 141.771Z" fill="#093373"/>
<path fill-rule="evenodd" clip-rule="evenodd" d="M96.4523 171.761C100.231 170.694 103 167.22 103 163.1C103 158.129 98.9706 154.1 94 154.1C89.0294 154.1 85 158.129 85 163.1C85 167.19 87.7284 170.643 91.4644 171.738C91.4651 171.771 91.4658 171.806 91.4665 171.844C91.4711 172.104 91.475 172.457 91.4781 172.872C91.4844 173.702 91.4875 174.775 91.4875 175.85C91.4875 176.924 91.4844 177.997 91.4781 178.827C91.475 179.242 91.4711 179.595 91.4665 179.856C91.4641 179.986 91.4617 180.092 91.4591 180.17C91.4566 180.242 91.4545 180.276 91.454 180.285C91.4538 180.287 91.4538 180.288 91.4538 180.288C91.4208 180.552 91.5744 180.729 91.6683 180.806C91.7602 180.882 91.8634 180.925 91.9368 180.952C92.0914 181.007 92.2851 181.044 92.4797 181.07C92.8789 181.124 93.4001 181.15 93.9125 181.15C94.4253 181.15 94.9517 181.124 95.3619 181.07C95.5633 181.044 95.7596 181.008 95.9179 180.956C95.9948 180.931 96.0906 180.893 96.1783 180.833C96.2553 180.78 96.4166 180.648 96.4461 180.412C96.4568 180.326 96.4611 180.11 96.4643 179.854C96.4678 179.578 96.4699 179.208 96.4711 178.776C96.4734 177.912 96.4719 176.798 96.4687 175.698C96.4656 174.598 96.4609 173.51 96.457 172.697C96.4552 172.316 96.4535 171.995 96.4523 171.761ZM102 163.1C102 167.518 98.4183 171.1 94 171.1C89.5817 171.1 86 167.518 86 163.1C86 158.681 89.5817 155.1 94 155.1C98.4183 155.1 102 158.681 102 163.1ZM95.4534 171.983C94.9803 172.06 94.4948 172.1 94 172.1C93.478 172.1 92.9664 172.055 92.4687 171.97C92.4724 172.215 92.4755 172.519 92.4781 172.865C92.4844 173.698 92.4875 174.774 92.4875 175.85C92.4875 176.925 92.4844 178.002 92.4781 178.835C92.475 179.251 92.471 179.608 92.4663 179.873C92.4652 179.937 92.464 179.998 92.4626 180.055C92.5065 180.063 92.5568 180.071 92.614 180.079C92.9524 180.125 93.4248 180.15 93.9125 180.15C94.3997 180.15 94.8795 180.125 95.2318 180.079C95.3224 180.067 95.3988 180.054 95.4613 180.042C95.4624 179.983 95.4635 179.916 95.4644 179.842C95.4678 179.571 95.4699 179.204 95.4711 178.773C95.4734 177.912 95.4719 176.801 95.4687 175.701C95.4656 174.601 95.4609 173.514 95.457 172.702C95.4557 172.428 95.4545 172.184 95.4534 171.983ZM92.262 180.006C92.2602 180.005 92.2593 180.004 92.2593 180.004L92.262 180.006Z" fill="#093373"/>
<path d="M97 163.1C97 164.756 95.6569 166.1 94 166.1C92.3431 166.1 91 164.756 91 163.1C91 161.443 92.3431 160.1 94 160.1C95.6569 160.1 97 161.443 97 163.1Z" fill="#093373"/>
<path fill-rule="evenodd" clip-rule="evenodd" d="M145.93 130.468C144.478 127.862 141.695 126.1 138.5 126.1C133.806 126.1 130 129.905 130 134.6C130 137.946 131.933 140.84 134.744 142.227C132.987 145.81 132 149.84 132 154.1C132 169.011 144.088 181.1 159 181.1C173.912 181.1 186 169.011 186 154.1C186 149.665 184.931 145.48 183.037 141.789C185.418 140.283 187 137.626 187 134.6C187 129.905 183.194 126.1 178.5 126.1C175.474 126.1 172.817 127.681 171.311 130.063C167.619 128.169 163.434 127.1 159 127.1C154.259 127.1 149.803 128.322 145.93 130.468ZM136.081 141.771L135.642 142.667C133.95 146.116 133 149.996 133 154.1C133 168.459 144.641 180.1 159 180.1C173.359 180.1 185 168.459 185 154.1C185 149.828 183.97 145.799 182.147 142.246L181.73 141.432L182.502 140.944C184.606 139.613 186 137.269 186 134.6C186 130.457 182.642 127.1 178.5 127.1C175.831 127.1 173.486 128.493 172.156 130.597L171.667 131.37L170.854 130.953C167.301 129.129 163.272 128.1 159 128.1C154.433 128.1 150.143 129.276 146.415 131.343L145.542 131.826L145.057 130.955C143.774 128.653 141.318 127.1 138.5 127.1C134.358 127.1 131 130.457 131 134.6C131 137.55 132.704 140.105 135.186 141.33L136.081 141.771Z" fill="#093373"/>
<path fill-rule="evenodd" clip-rule="evenodd" d="M161.452 171.761C165.231 170.694 168 167.22 168 163.1C168 158.129 163.971 154.1 159 154.1C154.029 154.1 150 158.129 150 163.1C150 167.19 152.728 170.643 156.464 171.738C156.465 171.771 156.466 171.806 156.466 171.844C156.471 172.104 156.475 172.457 156.478 172.872C156.484 173.702 156.487 174.775 156.487 175.85C156.487 176.924 156.484 177.997 156.478 178.827C156.475 179.242 156.471 179.595 156.466 179.856C156.464 179.986 156.462 180.092 156.459 180.17C156.457 180.242 156.455 180.276 156.454 180.285C156.454 180.287 156.454 180.288 156.454 180.288C156.421 180.552 156.574 180.729 156.668 180.806C156.76 180.882 156.863 180.925 156.937 180.952C157.091 181.007 157.285 181.044 157.48 181.07C157.879 181.124 158.4 181.15 158.912 181.15C159.425 181.15 159.952 181.124 160.362 181.07C160.563 181.044 160.76 181.008 160.918 180.956C160.995 180.931 161.091 180.893 161.178 180.833C161.255 180.78 161.417 180.648 161.446 180.412C161.457 180.326 161.461 180.11 161.464 179.854C161.468 179.578 161.47 179.208 161.471 178.776C161.473 177.912 161.472 176.798 161.469 175.698C161.466 174.598 161.461 173.51 161.457 172.697C161.455 172.316 161.454 171.995 161.452 171.761ZM167 163.1C167 167.518 163.418 171.1 159 171.1C154.582 171.1 151 167.518 151 163.1C151 158.681 154.582 155.1 159 155.1C163.418 155.1 167 158.681 167 163.1ZM160.453 171.983C159.98 172.06 159.495 172.1 159 172.1C158.478 172.1 157.966 172.055 157.469 171.97C157.472 172.215 157.476 172.519 157.478 172.865C157.484 173.698 157.487 174.774 157.487 175.85C157.487 176.925 157.484 178.002 157.478 178.835C157.475 179.251 157.471 179.608 157.466 179.873C157.465 179.937 157.464 179.998 157.463 180.055C157.506 180.063 157.557 180.071 157.614 180.079C157.952 180.125 158.425 180.15 158.912 180.15C159.4 180.15 159.88 180.125 160.232 180.079C160.322 180.067 160.399 180.054 160.461 180.042C160.462 179.983 160.463 179.916 160.464 179.842C160.468 179.571 160.47 179.204 160.471 178.773C160.473 177.912 160.472 176.801 160.469 175.701C160.466 174.601 160.461 173.514 160.457 172.702C160.456 172.428 160.454 172.184 160.453 171.983ZM157.262 180.006C157.26 180.005 157.259 180.004 157.259 180.004L157.262 180.006Z" fill="#093373"/>
<path d="M162 163.1C162 164.756 160.657 166.1 159 166.1C157.343 166.1 156 164.756 156 163.1C156 161.443 157.343 160.1 159 160.1C160.657 160.1 162 161.443 162 163.1Z" fill="#093373"/>
<path fill-rule="evenodd" clip-rule="evenodd" d="M210.93 130.468C209.478 127.862 206.695 126.1 203.5 126.1C198.806 126.1 195 129.905 195 134.6C195 137.946 196.933 140.84 199.744 142.227C197.987 145.81 197 149.84 197 154.1C197 169.011 209.088 181.1 224 181.1C238.912 181.1 251 169.011 251 154.1C251 149.665 249.931 145.48 248.037 141.789C250.418 140.283 252 137.626 252 134.6C252 129.905 248.194 126.1 243.5 126.1C240.474 126.1 237.817 127.681 236.311 130.063C232.619 128.169 228.434 127.1 224 127.1C219.259 127.1 214.803 128.322 210.93 130.468ZM201.081 141.771L200.642 142.667C198.95 146.116 198 149.996 198 154.1C198 168.459 209.641 180.1 224 180.1C238.359 180.1 250 168.459 250 154.1C250 149.828 248.97 145.799 247.147 142.246L246.73 141.432L247.502 140.944C249.606 139.613 251 137.269 251 134.6C251 130.457 247.642 127.1 243.5 127.1C240.831 127.1 238.486 128.493 237.156 130.597L236.667 131.37L235.854 130.953C232.301 129.129 228.272 128.1 224 128.1C219.433 128.1 215.143 129.276 211.415 131.343L210.542 131.826L210.057 130.955C208.774 128.653 206.318 127.1 203.5 127.1C199.358 127.1 196 130.457 196 134.6C196 137.55 197.704 140.105 200.186 141.33L201.081 141.771Z" fill="#093373"/>
<path fill-rule="evenodd" clip-rule="evenodd" d="M226.452 171.761C230.231 170.694 233 167.22 233 163.1C233 158.129 228.971 154.1 224 154.1C219.029 154.1 215 158.129 215 163.1C215 167.19 217.728 170.643 221.464 171.738C221.465 171.771 221.466 171.806 221.466 171.844C221.471 172.104 221.475 172.457 221.478 172.872C221.484 173.702 221.487 174.775 221.487 175.85C221.487 176.924 221.484 177.997 221.478 178.827C221.475 179.242 221.471 179.595 221.466 179.856C221.464 179.986 221.462 180.092 221.459 180.17C221.457 180.242 221.455 180.276 221.454 180.285C221.454 180.287 221.454 180.288 221.454 180.288C221.421 180.552 221.574 180.729 221.668 180.806C221.76 180.882 221.863 180.925 221.937 180.952C222.091 181.007 222.285 181.044 222.48 181.07C222.879 181.124 223.4 181.15 223.912 181.15C224.425 181.15 224.952 181.124 225.362 181.07C225.563 181.044 225.76 181.008 225.918 180.956C225.995 180.931 226.091 180.893 226.178 180.833C226.255 180.78 226.417 180.648 226.446 180.412C226.457 180.326 226.461 180.11 226.464 179.854C226.468 179.578 226.47 179.208 226.471 178.776C226.473 177.912 226.472 176.798 226.469 175.698C226.466 174.598 226.461 173.51 226.457 172.697C226.455 172.316 226.454 171.995 226.452 171.761ZM232 163.1C232 167.518 228.418 171.1 224 171.1C219.582 171.1 216 167.518 216 163.1C216 158.681 219.582 155.1 224 155.1C228.418 155.1 232 158.681 232 163.1ZM225.453 171.983C224.98 172.06 224.495 172.1 224 172.1C223.478 172.1 222.966 172.055 222.469 171.97C222.472 172.215 222.476 172.519 222.478 172.865C222.484 173.698 222.487 174.774 222.487 175.85C222.487 176.925 222.484 178.002 222.478 178.835C222.475 179.251 222.471 179.608 222.466 179.873C222.465 179.937 222.464 179.998 222.463 180.055C222.506 180.063 222.557 180.071 222.614 180.079C222.952 180.125 223.425 180.15 223.912 180.15C224.4 180.15 224.88 180.125 225.232 180.079C225.322 180.067 225.399 180.054 225.461 180.042C225.462 179.983 225.463 179.916 225.464 179.842C225.468 179.571 225.47 179.204 225.471 178.773C225.473 177.912 225.472 176.801 225.469 175.701C225.466 174.601 225.461 173.514 225.457 172.702C225.456 172.428 225.454 172.184 225.453 171.983ZM222.262 180.006C222.26 180.005 222.259 180.004 222.259 180.004L222.262 180.006Z" fill="#093373"/>
<path d="M227 163.1C227 164.756 225.657 166.1 224 166.1C222.343 166.1 221 164.756 221 163.1C221 161.443 222.343 160.1 224 160.1C225.657 160.1 227 161.443 227 163.1Z" fill="#093373"/>
<path fill-rule="evenodd" clip-rule="evenodd" d="M275.93 130.468C274.478 127.862 271.695 126.1 268.5 126.1C263.806 126.1 260 129.905 260 134.6C260 137.946 261.933 140.84 264.744 142.227C262.987 145.81 262 149.84 262 154.1C262 169.011 274.088 181.1 289 181.1C303.912 181.1 316 169.011 316 154.1C316 149.665 314.931 145.48 313.037 141.789C315.418 140.283 317 137.626 317 134.6C317 129.905 313.194 126.1 308.5 126.1C305.474 126.1 302.817 127.681 301.311 130.063C297.619 128.169 293.434 127.1 289 127.1C284.259 127.1 279.803 128.322 275.93 130.468ZM266.081 141.771L265.642 142.667C263.95 146.116 263 149.996 263 154.1C263 168.459 274.641 180.1 289 180.1C303.359 180.1 315 168.459 315 154.1C315 149.828 313.97 145.799 312.147 142.246L311.73 141.432L312.502 140.944C314.606 139.613 316 137.269 316 134.6C316 130.457 312.642 127.1 308.5 127.1C305.831 127.1 303.486 128.493 302.156 130.597L301.667 131.37L300.854 130.953C297.301 129.129 293.272 128.1 289 128.1C284.433 128.1 280.143 129.276 276.415 131.343L275.542 131.826L275.057 130.955C273.774 128.653 271.318 127.1 268.5 127.1C264.358 127.1 261 130.457 261 134.6C261 137.55 262.704 140.105 265.186 141.33L266.081 141.771Z" fill="#093373"/>
<path fill-rule="evenodd" clip-rule="evenodd" d="M291.452 171.761C295.231 170.694 298 167.22 298 163.1C298 158.129 293.971 154.1 289 154.1C284.029 154.1 280 158.129 280 163.1C280 167.19 282.728 170.643 286.464 171.738C286.465 171.771 286.466 171.806 286.466 171.844C286.471 172.104 286.475 172.457 286.478 172.872C286.484 173.702 286.487 174.775 286.487 175.85C286.487 176.924 286.484 177.997 286.478 178.827C286.475 179.242 286.471 179.595 286.466 179.856C286.464 179.986 286.462 180.092 286.459 180.17C286.457 180.242 286.455 180.276 286.454 180.285C286.454 180.287 286.454 180.288 286.454 180.288C286.421 180.552 286.574 180.729 286.668 180.806C286.76 180.882 286.863 180.925 286.937 180.952C287.091 181.007 287.285 181.044 287.48 181.07C287.879 181.124 288.4 181.15 288.912 181.15C289.425 181.15 289.952 181.124 290.362 181.07C290.563 181.044 290.76 181.008 290.918 180.956C290.995 180.931 291.091 180.893 291.178 180.833C291.255 180.78 291.417 180.648 291.446 180.412C291.457 180.326 291.461 180.11 291.464 179.854C291.468 179.578 291.47 179.208 291.471 178.776C291.473 177.912 291.472 176.798 291.469 175.698C291.466 174.598 291.461 173.51 291.457 172.697C291.455 172.316 291.454 171.995 291.452 171.761ZM297 163.1C297 167.518 293.418 171.1 289 171.1C284.582 171.1 281 167.518 281 163.1C281 158.681 284.582 155.1 289 155.1C293.418 155.1 297 158.681 297 163.1ZM290.453 171.983C289.98 172.06 289.495 172.1 289 172.1C288.478 172.1 287.966 172.055 287.469 171.97C287.472 172.215 287.475 172.519 287.478 172.865C287.484 173.698 287.487 174.774 287.487 175.85C287.487 176.925 287.484 178.002 287.478 178.835C287.475 179.251 287.471 179.608 287.466 179.873C287.465 179.937 287.464 179.998 287.463 180.055C287.506 180.063 287.557 180.071 287.614 180.079C287.952 180.125 288.425 180.15 288.912 180.15C289.4 180.15 289.88 180.125 290.232 180.079C290.322 180.067 290.399 180.054 290.461 180.042C290.462 179.983 290.463 179.916 290.464 179.842C290.468 179.571 290.47 179.204 290.471 178.773C290.473 177.912 290.472 176.801 290.469 175.701C290.466 174.601 290.461 173.514 290.457 172.702C290.456 172.428 290.454 172.184 290.453 171.983ZM287.262 180.006C287.26 180.005 287.259 180.004 287.259 180.004L287.262 180.006Z" fill="#093373"/>
<path d="M292 163.1C292 164.756 290.657 166.1 289 166.1C287.343 166.1 286 164.756 286 163.1C286 161.443 287.343 160.1 289 160.1C290.657 160.1 292 161.443 292 163.1Z" fill="#093373"/>
<path fill-rule="evenodd" clip-rule="evenodd" d="M340.93 130.468C339.478 127.862 336.695 126.1 333.5 126.1C328.806 126.1 325 129.905 325 134.6C325 137.946 326.933 140.84 329.744 142.227C327.987 145.81 327 149.84 327 154.1C327 169.011 339.088 181.1 354 181.1C368.912 181.1 381 169.011 381 154.1C381 149.665 379.931 145.48 378.037 141.789C380.418 140.283 382 137.626 382 134.6C382 129.905 378.194 126.1 373.5 126.1C370.474 126.1 367.817 127.681 366.311 130.063C362.619 128.169 358.434 127.1 354 127.1C349.259 127.1 344.803 128.322 340.93 130.468ZM331.081 141.771L330.642 142.667C328.95 146.116 328 149.996 328 154.1C328 168.459 339.641 180.1 354 180.1C368.359 180.1 380 168.459 380 154.1C380 149.828 378.97 145.799 377.147 142.246L376.73 141.432L377.502 140.944C379.606 139.613 381 137.269 381 134.6C381 130.457 377.642 127.1 373.5 127.1C370.831 127.1 368.486 128.493 367.156 130.597L366.667 131.37L365.854 130.953C362.301 129.129 358.272 128.1 354 128.1C349.433 128.1 345.143 129.276 341.415 131.343L340.542 131.826L340.057 130.955C338.774 128.653 336.318 127.1 333.5 127.1C329.358 127.1 326 130.457 326 134.6C326 137.55 327.704 140.105 330.186 141.33L331.081 141.771Z" fill="#093373"/>
<path fill-rule="evenodd" clip-rule="evenodd" d="M356.452 171.761C360.231 170.694 363 167.22 363 163.1C363 158.129 358.971 154.1 354 154.1C349.029 154.1 345 158.129 345 163.1C345 167.19 347.728 170.643 351.464 171.738C351.465 171.771 351.466 171.806 351.466 171.844C351.471 172.104 351.475 172.457 351.478 172.872C351.484 173.702 351.487 174.775 351.487 175.85C351.487 176.924 351.484 177.997 351.478 178.827C351.475 179.242 351.471 179.595 351.466 179.856C351.464 179.986 351.462 180.092 351.459 180.17C351.457 180.242 351.455 180.276 351.454 180.285C351.454 180.287 351.454 180.288 351.454 180.288C351.421 180.552 351.574 180.729 351.668 180.806C351.76 180.882 351.863 180.925 351.937 180.952C352.091 181.007 352.285 181.044 352.48 181.07C352.879 181.124 353.4 181.15 353.912 181.15C354.425 181.15 354.952 181.124 355.362 181.07C355.563 181.044 355.76 181.008 355.918 180.956C355.995 180.931 356.091 180.893 356.178 180.833C356.255 180.78 356.417 180.648 356.446 180.412C356.457 180.326 356.461 180.11 356.464 179.854C356.468 179.578 356.47 179.208 356.471 178.776C356.473 177.912 356.472 176.798 356.469 175.698C356.466 174.598 356.461 173.51 356.457 172.697C356.455 172.316 356.454 171.995 356.452 171.761ZM362 163.1C362 167.518 358.418 171.1 354 171.1C349.582 171.1 346 167.518 346 163.1C346 158.681 349.582 155.1 354 155.1C358.418 155.1 362 158.681 362 163.1ZM355.453 171.983C354.98 172.06 354.495 172.1 354 172.1C353.478 172.1 352.966 172.055 352.469 171.97C352.472 172.215 352.475 172.519 352.478 172.865C352.484 173.698 352.487 174.774 352.487 175.85C352.487 176.925 352.484 178.002 352.478 178.835C352.475 179.251 352.471 179.608 352.466 179.873C352.465 179.937 352.464 179.998 352.463 180.055C352.506 180.063 352.557 180.071 352.614 180.079C352.952 180.125 353.425 180.15 353.912 180.15C354.4 180.15 354.88 180.125 355.232 180.079C355.322 180.067 355.399 180.054 355.461 180.042C355.462 179.983 355.463 179.916 355.464 179.842C355.468 179.571 355.47 179.204 355.471 178.773C355.473 177.912 355.472 176.801 355.469 175.701C355.466 174.601 355.461 173.514 355.457 172.702C355.456 172.428 355.454 172.184 355.453 171.983ZM352.262 180.006C352.26 180.005 352.259 180.004 352.259 180.004L352.262 180.006Z" fill="#093373"/>
<path d="M357 163.1C357 164.756 355.657 166.1 354 166.1C352.343 166.1 351 164.756 351 163.1C351 161.443 352.343 160.1 354 160.1C355.657 160.1 357 161.443 357 163.1Z" fill="#093373"/>
<path fill-rule="evenodd" clip-rule="evenodd" d="M405.93 130.468C404.478 127.862 401.695 126.1 398.5 126.1C393.806 126.1 390 129.905 390 134.6C390 137.946 391.933 140.84 394.744 142.227C392.987 145.81 392 149.84 392 154.1C392 169.011 404.088 181.1 419 181.1C433.912 181.1 446 169.011 446 154.1C446 149.665 444.931 145.48 443.037 141.789C445.418 140.283 447 137.626 447 134.6C447 129.905 443.194 126.1 438.5 126.1C435.474 126.1 432.817 127.681 431.311 130.063C427.619 128.169 423.434 127.1 419 127.1C414.259 127.1 409.803 128.322 405.93 130.468ZM396.081 141.771L395.642 142.667C393.95 146.116 393 149.996 393 154.1C393 168.459 404.641 180.1 419 180.1C433.359 180.1 445 168.459 445 154.1C445 149.828 443.97 145.799 442.147 142.246L441.73 141.432L442.502 140.944C444.606 139.613 446 137.269 446 134.6C446 130.457 442.642 127.1 438.5 127.1C435.831 127.1 433.486 128.493 432.156 130.597L431.667 131.37L430.854 130.953C427.301 129.129 423.272 128.1 419 128.1C414.433 128.1 410.143 129.276 406.415 131.343L405.542 131.826L405.057 130.955C403.774 128.653 401.318 127.1 398.5 127.1C394.358 127.1 391 130.457 391 134.6C391 137.55 392.704 140.105 395.186 141.33L396.081 141.771Z" fill="#093373"/>
<path fill-rule="evenodd" clip-rule="evenodd" d="M421.452 171.761C425.231 170.694 428 167.22 428 163.1C428 158.129 423.971 154.1 419 154.1C414.029 154.1 410 158.129 410 163.1C410 167.19 412.728 170.643 416.464 171.738C416.465 171.771 416.466 171.806 416.466 171.844C416.471 172.104 416.475 172.457 416.478 172.872C416.484 173.702 416.487 174.775 416.487 175.85C416.487 176.924 416.484 177.997 416.478 178.827C416.475 179.242 416.471 179.595 416.466 179.856C416.464 179.986 416.462 180.092 416.459 180.17C416.457 180.242 416.455 180.276 416.454 180.285C416.454 180.287 416.454 180.288 416.454 180.288C416.421 180.552 416.574 180.729 416.668 180.806C416.76 180.882 416.863 180.925 416.937 180.952C417.091 181.007 417.285 181.044 417.48 181.07C417.879 181.124 418.4 181.15 418.912 181.15C419.425 181.15 419.952 181.124 420.362 181.07C420.563 181.044 420.76 181.008 420.918 180.956C420.995 180.931 421.091 180.893 421.178 180.833C421.255 180.78 421.417 180.648 421.446 180.412C421.457 180.326 421.461 180.11 421.464 179.854C421.468 179.578 421.47 179.208 421.471 178.776C421.473 177.912 421.472 176.798 421.469 175.698C421.466 174.598 421.461 173.51 421.457 172.697C421.455 172.316 421.454 171.995 421.452 171.761ZM427 163.1C427 167.518 423.418 171.1 419 171.1C414.582 171.1 411 167.518 411 163.1C411 158.681 414.582 155.1 419 155.1C423.418 155.1 427 158.681 427 163.1ZM420.453 171.983C419.98 172.06 419.495 172.1 419 172.1C418.478 172.1 417.966 172.055 417.469 171.97C417.472 172.215 417.475 172.519 417.478 172.865C417.484 173.698 417.487 174.774 417.487 175.85C417.487 176.925 417.484 178.002 417.478 178.835C417.475 179.251 417.471 179.608 417.466 179.873C417.465 179.937 417.464 179.998 417.463 180.055C417.506 180.063 417.557 180.071 417.614 180.079C417.952 180.125 418.425 180.15 418.912 180.15C419.4 180.15 419.88 180.125 420.232 180.079C420.322 180.067 420.399 180.054 420.461 180.042C420.462 179.983 420.463 179.916 420.464 179.842C420.468 179.571 420.47 179.204 420.471 178.773C420.473 177.912 420.472 176.801 420.469 175.701C420.466 174.601 420.461 173.514 420.457 172.702C420.456 172.428 420.454 172.184 420.453 171.983ZM417.262 180.006C417.26 180.005 417.259 180.004 417.259 180.004L417.262 180.006Z" fill="#093373"/>
<path d="M422 163.1C422 164.756 420.657 166.1 419 166.1C417.343 166.1 416 164.756 416 163.1C416 161.443 417.343 160.1 419 160.1C420.657 160.1 422 161.443 422 163.1Z" fill="#093373"/>
<path fill-rule="evenodd" clip-rule="evenodd" d="M470.93 130.468C469.478 127.862 466.695 126.1 463.5 126.1C458.806 126.1 455 129.905 455 134.6C455 137.946 456.933 140.84 459.744 142.227C457.987 145.81 457 149.84 457 154.1C457 169.011 469.088 181.1 484 181.1C498.912 181.1 511 169.011 511 154.1C511 149.665 509.931 145.48 508.037 141.789C510.418 140.283 512 137.626 512 134.6C512 129.905 508.194 126.1 503.5 126.1C500.474 126.1 497.817 127.681 496.311 130.063C492.619 128.169 488.434 127.1 484 127.1C479.259 127.1 474.803 128.322 470.93 130.468ZM461.081 141.771L460.642 142.667C458.95 146.116 458 149.996 458 154.1C458 168.459 469.641 180.1 484 180.1C498.359 180.1 510 168.459 510 154.1C510 149.828 508.97 145.799 507.147 142.246L506.73 141.432L507.502 140.944C509.606 139.613 511 137.269 511 134.6C511 130.457 507.642 127.1 503.5 127.1C500.831 127.1 498.486 128.493 497.156 130.597L496.667 131.37L495.854 130.953C492.301 129.129 488.272 128.1 484 128.1C479.433 128.1 475.143 129.276 471.415 131.343L470.542 131.826L470.057 130.955C468.774 128.653 466.318 127.1 463.5 127.1C459.358 127.1 456 130.457 456 134.6C456 137.55 457.704 140.105 460.186 141.33L461.081 141.771Z" fill="#093373"/>
<path fill-rule="evenodd" clip-rule="evenodd" d="M486.452 171.761C490.231 170.694 493 167.22 493 163.1C493 158.129 488.971 154.1 484 154.1C479.029 154.1 475 158.129 475 163.1C475 167.19 477.728 170.643 481.464 171.738C481.465 171.771 481.466 171.806 481.466 171.844C481.471 172.104 481.475 172.457 481.478 172.872C481.484 173.702 481.487 174.775 481.487 175.85C481.487 176.924 481.484 177.997 481.478 178.827C481.475 179.242 481.471 179.595 481.466 179.856C481.464 179.986 481.462 180.092 481.459 180.17C481.457 180.242 481.455 180.276 481.454 180.285C481.454 180.287 481.454 180.288 481.454 180.288C481.421 180.552 481.574 180.729 481.668 180.806C481.76 180.882 481.863 180.925 481.937 180.952C482.091 181.007 482.285 181.044 482.48 181.07C482.879 181.124 483.4 181.15 483.912 181.15C484.425 181.15 484.952 181.124 485.362 181.07C485.563 181.044 485.76 181.008 485.918 180.956C485.995 180.931 486.091 180.893 486.178 180.833C486.255 180.78 486.417 180.648 486.446 180.412C486.457 180.326 486.461 180.11 486.464 179.854C486.468 179.578 486.47 179.208 486.471 178.776C486.473 177.912 486.472 176.798 486.469 175.698C486.466 174.598 486.461 173.51 486.457 172.697C486.455 172.316 486.454 171.995 486.452 171.761ZM492 163.1C492 167.518 488.418 171.1 484 171.1C479.582 171.1 476 167.518 476 163.1C476 158.681 479.582 155.1 484 155.1C488.418 155.1 492 158.681 492 163.1ZM485.453 171.983C484.98 172.06 484.495 172.1 484 172.1C483.478 172.1 482.966 172.055 482.469 171.97C482.472 172.215 482.475 172.519 482.478 172.865C482.484 173.698 482.487 174.774 482.487 175.85C482.487 176.925 482.484 178.002 482.478 178.835C482.475 179.251 482.471 179.608 482.466 179.873C482.465 179.937 482.464 179.998 482.463 180.055C482.506 180.063 482.557 180.071 482.614 180.079C482.952 180.125 483.425 180.15 483.912 180.15C484.4 180.15 484.88 180.125 485.232 180.079C485.322 180.067 485.399 180.054 485.461 180.042C485.462 179.983 485.463 179.916 485.464 179.842C485.468 179.571 485.47 179.204 485.471 178.773C485.473 177.912 485.472 176.801 485.469 175.701C485.466 174.601 485.461 173.514 485.457 172.702C485.456 172.428 485.454 172.184 485.453 171.983ZM482.262 180.006C482.26 180.005 482.259 180.004 482.259 180.004L482.262 180.006Z" fill="#093373"/>
<path d="M487 163.1C487 164.756 485.657 166.1 484 166.1C482.343 166.1 481 164.756 481 163.1C481 161.443 482.343 160.1 484 160.1C485.657 160.1 487 161.443 487 163.1Z" fill="#093373"/>
</svg>
