<svg width="436" height="382" viewBox="0 0 436 382" fill="none" xmlns="http://www.w3.org/2000/svg">
<mask id="path-1-inside-1_1682_1905" fill="white">
<path d="M436 191C436 296.486 350.24 382 244.45 382C138.659 382 0 243.739 0 138.253C0 32.7665 138.659 0 244.45 0C350.24 0 436 85.5136 436 191Z"/>
<path d="M401.198 191C401.198 284.221 325.295 359.791 231.665 359.791C138.034 359.791 15.3129 237.607 15.3129 144.386C15.3129 51.1658 138.034 22.2093 231.665 22.2093C325.295 22.2093 401.198 97.7795 401.198 191Z"/>
<path d="M409.55 191C409.55 288.514 330.253 367.564 232.434 367.564C134.615 367.564 6.40358 239.753 6.40358 142.24C6.40358 44.726 134.615 14.436 232.434 14.436C330.253 14.436 409.55 93.4865 409.55 191Z"/>
<path d="M363.333 191C363.333 271.648 297.617 337.026 216.551 337.026C135.486 337.026 29.2337 231.321 29.2337 150.673C29.2337 70.025 135.486 44.9738 216.551 44.9738C297.617 44.9738 363.333 110.352 363.333 191Z"/>
<path d="M325.469 191C325.469 258.462 270.486 313.151 202.661 313.151C134.836 313.151 45.9387 224.729 45.9387 157.266C45.9387 89.8042 134.836 68.8488 202.661 68.8488C270.486 68.8488 325.469 123.538 325.469 191Z"/>
<path d="M341.06 191C341.06 264.289 281.477 323.701 207.978 323.701C134.478 323.701 38.143 227.642 38.143 154.353C38.143 81.0645 134.478 58.2994 207.978 58.2994C281.477 58.2994 341.06 117.712 341.06 191Z"/>
<path d="M288.718 188.224C288.718 244.647 242.716 290.387 185.97 290.387C129.225 290.387 54.848 216.433 54.848 160.01C54.848 103.587 129.225 86.0611 185.97 86.0611C242.716 86.0611 288.718 131.801 288.718 188.224Z"/>
<path d="M252.524 188.224C252.524 232.688 216.16 268.733 171.304 268.733C126.448 268.733 67.6552 210.454 67.6552 165.99C67.6552 121.527 126.448 107.715 171.304 107.715C216.16 107.715 252.524 143.76 252.524 188.224Z"/>
<path d="M265.888 188.224C265.888 236.981 225.91 276.506 176.595 276.506C127.28 276.506 62.6437 212.6 62.6437 163.844C62.6437 115.087 127.28 99.9419 176.595 99.9419C225.91 99.9419 265.888 139.467 265.888 188.224Z"/>
<path d="M218 188.224C218 221.342 190.837 248.189 157.33 248.189C123.823 248.189 79.9055 204.782 79.9055 171.664C79.9055 138.546 123.823 128.259 157.33 128.259C190.837 128.259 218 155.106 218 188.224Z"/>
<path d="M225.796 188.224C225.796 224.715 195.895 254.297 159.01 254.297C122.125 254.297 73.7803 206.468 73.7803 169.977C73.7803 133.486 122.125 122.151 159.01 122.151C195.895 122.151 225.796 151.733 225.796 188.224Z"/>
<path d="M197.954 188.224C197.954 213.676 177.144 234.308 151.473 234.308C125.802 234.308 92.1558 200.949 92.1558 175.497C92.1558 150.045 125.802 142.14 151.473 142.14C177.144 142.14 197.954 162.772 197.954 188.224Z"/>
<path d="M202.966 188.224C202.966 216.129 180.184 238.75 152.081 238.75C123.978 238.75 87.1443 202.175 87.1443 174.27C87.1443 146.366 123.978 137.698 152.081 137.698C180.184 137.698 202.966 160.319 202.966 188.224Z"/>
<path d="M177.908 188.224C177.908 206.316 162.903 220.983 144.393 220.983C125.883 220.983 101.622 197.269 101.622 179.177C101.622 161.085 125.883 155.465 144.393 155.465C162.903 155.465 177.908 170.132 177.908 188.224Z"/>
<path d="M181.806 188.224C181.806 208.156 165.158 224.314 144.621 224.314C124.085 224.314 97.1673 198.189 97.1673 178.257C97.1673 158.325 124.085 152.134 144.621 152.134C165.158 152.134 181.806 168.292 181.806 188.224Z"/>
<path d="M171.783 188.224C171.783 203.556 159.187 215.985 143.65 215.985C128.112 215.985 107.747 195.889 107.747 180.557C107.747 165.225 128.112 160.462 143.65 160.462C159.187 160.462 171.783 172.892 171.783 188.224Z"/>
<path d="M160.089 188.224C160.089 199.57 150.889 208.767 139.54 208.767C128.191 208.767 113.315 193.896 113.315 182.55C113.315 171.205 128.191 167.68 139.54 167.68C150.889 167.68 160.089 176.878 160.089 188.224Z"/>
<path d="M163.987 188.224C163.987 201.103 153.473 211.544 140.502 211.544C127.532 211.544 110.531 194.663 110.531 181.784C110.531 168.905 127.532 164.904 140.502 164.904C153.473 164.904 163.987 175.345 163.987 188.224Z"/>
<path d="M153.964 188.224C153.964 196.503 147.283 203.215 139.041 203.215C130.8 203.215 119.997 192.363 119.997 184.084C119.997 175.804 130.8 173.233 139.041 173.233C147.283 173.233 153.964 179.944 153.964 188.224Z"/>
<path d="M149.51 188.224C149.51 194.357 144.471 199.328 138.256 199.328C132.041 199.328 123.895 191.29 123.895 185.157C123.895 179.024 132.041 177.119 138.256 177.119C144.471 177.119 149.51 182.091 149.51 188.224Z"/>
<path d="M146.169 188.224C146.169 192.824 142.335 196.552 137.606 196.552C132.877 196.552 126.679 190.524 126.679 185.924C126.679 181.324 132.877 179.895 137.606 179.895C142.335 179.895 146.169 183.624 146.169 188.224Z"/>
<path d="M143.941 188.224C143.941 191.597 141.203 194.331 137.825 194.331C134.448 194.331 130.02 189.91 130.02 186.537C130.02 183.164 134.448 182.116 137.825 182.116C141.203 182.116 143.941 184.851 143.941 188.224Z"/>
<path d="M142.828 188.224C142.828 190.984 140.637 193.221 137.935 193.221C135.233 193.221 131.691 189.604 131.691 186.844C131.691 184.084 135.233 183.227 137.935 183.227C140.637 183.227 142.828 185.464 142.828 188.224Z"/>
<path d="M141.714 188.224C141.714 190.37 139.961 192.11 137.8 192.11C135.638 192.11 132.805 189.297 132.805 187.151C132.805 185.004 135.638 184.337 137.8 184.337C139.961 184.337 141.714 186.077 141.714 188.224Z"/>
<path d="M140.6 188.224C140.6 189.757 139.286 191 137.665 191C136.043 191 133.918 188.99 133.918 187.457C133.918 185.924 136.043 185.448 137.665 185.448C139.286 185.448 140.6 186.691 140.6 188.224Z"/>
</mask>
<path d="M436 191C436 296.486 350.24 382 244.45 382C138.659 382 0 243.739 0 138.253C0 32.7665 138.659 0 244.45 0C350.24 0 436 85.5136 436 191Z" stroke="#093373" stroke-width="2" mask="url(#path-1-inside-1_1682_1905)"/>
<path d="M401.198 191C401.198 284.221 325.295 359.791 231.665 359.791C138.034 359.791 15.3129 237.607 15.3129 144.386C15.3129 51.1658 138.034 22.2093 231.665 22.2093C325.295 22.2093 401.198 97.7795 401.198 191Z" stroke="#093373" stroke-width="2" mask="url(#path-1-inside-1_1682_1905)"/>
<path d="M409.55 191C409.55 288.514 330.253 367.564 232.434 367.564C134.615 367.564 6.40358 239.753 6.40358 142.24C6.40358 44.726 134.615 14.436 232.434 14.436C330.253 14.436 409.55 93.4865 409.55 191Z" stroke="#093373" stroke-width="2" mask="url(#path-1-inside-1_1682_1905)"/>
<path d="M363.333 191C363.333 271.648 297.617 337.026 216.551 337.026C135.486 337.026 29.2337 231.321 29.2337 150.673C29.2337 70.025 135.486 44.9738 216.551 44.9738C297.617 44.9738 363.333 110.352 363.333 191Z" stroke="#093373" stroke-width="2" mask="url(#path-1-inside-1_1682_1905)"/>
<path d="M325.469 191C325.469 258.462 270.486 313.151 202.661 313.151C134.836 313.151 45.9387 224.729 45.9387 157.266C45.9387 89.8042 134.836 68.8488 202.661 68.8488C270.486 68.8488 325.469 123.538 325.469 191Z" stroke="#093373" stroke-width="2" mask="url(#path-1-inside-1_1682_1905)"/>
<path d="M341.06 191C341.06 264.289 281.477 323.701 207.978 323.701C134.478 323.701 38.143 227.642 38.143 154.353C38.143 81.0645 134.478 58.2994 207.978 58.2994C281.477 58.2994 341.06 117.712 341.06 191Z" stroke="#093373" stroke-width="2" mask="url(#path-1-inside-1_1682_1905)"/>
<path d="M288.718 188.224C288.718 244.647 242.716 290.387 185.97 290.387C129.225 290.387 54.848 216.433 54.848 160.01C54.848 103.587 129.225 86.0611 185.97 86.0611C242.716 86.0611 288.718 131.801 288.718 188.224Z" stroke="#093373" stroke-width="2" mask="url(#path-1-inside-1_1682_1905)"/>
<path d="M252.524 188.224C252.524 232.688 216.16 268.733 171.304 268.733C126.448 268.733 67.6552 210.454 67.6552 165.99C67.6552 121.527 126.448 107.715 171.304 107.715C216.16 107.715 252.524 143.76 252.524 188.224Z" stroke="#093373" stroke-width="2" mask="url(#path-1-inside-1_1682_1905)"/>
<path d="M265.888 188.224C265.888 236.981 225.91 276.506 176.595 276.506C127.28 276.506 62.6437 212.6 62.6437 163.844C62.6437 115.087 127.28 99.9419 176.595 99.9419C225.91 99.9419 265.888 139.467 265.888 188.224Z" stroke="#093373" stroke-width="2" mask="url(#path-1-inside-1_1682_1905)"/>
<path d="M218 188.224C218 221.342 190.837 248.189 157.33 248.189C123.823 248.189 79.9055 204.782 79.9055 171.664C79.9055 138.546 123.823 128.259 157.33 128.259C190.837 128.259 218 155.106 218 188.224Z" stroke="#093373" stroke-width="2" mask="url(#path-1-inside-1_1682_1905)"/>
<path d="M225.796 188.224C225.796 224.715 195.895 254.297 159.01 254.297C122.125 254.297 73.7803 206.468 73.7803 169.977C73.7803 133.486 122.125 122.151 159.01 122.151C195.895 122.151 225.796 151.733 225.796 188.224Z" stroke="#093373" stroke-width="2" mask="url(#path-1-inside-1_1682_1905)"/>
<path d="M197.954 188.224C197.954 213.676 177.144 234.308 151.473 234.308C125.802 234.308 92.1558 200.949 92.1558 175.497C92.1558 150.045 125.802 142.14 151.473 142.14C177.144 142.14 197.954 162.772 197.954 188.224Z" stroke="#093373" stroke-width="2" mask="url(#path-1-inside-1_1682_1905)"/>
<path d="M202.966 188.224C202.966 216.129 180.184 238.75 152.081 238.75C123.978 238.75 87.1443 202.175 87.1443 174.27C87.1443 146.366 123.978 137.698 152.081 137.698C180.184 137.698 202.966 160.319 202.966 188.224Z" stroke="#093373" stroke-width="2" mask="url(#path-1-inside-1_1682_1905)"/>
<path d="M177.908 188.224C177.908 206.316 162.903 220.983 144.393 220.983C125.883 220.983 101.622 197.269 101.622 179.177C101.622 161.085 125.883 155.465 144.393 155.465C162.903 155.465 177.908 170.132 177.908 188.224Z" stroke="#093373" stroke-width="2" mask="url(#path-1-inside-1_1682_1905)"/>
<path d="M181.806 188.224C181.806 208.156 165.158 224.314 144.621 224.314C124.085 224.314 97.1673 198.189 97.1673 178.257C97.1673 158.325 124.085 152.134 144.621 152.134C165.158 152.134 181.806 168.292 181.806 188.224Z" stroke="#093373" stroke-width="2" mask="url(#path-1-inside-1_1682_1905)"/>
<path d="M171.783 188.224C171.783 203.556 159.187 215.985 143.65 215.985C128.112 215.985 107.747 195.889 107.747 180.557C107.747 165.225 128.112 160.462 143.65 160.462C159.187 160.462 171.783 172.892 171.783 188.224Z" stroke="#093373" stroke-width="2" mask="url(#path-1-inside-1_1682_1905)"/>
<path d="M160.089 188.224C160.089 199.57 150.889 208.767 139.54 208.767C128.191 208.767 113.315 193.896 113.315 182.55C113.315 171.205 128.191 167.68 139.54 167.68C150.889 167.68 160.089 176.878 160.089 188.224Z" stroke="#093373" stroke-width="2" mask="url(#path-1-inside-1_1682_1905)"/>
<path d="M163.987 188.224C163.987 201.103 153.473 211.544 140.502 211.544C127.532 211.544 110.531 194.663 110.531 181.784C110.531 168.905 127.532 164.904 140.502 164.904C153.473 164.904 163.987 175.345 163.987 188.224Z" stroke="#093373" stroke-width="2" mask="url(#path-1-inside-1_1682_1905)"/>
<path d="M153.964 188.224C153.964 196.503 147.283 203.215 139.041 203.215C130.8 203.215 119.997 192.363 119.997 184.084C119.997 175.804 130.8 173.233 139.041 173.233C147.283 173.233 153.964 179.944 153.964 188.224Z" stroke="#093373" stroke-width="2" mask="url(#path-1-inside-1_1682_1905)"/>
<path d="M149.51 188.224C149.51 194.357 144.471 199.328 138.256 199.328C132.041 199.328 123.895 191.29 123.895 185.157C123.895 179.024 132.041 177.119 138.256 177.119C144.471 177.119 149.51 182.091 149.51 188.224Z" stroke="#093373" stroke-width="2" mask="url(#path-1-inside-1_1682_1905)"/>
<path d="M146.169 188.224C146.169 192.824 142.335 196.552 137.606 196.552C132.877 196.552 126.679 190.524 126.679 185.924C126.679 181.324 132.877 179.895 137.606 179.895C142.335 179.895 146.169 183.624 146.169 188.224Z" stroke="#093373" stroke-width="2" mask="url(#path-1-inside-1_1682_1905)"/>
<path d="M143.941 188.224C143.941 191.597 141.203 194.331 137.825 194.331C134.448 194.331 130.02 189.91 130.02 186.537C130.02 183.164 134.448 182.116 137.825 182.116C141.203 182.116 143.941 184.851 143.941 188.224Z" stroke="#093373" stroke-width="2" mask="url(#path-1-inside-1_1682_1905)"/>
<path d="M142.828 188.224C142.828 190.984 140.637 193.221 137.935 193.221C135.233 193.221 131.691 189.604 131.691 186.844C131.691 184.084 135.233 183.227 137.935 183.227C140.637 183.227 142.828 185.464 142.828 188.224Z" stroke="#093373" stroke-width="2" mask="url(#path-1-inside-1_1682_1905)"/>
<path d="M141.714 188.224C141.714 190.37 139.961 192.11 137.8 192.11C135.638 192.11 132.805 189.297 132.805 187.151C132.805 185.004 135.638 184.337 137.8 184.337C139.961 184.337 141.714 186.077 141.714 188.224Z" stroke="#093373" stroke-width="2" mask="url(#path-1-inside-1_1682_1905)"/>
<path d="M140.6 188.224C140.6 189.757 139.286 191 137.665 191C136.043 191 133.918 188.99 133.918 187.457C133.918 185.924 136.043 185.448 137.665 185.448C139.286 185.448 140.6 186.691 140.6 188.224Z" stroke="#093373" stroke-width="2" mask="url(#path-1-inside-1_1682_1905)"/>
</svg>
